<svg xmlns="http://www.w3.org/2000/svg" viewBox="0 0 110 110">
  <defs/>
  <style>.svg-teal{fill:#07c29e}.svg-light-gray{fill:#ebeff1}.svg-violet{fill:#a353ff}.svg-orange{fill:#f59b1c}
  </style>
  <g id="girl">
    <path
      d="M27.3 64.9c5.7 8.8 17.8 13.7 27.5 9.6-4.2-.8-8.3-2.2-11.8-4.3-7.4-4.4-11.7-11.3-12.3-19.5-.9-.1-1.7-.2-2.6-.4C25.5 24.9 54.4 5.6 77 17.6c-.1.6-.2 1.3-.4 1.9 10.2 5.4 17.3 16.3 17.3 28 .1 0 .3.1.4.1l-.5 2c0 .3 0 .6-.1.9-.1 0-.2 0-.2-.1-.5 8.3-4.8 15.3-12.3 19.7-3.3 2-7.1 3.3-11 4.1C88.3 82.5 107 58.3 97 41.7c-6-12.8-9.9-31.5-27.6-27.6C41.5 3.6 24.4 31 24.1 55.6c.2 2.7 1 5.2 2.2 7.5.9 1.4 1 1.7 1 1.8z"
      class="svg-teal"/>
    <path
      d="M55.5 46.1c.6.6 1.2 1.3 1.7 2.1.8 1.4 1.3 2.9 1.5 4.5h7c.2-1.6.7-3.1 1.5-4.5 1.9-3.2 5-4.9 8.9-4.8h.2c1.4 0 2.6.2 3.8.7-3.9-2.9-7.2-6.5-9.9-10.5-3.9 5.2-9 9.5-14.7 12.5zM48.9 48.9c-2.6.9-5.3 1.5-8 1.8-1 2.6-.8 5.7.6 8.1 1 1.7 2.9 3.7 6.8 3.6 3.8.1 5.8-1.9 6.8-3.6 1.6-2.7 1.6-6.6 0-9.3-.2-.4-.5-.8-.9-1.2-.1 0-.1 0-.2.1l-5.1.5zm3.5 4.9c.3 1.6-.4 3.5-2.3 3.5-3.2.1-3.2-5.6 0-5.5.8 0 1.4.3 1.8.8 1.5-.7 2 .2.5 1.2z"
      class="svg-light-gray"/>
    <path
      d="M84.8 48.3c2.1 3.5 2.1 8.2 0 11.8-1.8 3.2-5 4.9-8.9 4.8h-.2c-3.8 0-6.9-1.7-8.7-4.8-.9-1.5-1.3-3.1-1.5-4.8h-2c.2.2.3.4.5.6.6 1 .6 2.3 0 3.4-.5.9-1.5 1.5-2.6 1.5h-.1v-2.4c.4 0 .4-.1.5-.2.1-.3.1-.7 0-.9-.1-.1-.2-.3-.5-.2v-1.6h-2.8c-.1 1.7-.6 3.4-1.5 4.8-1.8 3.2-5 4.9-8.9 4.8h-.2c-3.8 0-6.9-1.7-8.7-4.8-1.6-2.7-1.9-6.1-1.1-9.1-1.7.1-3.4.1-5.1 0 .7 9.1 6.3 14.3 11.1 17.2 10.4 6.2 25.5 6.2 35.8 0 5-2.9 10.8-8.5 11.1-18.3-2.7-.8-5.3-2-7.8-3.4.7.3 1.2.9 1.6 1.6zM62 65.9c-1.8 0-3.5-.9-4.4-2.3l2-1.4c.5.8 1.4 1.2 2.4 1.2s1.9-.5 2.4-1.2l2 1.4c-.9 1.4-2.5 2.3-4.4 2.3z"
      class="svg-light-gray"/>
    <path
      d="M76 45.9h-.2c-2.2 0-3.8.7-5 1.6 2.3.1 9.2-.8 8.8 1.4-.1-.2-8 .3-9.7-.4-.3.3-.5.7-.7 1-1.6 2.7-1.6 6.6 0 9.3 1 1.7 2.9 3.7 6.8 3.6 3.8.1 5.8-1.9 6.8-3.6 1.6-2.7 1.6-6.6 0-9.3-1-1.7-3-3.6-6.8-3.6zm.4 7.9c.3 1.6-.4 3.5-2.3 3.5-3.2.1-3.2-5.6 0-5.5.8 0 1.4.3 1.8.9 1.5-.8 2 .1.5 1.1z"
      class="svg-light-gray"/>
    <path
      d="M93.6 50.5c-.8-.2-1.6-.4-2.4-.7-.4 9.8-6.2 15.4-11.2 18.3-10.4 6.1-25.4 6.1-35.8 0-4.8-2.8-10.3-8.1-11.1-17.2-.8-.1-1.6-.1-2.5-.2.6 8.2 4.8 15.1 12.3 19.5 3.5 2.1 7.6 3.5 11.8 4.3.2 0 .4.1.6.1v-2.3l1.4.2c1.8.2 3.6.3 5.3.4 1.8 0 3.6-.1 5.3-.3l1.4-.2v2.3c.5-.1.9-.2 1.4-.3 3.9-.8 7.7-2.2 11-4.1 7.7-4.5 12-11.5 12.5-19.8z"
      class="svg-violet"/>
    <path
      d="M75.3 54.3c.1.8-.3 1.7-1.2 1.7-1.7 0-1.7-2.9 0-2.9.3 0 .6.1.8.3.2-.2.4-.4.7-.6.1-.1.2-.1.3-.2-.4-.5-1-.9-1.8-.9-3.2-.1-3.2 5.6 0 5.5 1.9 0 2.7-1.9 2.3-3.5-.1 0-.1.1-.2.1-.3.3-.6.5-.9.5zM51.3 54.3c.1.8-.3 1.7-1.2 1.7-1.7 0-1.7-2.9 0-2.9.3 0 .6.1.8.3.2-.2.4-.4.7-.6.1-.1.2-.1.3-.2-.4-.5-1-.9-1.8-.8-3.2-.1-3.2 5.6 0 5.5 1.9 0 2.7-1.9 2.3-3.5-.1 0-.1.1-.2.1-.3.2-.6.4-.9.4zM70.3 33.3c-.1.1-.2.2-.3.4 2.6 4.1 6 7.6 9.9 10.5 1.3.5 2.5 1.3 3.4 2.3 2.4 1.4 5 2.6 7.8 3.4.8.2 1.6.5 2.4.7.1 0 .2 0 .2.1 0-.3 0-.6.1-.9v.2c-9.7-2.2-18.2-8.4-23.5-16.7z"
      class="svg-teal"/>
    <path
      d="M71.9 31c4.8 8.2 12.9 14.2 22.1 16.5 0-11.7-7.2-22.7-17.3-28-1 4.1-2.7 8-4.8 11.5zM54.1 45.1c.5.3.9.7 1.4 1.1 5.8-3 10.8-7.3 14.6-12.5.1-.1.2-.2.3-.4-.4-.6-.7-1.2-1.1-1.9-3.7 5.9-9 10.6-15.2 13.7zM41.5 49.5l-.6 1.2c2.7-.3 5.4-.9 8-1.8l-4.3.5c-.6-2 5.8-1.9 8.3-2.2-.5-.3-1.1-.6-1.7-.9-2.9 1.1-5.9 1.9-9 2.2-.3.4-.5.7-.7 1z"
      class="svg-teal"/>
    <path
      d="M33.1 50.9c1.7.1 3.4.1 5.1 0 .2-.8.5-1.6.9-2.3h-.8v-2.4c.9 0 1.8 0 2.6-.1.1-.1.2-.2.4-.3-.8.1-1.7.1-2.5.1h-.5v-2.4c14.2.2 27.4-10.6 29.9-24.7l2.4.4c-1.9 11.1-10 20.3-20.2 24.4.2 0 .4.1.6.1C61.3 39.4 69.4 30 71.4 18.8l2.4.4c-.6 3.4-1.7 6.6-3.3 9.6l1.2 2.1c2.2-3.5 3.8-7.4 4.8-11.5.1-.6.3-1.3.4-1.9-22.6-12-51.5 7.3-48.9 32.7.9.2 1.7.3 2.6.4.9.2 1.7.3 2.5.3z"
      class="svg-teal"/>
    <path
      d="M66.4 75c-1.4.1-2.9.2-4.3.2s-2.9-.1-4.3-.2v.8c-.1 3-.2 7.1 1.5 8.8.7.7 1.5 1 2.8.9 1.2 0 2.2-.3 2.8-.9 1.7-1.8 1.6-5.9 1.5-8.8V75z"
      class="svg-light-gray"/>
    <path
      d="M94.3 111l-3-17.2C91 81.5 79 80.7 69.4 81.2V81h-.6c.2-1.8.2-3.6.1-5.3v-1.1-2.3l-1.4.2c-1.8.2-3.5.3-5.3.3-1.8 0-3.6-.1-5.3-.4l-1.4-.2v3.4c0 1.7-.1 3.5.1 5.3H55v.2c-8.8-.4-19.6.2-21.6 9.7.4.2-3.7 19.8-3.7 19.8l64.6.4zM57.8 75.8V75c1.4.1 2.9.2 4.3.2s2.9-.1 4.3-.2v.7c.1 3 .2 7.1-1.5 8.8-.6.7-1.6 1-2.8.9-1.2 0-2.1-.3-2.8-.9-1.7-1.7-1.6-5.8-1.5-8.7zM50.1 53.1c-1.7 0-1.7 2.9 0 2.9.9 0 1.3-.9 1.2-1.7-.8.2-1.1-.3-.5-.9-.1-.2-.4-.3-.7-.3zM74.1 53.1c-1.7 0-1.7 2.9 0 2.9.9 0 1.3-.9 1.2-1.7-.8.2-1-.3-.5-.9-.1-.2-.4-.3-.7-.3zM62 63.4c-1 0-1.9-.5-2.4-1.2l-2 1.4c1 1.4 2.6 2.3 4.4 2.3s3.5-.9 4.4-2.3l-2-1.4c-.5.8-1.4 1.2-2.4 1.2zM44.6 49.4l4.3-.5 5.1-.6c.1 0 .1 0 .2-.1-.3-.4-.7-.7-1.2-1.1-2.6.4-9 .3-8.4 2.3zM79.6 48.9c.4-2.2-6.5-1.3-8.8-1.4-.4.3-.7.6-1 1 1.9.8 9.7.2 9.8.4z"
      class="svg-violet"/>
    <path
      d="M39.4 60.1c1.8 3.1 4.9 4.8 8.7 4.8h.2c3.8.1 7-1.7 8.9-4.8.9-1.5 1.3-3.1 1.5-4.8H58v-2.4h.6c-.2-1.6-.7-3.1-1.5-4.5-.5-.8-1-1.5-1.7-2.1-.4-.4-.9-.7-1.4-1.1-1 .5-1.9.9-2.9 1.3.7.2 1.2.5 1.7.9.5.3.9.7 1.2 1.1.4.4.7.8.9 1.2 1.6 2.7 1.6 6.6 0 9.3-1 1.7-3 3.7-6.8 3.6-3.8.1-5.8-1.9-6.8-3.6-1.4-2.4-1.6-5.5-.6-8.1.2-.4.3-.8.6-1.2.2-.3.4-.7.7-1-1 .1-2 .2-3 .2-.4.7-.7 1.5-.9 2.3-.7 2.8-.3 6.2 1.3 8.9zM50.5 43.7c-2.9 1.2-6 1.9-9.1 2.2-.1.1-.2.2-.4.3 3.5-.2 6.9-1.1 10.1-2.4-.2-.1-.4-.1-.6-.1zM76 43.5c-3.9-.1-7.1 1.7-8.9 4.8-.8 1.4-1.3 2.9-1.5 4.5h.4v2.4h-.4c.1 1.7.6 3.4 1.5 4.8 1.8 3.1 4.9 4.8 8.7 4.8h.2c3.9.1 7-1.7 8.9-4.8 2.1-3.5 2.1-8.3 0-11.8-.4-.7-.9-1.3-1.4-1.9-1-1-2.1-1.8-3.4-2.3-1.2-.4-2.4-.7-3.8-.7-.2.2-.3.2-.3.2zm6.7 15.3c-1 1.7-2.9 3.7-6.8 3.6-3.8.1-5.8-1.9-6.8-3.6-1.6-2.7-1.6-6.6 0-9.3.2-.3.4-.7.7-1 .3-.3.6-.7 1-1 1.1-.9 2.7-1.6 5-1.6h.2c3.8 0 5.8 1.9 6.8 3.6 1.5 2.8 1.5 6.6-.1 9.3z"
      class="svg-orange"/>
    <path d="M66 52.8h-8v2.4h3.4v-.8h.1c.8 0 1.6.3 2.1.8H66v-2.4z" class="svg-orange"/>
    <path
      d="M61.4 54.4V56.8c.3 0 .4.1.5.2.1.3.1.7 0 .9-.1.1-.1.2-.5.2v2.4h.1c1.1 0 2.1-.5 2.6-1.5.6-1 .6-2.3 0-3.4-.1-.2-.3-.4-.5-.6-.6-.3-1.3-.6-2.2-.6z"
      class="svg-violet"/>
    <path
      d="M75.9 52.7c-.1 0-.2.1-.3.2-.3.2-.6.4-.7.6-.6.6-.3 1.1.5.9.3-.1.6-.2.9-.4.1 0 .1-.1.2-.1 1.4-1.1.9-2-.6-1.2zM51.9 52.6c-.1.1-.2.1-.3.2-.3.2-.6.4-.7.6-.6.6-.3 1.1.5.9.3-.1.6-.2.9-.4.1 0 .1-.1.2-.1 1.4-1 .9-1.9-.6-1.2z"
      class="svg-light-gray"/>
    <path
      d="M51.2 46.4c1-.4 2-.8 2.9-1.3 6.2-3 11.5-7.8 15.1-13.7-.3-.6-.6-1.1-.9-1.7l2.2-1.1c0 .1.1.2.1.2 1.5-3 2.7-6.2 3.3-9.6l-2.4-.4c-2 11.3-10.1 20.7-20.4 24.9-3.2 1.3-6.6 2.1-10.1 2.4-.9.1-1.8.1-2.6.1v2.4h.8c1 0 2-.1 3-.2 3.1-.2 6.1-.9 9-2z"
      class="svg-violet"/>
    <path
      d="M70.7 19.2l-2.4-.4c-2.5 14.1-15.6 25-29.9 24.7v2.4h.5c.9 0 1.7 0 2.5-.1 3.2-.3 6.2-1 9.1-2.2 10.2-4.1 18.2-13.3 20.2-24.4zM71.9 31l-1.2-2.1c0-.1-.1-.2-.1-.2l-2.2 1.1c.3.6.6 1.1.9 1.7.3.6.7 1.2 1.1 1.9 5.3 8.4 13.8 14.5 23.4 16.8l.1-.3.5-2c-.1 0-.3-.1-.4-.1-9.3-2.5-17.3-8.6-22.1-16.8z"
      class="svg-violet"/>
    <path
      d="M45.4 77.5c-7.9-.4-13.1-2.8-16.8-7.8l-2 1.4c4.2 5.7 9.9 8.4 18.6 8.8l.2-2.4zM100.9 53.6c0 6.4-2.7 12.8-7.3 17.1l1.7 1.8c5.2-4.9 8.1-11.8 8-18.9h-2.4zM77.3 77.3v2.4c3.3 0 6.5-.6 9.6-1.9l-.9-2.1c-2.7 1.1-5.7 1.6-8.7 1.6z"
      class="svg-teal"/>
  </g>
  <g id="girl-arm">
    <path fill="none"
          d="M54.9 81.2V81h.6c-.2-1.8-.2-3.6-.1-5.3v-1.1c-.2 0-.4-.1-.6-.1-9.7 4.2-21.8-.7-27.5-9.6-.8 2.3-1.4 5.3-1.1 7.5.2 1.4 0 5.3.1 9.1 2.3-.1 4.5.2 5.4 1.3.4.5.5 1.2.3 1.9-.1.4-.4.7-.8 1 .1.8.3 1.6.4 2.3.2.9.3 1.7.4 2.5.4.1.8.2 1.2.4 2.1-9.5 12.9-10.1 21.7-9.7zM26.6 71.1l2-1.4c3.7 5.1 8.9 7.5 16.8 7.8l-.1 2.4c-8.7-.4-14.5-3.1-18.7-8.8z"/>
    <path d="M26.3 83.9c0 .4 0 .7.1 1 1-.4 1.7-.7 2-1-.5.1-1.2 0-2.1 0zM28.5 84.2l.5-.1c-.1 0-.3-.1-.5-.1v.2z"
          class="svg-orange"/>
    <path
      d="M32 84.7c.3-.7.2-1.3-.3-1.9-.9-1.1-3.1-1.4-5.4-1.3 0 .8 0 1.6.1 2.4.9 0 1.6 0 2.1.1l.2-.2s0 .1-.1.2c.2 0 .4.1.5.1l1.9-.2v.1c.1.6.1 1.2.2 1.7.4-.3.6-.6.8-1zM13.1 86.2c.2.2 1 .4 2.2.4-.2-1-.4-1.9-.6-2.7-1 .5-1.7 1.1-2 1.9-.1.3-.1.6-.1.8l.7-.1c-.1-.2-.2-.3-.2-.3z"
      class="svg-violet"/>
    <path
      d="M17.9 75.4l-1.4.2c-.6-4 2.1-5.7 3.8-6.6.1-.1.2-.1.3-.2L14.2 70l-2-2.6s.2-.1.5-.2l-.3-.8.4-.2c0-.1-.1-.3-.1-.5-.5-1.9-1.5-7-3.2-6.3-.9 2.5 2.3 16 4.2 21l4.4-4.6c-.2-.1-.2-.2-.2-.4zM23.7 63.6c-.7-2.8-1.4-5.4-1.6-7.1-.5-2.6-2.5-3.4-2.4-.3.1 1.8 1.1 7 1.5 9.1.4 0 .9.1 1.4.2.3-.6.7-1.3 1.1-1.9zM20.3 65.3c-1.1-3.6-1.8-14.1-3.8-13.6-2.6.6.8 10.9.8 13.7 1-.2 2-.2 3-.1z"
      class="svg-light-gray"/>
    <path
      d="M13.6 54c-1.6-.4-1.4 1.7-1 4.1.1.7.7 5.8.7 7.9.7-.2 1.7-.5 3-.6-.8-3-1.6-11.8-2.7-11.4zM15.3 86.6c1.4.1 3.3 0 5.7-.3 2.3-.3 4.1-.8 5.4-1.3 0-.3 0-.7-.1-1 0-.8-.1-1.6-.1-2.4-.1-3.8.1-7.7-.1-9.1-.3-2.2.3-5.2 1.1-7.5.3-.9.7-1.7 1-2.4-.7-.3-1.4 0-2.1.6l-.2.2.5.7c-1.1.8-1.7 2.3-2.3 3.7-.3.7-.5 1.3-.9 1.8-.4.7-1.1 1.1-1.9 1.6-.7.4-1.4.9-1.8 1.4l-.6.9c-.2.5-.3 1.1-.2 1.9l-1.1.2v.4l-4.4 4.6c.3.7.7 1.9 1.1 3.4.6.7.8 1.6 1 2.6zM21.6 67.9c-4.9-.7-8.2.7-8.3.7l-.6-1.5c-.3.1-.5.2-.5.2l2 2.6 6.4-1.1c.3-.2.7-.4.8-.6 0-.1.1-.2.2-.3z"
      class="svg-light-gray"/>
    <path
      d="M12.7 67.1l.6 1.5s3.4-1.4 8.3-.7c.2-.3.3-.7.5-1.1.2-.4.3-.8.5-1.2-.5-.1-.9-.1-1.4-.2-.3 0-.6-.1-.9-.1-1.1-.1-2.1-.1-3 0-.3 0-.7.1-1 .1-1.3.2-2.4.4-3 .6-.2.1-.4.1-.6.2-.2.1-.4.1-.4.2l.4.7z"
      class="svg-violet"/>
    <path d="M19.7 72.4c-.3.3-.5.6-.6.9l.6-.9z" class="svg-light-gray"/>
    <path
      d="M22.1 66.7c-.2.4-.3.8-.5 1.1-.1.1-.1.3-.2.4-.1.1-.5.4-.8.6-.1.1-.2.1-.3.2-1.6 1-4.4 2.6-3.8 6.6l1.4-.2 1.1-.2c-.1-.8 0-1.4.2-1.9.1-.3.3-.6.6-.9.5-.5 1.1-.9 1.8-1.4.8-.5 1.5-.9 1.9-1.6.3-.5.6-1.2.9-1.8.6-1.3 1.2-2.9 2.3-3.7l-.5-.7-.9-1.2c-.6.4-1.1 1-1.5 1.6-.4.6-.8 1.3-1.1 1.9-.3.4-.5.9-.6 1.2zM13.2 96.9l-.2.2c-1.1 1.9.2 6.6 2.8 13.6h23.7l-5-15.3c-.1-.8-.7-1.6-1.4-2.1-.2-.2-.5-.3-.7-.4-1.1 3.6-16 6.1-19.2 4z"
      class="svg-violet"/>
    <path
      d="M35.9 93c-.4-.6-.9-1.2-1.6-1.6-.3-.2-.7-.4-1.1-.6-.4-.2-.8-.3-1.2-.4v1.4c.2.4.3.8.2 1.1.2.1.5.2.7.4.8.5 1.3 1.3 1.4 2.1l5 15.3H15.7c-2.6-7-3.9-11.8-2.8-13.6 0-.1.1-.2.2-.2-.4-.2-.6-.5-.6-.9l.2-.2c-.3-.4-.5-.7-.7-1.2-.5.4-.8.8-1.1 1.3-1.5 2.5-.8 6.4 2.9 16.5l.3.8h28.7l-.9-2.6L36.7 95c-.1-.7-.4-1.4-.8-2z"
      class="svg-orange"/>
    <path
      d="M31.4 93.6c-1.1 1.6-3.5 2.5-8.8 3.3-2.1.3-3.8.5-5.2.5-2 0-3.3-.3-4.2-1.1-.2-.2-.4-.3-.5-.5l-.2.2c0 .4.2.7.6.9 3.3 2 18.1-.4 19.1-3.9.1-.4 0-.8-.2-1.1-.1.6-.3 1.2-.6 1.7z"
      class="svg-orange"/>
    <path
      d="M22.2 94.5c2.7-.4 6.3-1.1 7.1-2.3.5-.7.3-1.8-.1-3.7-.1-.6-.3-1.2-.4-1.9-2.3 1.2-6 1.9-7.5 2.1-1.5.2-5.2.7-7.8.2.1.7.1 1.4.2 2 .2 2 .3 3.1.9 3.6 1.3.8 5 .4 7.6 0z"
      class="svg-violet"/>
    <path
      d="M12.7 95.8l.5.5c.9.7 2.2 1.1 4.2 1.1 1.4 0 3-.2 5.2-.5 5.3-.8 7.7-1.7 8.8-3.3.4-.5.6-1.1.7-1.7.1-.5.1-.9 0-1.4-.1-.8-.2-1.6-.4-2.5-.1-.7-.3-1.5-.4-2.3-.2-.5-.3-1.1-.3-1.7v-.1l-1.9.2-.5.1v-.1c0-.1 0-.2.1-.2l-.2.2c-.3.3-1 .6-2 1-1.3.5-3.1.9-5.4 1.3-2.4.4-4.4.4-5.7.3-1.2-.1-2-.3-2.2-.4 0 0 .1.1.2.3l-.7.1-1.7.3v.1c.3 1.5.4 2.9.5 4 .1 1.4.2 2.6.6 3.6.1.4.3.8.6 1.1zm2-1.4c-.6-.5-.8-1.6-.9-3.6-.1-.6-.1-1.3-.2-2 2.6.5 6.3 0 7.8-.2s5.1-.9 7.5-2.1c.1.7.3 1.4.4 1.9.4 1.9.6 3.1.1 3.7-.8 1.2-4.5 1.9-7.1 2.3-2.7.5-6.4.9-7.6 0z"
      class="svg-orange"/>
  </g>
</svg>
