<svg width="110" height="110" viewBox="0 0 110 110" fill="none" xmlns="http://www.w3.org/2000/svg">
<path d="M91.6663 37.2409L74.9982 47.1412V62.2367L91.6663 72.1432C91.8455 72.2505 92.0498 72.3082 92.2584 72.3105C92.4671 72.3128 92.6726 72.2595 92.854 72.1561C93.0354 72.0527 93.1862 71.9029 93.291 71.7219C93.3958 71.541 93.4508 71.3354 93.4504 71.1262V38.2579C93.4508 38.0486 93.3958 37.8431 93.291 37.6621C93.1862 37.4812 93.0354 37.3314 92.854 37.228C92.6726 37.1246 92.4671 37.0713 92.2584 37.0736C92.0498 37.0758 91.8455 37.1336 91.6663 37.2409Z" fill="#07C29E"/>
<path d="M67.5501 34H18.9389C17.3158 34 16 35.3193 16 36.9468V72.4434C16 74.0708 17.3158 75.3902 18.9389 75.3902H67.5501C69.1732 75.3902 70.489 74.0708 70.489 72.4434V36.9468C70.489 35.3193 69.1732 34 67.5501 34Z" fill="#07C29E"/>
<path d="M37.7577 45.3401L52.5805 54.1499C52.6806 54.2013 52.7646 54.2794 52.8232 54.3756C52.8819 54.4718 52.9129 54.5824 52.9129 54.6951C52.9129 54.8079 52.8819 54.9184 52.8232 55.0146C52.7646 55.1108 52.6806 55.189 52.5805 55.2404L37.7577 64.0563C37.6632 64.1207 37.5525 64.1572 37.4383 64.1617C37.324 64.1662 37.2108 64.1385 37.1115 64.0817C37.0123 64.0249 36.9309 63.9413 36.8766 63.8404C36.8223 63.7395 36.7974 63.6254 36.8046 63.511V45.916C36.7909 45.799 36.8111 45.6807 36.8628 45.575C36.9145 45.4693 36.9955 45.3808 37.0961 45.3201C37.1966 45.2593 37.3125 45.2289 37.4298 45.2325C37.5471 45.236 37.661 45.2734 37.7577 45.3401Z" fill="#EBEFF1"/>
</svg>
