<svg xmlns="http://www.w3.org/2000/svg" viewBox="0 0 220 110">
  <defs/>
  <path fill="#fff" fill-rule="evenodd"
        d="M82.6 24.8V49l-24.2-.1 8.2-8.2c-13-13.4-37.4-1.2-34.5 17.3 1.6 18.6 28.2 24.6 37.6 8.5l9.3 5.8C63.5 98.6 19 86.4 20 55.5 19.1 28.1 55.5 13.6 74.4 33l8.2-8.2zm28 51.3c-6.4 0-12-2.2-15.9-6l-6.4 9.1c5.8 4.9 13.7 7.8 22.3 7.8 26.3.4 31.5-31.4 6.1-36.8-31.3-4.7-9.1-23.9 8.1-10.4l6.4-9c-12-11-41.9-8.5-41.9 10.7 0 8.4 6 14.4 14.8 16.7l10.3 2.6c12.5 3.3 7.4 15.3-3.8 15.3zM190 44.5c-10.1-17.2-38.4-9-37.7 11-.7 19.9 27.7 28.2 37.7 11l9.3 5.8c-15.6 26.4-60.1 14.2-59.1-16.8-1-30.9 43.4-43.1 59.1-16.8l-9.3 5.8zm-27 11c-.3-11.3 17.1-13.1 19-2 2.8 13.5-19 15.7-19 2z"
        clip-rule="evenodd"/>
</svg>
