<svg xmlns="http://www.w3.org/2000/svg" viewBox="0 0 110 110">
  <defs/>
  <style>.svg-teal{fill:#07c29e}</style>
  <path id="Layer_2" fill="#fff"
        d="M107.2 29.1L82.8 43.6v22.1l24.4 14.5c.3.2.6.2.9.2.3 0 .6-.1.9-.2.3-.2.5-.4.6-.6.2-.3.2-.6.2-.9V30.5c0-.3-.1-.6-.2-.9-.2-.3-.4-.5-.6-.6-.3-.2-.6-.2-.9-.2-.3 0-.6.1-.9.3z"/>
  <g id="Layer_1">
    <path
      d="M91.7 37.2L75 47.1v15.1l16.7 9.9c.2.1.4.2.6.2.2 0 .4-.1.6-.2.2-.1.3-.3.4-.4.1-.2.2-.4.2-.6V38.3c0-.2-.1-.4-.2-.6-.1-.2-.3-.3-.4-.4-.2-.1-.4-.2-.6-.2-.3 0-.5 0-.6.1zM67.6 34H18.9c-1.6 0-2.9 1.3-2.9 2.9v35.5c0 1.6 1.3 2.9 2.9 2.9h48.6c1.6 0 2.9-1.3 2.9-2.9V36.9c.1-1.6-1.2-2.9-2.8-2.9z"
      class="svg-teal"/>
    <path fill="#ebeff1"
          d="M37.8 45.3l14.8 8.8c.1.1.2.1.2.2.1.1.1.2.1.3 0 .1 0 .2-.1.3-.1.1-.1.2-.2.2l-14.8 8.8c-.1.1-.2.1-.3.1-.1 0-.2 0-.3-.1-.1-.1-.2-.1-.2-.2-.1-.1-.1-.2-.1-.3V45.9c0-.1 0-.2.1-.3.1-.1.1-.2.2-.3.1-.1.2-.1.3-.1 0 0 .2.1.3.1z"/>
  </g>
</svg>
