<svg width="110" height="110" viewBox="0 0 110 110" fill="none" xmlns="http://www.w3.org/2000/svg">
<g clip-path="url(#clip0)">
<path d="M76.6806 104.778V110.243H78.7457L76.6806 104.778Z" fill="#E28625"/>
<path d="M94.644 95.0429C94.644 93.0037 94.2433 90.9845 93.4648 89.1006C92.6864 87.2167 91.5454 85.505 90.107 84.0634C88.6687 82.6217 86.9611 81.4783 85.082 80.6985C83.2028 79.9187 81.1888 79.5178 79.1551 79.5186H63.6601V80.56C63.3248 83.7957 61.8055 86.792 59.3957 88.9702C56.9859 91.1484 53.8566 92.3539 50.6122 92.3539C47.3678 92.3539 44.2385 91.1484 41.8287 88.9702C39.4189 86.792 37.8996 83.7957 37.5643 80.56V79.5186H21.6233C19.5898 79.5178 17.5762 79.9187 15.6973 80.6986C13.8185 81.4785 12.1114 82.622 10.6735 84.0637C9.23568 85.5055 8.09526 87.2172 7.31746 89.101C6.53966 90.9849 6.13974 93.004 6.14055 95.0429V95.0429L3 110.641H97.7051L94.644 95.0429Z" fill="#07C29E"/>
<path d="M33.4401 79.5186C33.4401 89.2718 40.4238 96.3969 50.5481 96.3969C60.6724 96.3969 67.7356 88.7756 67.7356 79.5186H63.6663V80.56C63.331 83.7957 61.8117 86.792 59.4019 88.9702C56.9921 91.1484 53.8628 92.3539 50.6184 92.3539C47.374 92.3539 44.2447 91.1484 41.8349 88.9702C39.4251 86.792 37.9058 83.7957 37.5705 80.56V79.5186H33.4401Z" fill="#279D80"/>
<path d="M24.605 38.0365C25.3057 31.6406 28.336 25.7291 33.1149 21.4349C37.8938 17.1407 44.0851 14.7661 50.5022 14.7661C56.9193 14.7661 63.1107 17.1407 67.8896 21.4349C72.6685 25.7291 75.6987 31.6406 76.3995 38.0365C76.3567 37.6873 76.3139 37.3381 76.2651 36.9889C77.6349 37.0748 78.9317 37.6383 79.9311 38.5818C79.4713 31.0851 76.1826 24.045 70.7332 18.8916C65.2838 13.7383 58.0823 10.8581 50.5916 10.8363C43.1009 10.8145 35.8828 13.6526 30.4036 18.774C24.9244 23.8955 21.595 30.9163 21.0917 38.4102C22.114 37.5264 23.4085 37.0224 24.7577 36.9827C24.6844 37.332 24.6416 37.6812 24.605 38.0365Z" fill="#F59B1C"/>
<path d="M24.4523 40.8608C24.557 34.0026 27.3476 27.4608 32.2216 22.6481C37.0955 17.8353 43.6617 15.1377 50.5023 15.1377C57.3429 15.1377 63.909 17.8353 68.783 22.6481C73.6569 27.4608 76.4475 34.0026 76.5523 40.8608V48.1696C76.4475 55.0278 73.6569 61.5695 68.783 66.3823C63.909 71.195 57.3429 73.8926 50.5023 73.8926C43.6617 73.8926 37.0955 71.195 32.2216 66.3823C27.3476 61.5695 24.557 55.0278 24.4523 48.1696V40.8608Z" fill="#EBEFF1" stroke="#A353FF" stroke-width="2.12" stroke-miterlimit="10"/>
<path d="M50.6092 74.2866C46.0315 74.2903 41.5331 73.0882 37.5644 70.8007V80.5601C37.8997 83.7957 39.419 86.792 41.8288 88.9702C44.2386 91.1484 47.3679 92.3539 50.6123 92.3539C53.8567 92.3539 56.986 91.1484 59.3958 88.9702C61.8056 86.792 63.3249 83.7957 63.6602 80.5601V70.8007C59.6896 73.089 55.189 74.2911 50.6092 74.2866Z" fill="#EBEFF1" stroke="#A353FF" stroke-width="2.12" stroke-miterlimit="10"/>
<path d="M38.7191 48.3166C40.2174 48.3166 41.432 47.0987 41.432 45.5965C41.432 44.0942 40.2174 42.8763 38.7191 42.8763C37.2209 42.8763 36.0063 44.0942 36.0063 45.5965C36.0063 47.0987 37.2209 48.3166 38.7191 48.3166Z" fill="#07C29E"/>
<path d="M38.7191 46.8708C39.421 46.8708 39.99 46.3002 39.99 45.5964C39.99 44.8927 39.421 44.3221 38.7191 44.3221C38.0172 44.3221 37.4482 44.8927 37.4482 45.5964C37.4482 46.3002 38.0172 46.8708 38.7191 46.8708Z" fill="#384349"/>
<path d="M38.7191 46.8708C39.421 46.8708 39.99 46.3002 39.99 45.5964C39.99 44.8927 39.421 44.3221 38.7191 44.3221C38.0172 44.3221 37.4482 44.8927 37.4482 45.5964C37.4482 46.3002 38.0172 46.8708 38.7191 46.8708Z" fill="#A353FF"/>
<path d="M62.6581 48.3166C64.1564 48.3166 65.371 47.0987 65.371 45.5965C65.371 44.0942 64.1564 42.8763 62.6581 42.8763C61.1599 42.8763 59.9453 44.0942 59.9453 45.5965C59.9453 47.0987 61.1599 48.3166 62.6581 48.3166Z" fill="#07C29E"/>
<path d="M62.6581 46.8708C63.36 46.8708 63.929 46.3002 63.929 45.5964C63.929 44.8927 63.36 44.3221 62.6581 44.3221C61.9562 44.3221 61.3872 44.8927 61.3872 45.5964C61.3872 46.3002 61.9562 46.8708 62.6581 46.8708Z" fill="#A353FF"/>
<path d="M36.7639 26.0103C36.7631 26.541 36.8667 27.0667 37.0687 27.5572C37.2706 28.0477 37.5671 28.4935 37.9411 28.8691C38.3151 29.2446 38.7592 29.5426 39.2481 29.7458C39.737 29.9491 40.2611 30.0537 40.7904 30.0537H70.1551C77.1999 30.0537 83.2 24.5828 83.5116 17.5191C83.5116 17.3108 83.5116 17.0964 83.5116 16.9064H72.8129C74.379 15.7768 75.6535 14.2886 76.5302 12.5655C77.407 10.8425 77.8607 8.93437 77.8537 7H43.6988C41.8271 7 40.0321 7.74551 38.7087 9.07252C37.3852 10.3995 36.6417 12.1993 36.6417 14.076V8.2743C34.6513 8.27912 32.6813 8.67709 30.8443 9.44548C29.0074 10.2139 27.3394 11.3376 25.9356 12.7525C24.5319 14.1674 23.4199 15.8458 22.6632 17.6917C21.9065 19.5376 21.5199 21.515 21.5256 23.5107C21.4911 27.0878 22.7698 30.5527 25.1182 33.2456L28.0083 32.149C31.3906 30.8707 34.4004 28.7647 36.7639 26.0226V26.0103Z" fill="#F59B1C"/>
<path d="M76.2651 36.9889C76.4565 38.2706 76.5524 39.5648 76.5523 40.8608V48.1696C76.5523 48.3595 76.5523 48.5495 76.5523 48.7455C77.9955 48.5885 79.3301 47.9025 80.2999 46.8193C81.2696 45.7362 81.8063 44.332 81.8069 42.8764V42.8764C81.8048 41.3719 81.2302 39.9249 80.2003 38.8308C79.1704 37.7366 77.7629 37.0778 76.2651 36.9889V36.9889Z" fill="#EBEFF1" stroke="#A353FF" stroke-width="2.12" stroke-miterlimit="10"/>
<path d="M24.4522 48.1696V40.8608C24.4518 39.5628 24.5478 38.2665 24.7394 36.9828C23.213 37.0321 21.7655 37.6745 20.7029 38.7743C19.6402 39.8741 19.0457 41.3451 19.0449 42.8764C19.0464 44.3595 19.605 45.7875 20.6093 46.8763C21.6136 47.965 22.99 48.6346 24.4645 48.7516C24.4645 48.5617 24.4522 48.3657 24.4522 48.1696Z" fill="#EBEFF1" stroke="#A353FF" stroke-width="2.12" stroke-miterlimit="10"/>
<path d="M43.1733 39.905H32.6213C32.6213 39.13 32.9284 38.3867 33.475 37.8386C34.0215 37.2906 34.7628 36.9827 35.5358 36.9827H43.1733C43.3645 36.9819 43.554 37.019 43.7307 37.092C43.9075 37.165 44.0682 37.2724 44.2034 37.408C44.3386 37.5435 44.4456 37.7046 44.5184 37.8818C44.5912 38.0591 44.6283 38.2491 44.6275 38.4408V38.4408C44.6283 38.6328 44.5913 38.823 44.5186 39.0007C44.4458 39.1783 44.3388 39.3397 44.2037 39.4758C44.0686 39.6118 43.908 39.7198 43.7312 39.7934C43.5544 39.8671 43.3648 39.905 43.1733 39.905Z" fill="#A353FF"/>
<path d="M68.3771 39.905H57.8312C57.4439 39.905 57.0725 39.7508 56.7986 39.4762C56.5248 39.2016 56.3709 38.8291 56.3709 38.4408V38.4408C56.3709 38.2488 56.4088 38.0587 56.4822 37.8814C56.5557 37.7041 56.6633 37.5431 56.799 37.4076C56.9347 37.2721 57.0957 37.1648 57.2729 37.0919C57.45 37.019 57.6397 36.9819 57.8312 36.9827H65.4626C65.8456 36.9819 66.2249 37.0569 66.5789 37.2035C66.9328 37.3501 67.2545 37.5653 67.5252 37.8368C67.796 38.1083 68.0107 38.4308 68.1569 38.7857C68.303 39.1407 68.3779 39.521 68.3771 39.905V39.905Z" fill="#A353FF"/>
<path d="M38.4992 53.8917C43.0311 53.8917 46.7049 50.208 46.7049 45.6639C46.7049 41.1199 43.0311 37.4362 38.4992 37.4362C33.9673 37.4362 30.2934 41.1199 30.2934 45.6639C30.2934 50.208 33.9673 53.8917 38.4992 53.8917Z" stroke="#2AB497" stroke-width="2.12" stroke-miterlimit="10"/>
<path d="M62.5054 53.8917C67.0373 53.8917 70.7111 50.208 70.7111 45.6639C70.7111 41.1199 67.0373 37.4362 62.5054 37.4362C57.9735 37.4362 54.2996 41.1199 54.2996 45.6639C54.2996 50.208 57.9735 53.8917 62.5054 53.8917Z" stroke="#2AB497" stroke-width="2.12" stroke-miterlimit="10"/>
<path d="M46.6988 45.6639H54.1591" stroke="#2AB497" stroke-width="2.12" stroke-miterlimit="10"/>
<path d="M38.4991 45.5964L36.7822 42.8885L35.8657 44.8613L38.4991 45.5964Z" fill="#EBEFF1"/>
<path d="M62.377 45.5964L60.6601 42.8885L59.7436 44.8613L62.377 45.5964Z" fill="#EBEFF1"/>
<path d="M56.3649 56.8813C54.208 61.7825 47.0165 61.7825 44.8597 56.8813" stroke="#A353FF" stroke-width="2.12" stroke-miterlimit="10"/>
<path d="M51.2691 55.0006C50.8405 55.0194 50.4126 54.9511 50.0111 54.7997C49.6096 54.6482 49.2429 54.4168 48.9329 54.1194C48.623 53.822 48.3764 53.4648 48.2079 53.0692C48.0394 52.6737 47.9526 52.248 47.9526 51.8179C47.9526 51.3878 48.0394 50.9622 48.2079 50.5666C48.3764 50.1711 48.623 49.8138 48.9329 49.5164C49.2429 49.219 49.6096 48.9876 50.0111 48.8362C50.4126 48.6848 50.8405 48.6164 51.2691 48.6353" stroke="#A353FF" stroke-width="2.12" stroke-miterlimit="10"/>
<path d="M70.1001 9.57922H42.9167C41.6203 9.57922 40.377 10.0956 39.4603 11.0147C38.5436 11.9339 38.0287 13.1805 38.0287 14.4804V16.496C38.0287 15.1961 38.5436 13.9495 39.4603 13.0303C40.377 12.1112 41.6203 11.5948 42.9167 11.5948H66.2691" stroke="#A353FF" stroke-width="2.12" stroke-miterlimit="10"/>
<path d="M65.8903 19.2651H79.4668" stroke="#A353FF" stroke-width="2.12" stroke-miterlimit="10"/>
<path d="M82.9739 26.3228C84.8223 23.4438 85.8765 20.1249 86.0289 16.7043V12.9672" stroke="#F59D20" stroke-width="2.12" stroke-miterlimit="10"/>
<path d="M56.0471 28.1913H69.2386C71.2259 28.1928 73.1868 27.7358 74.9698 26.8557" stroke="#A353FF" stroke-width="2.12" stroke-miterlimit="10"/>
<path d="M78.8618 41.89C78.8618 41.89 76.7172 41.602 76.5522 44.1812C76.6819 43.9066 76.8788 43.6694 77.1245 43.4916C77.3702 43.3138 77.6568 43.2012 77.9575 43.1642" stroke="#A353FF" stroke-width="2.12" stroke-linecap="round" stroke-linejoin="round"/>
<path d="M22.0632 41.8901C22.0632 41.8901 24.2079 41.6389 24.3239 44.2242C24.2011 43.9472 24.0098 43.7062 23.7682 43.524C23.5265 43.3417 23.2426 43.2243 22.9431 43.1827" stroke="#A353FF" stroke-width="2.12" stroke-linecap="round" stroke-linejoin="round"/>
<path d="M83.2244 90.3562C83.2244 90.3562 82.76 84.4993 83.5665 82.4286C84.3731 80.3579 87.3792 65.4706 87.8435 63.3264C88.6012 59.6812 91.7234 58.4926 91.5095 62.9466C91.369 66.1568 89.7987 77.1415 89.7987 77.1415C89.7987 77.1415 89.6704 78.6915 90.1653 77.0312C90.7763 74.9972 91.8578 67.4801 92.316 65.0663C92.7743 62.6525 93.147 56.4525 95.8965 57.1019C98.646 57.7513 96.9108 63.6082 96.3975 67.958C95.7438 73.4718 95.7254 75.4445 95.6338 76.4247C95.5544 77.2518 95.6888 78.1033 96.1287 76.6575C96.5686 75.2117 97.6379 60.4409 100.1 59.7731C102.343 59.1604 102.428 62.1379 101.933 65.5197C101.402 69.024 101.224 71.7809 100.949 75.5548C100.65 79.7207 100.815 78.9978 101.56 76.3696C102.306 73.7413 103.699 66.4386 106.125 67.4434C107.903 68.1847 104.365 76.682 104.108 82.5205C103.589 94.3751 101.255 98.4492 101.255 98.4492" fill="#EBEFF1"/>
<path d="M101.218 98.4186C99.8742 101.696 98.0595 110.616 98.0595 110.616H81.312C81.312 110.616 82.0696 108.037 82.3751 106.891C84.8191 97.7937 83.1511 91.073 82.705 86.0616C82.3995 82.6185 81.9046 79.6288 80.872 77.8828C79.7722 76.0142 77.206 73.2757 79.314 71.9034C80.7376 70.966 83.0777 72.173 84.7824 73.9864C86.9698 76.3144 87.257 78.3423 88.4484 80.3088C89.6399 82.2754 94.9617 84.1869 94.0086 90.6809" fill="#EBEFF1"/>
<path d="M102.129 78.6485C102.129 78.6485 96.7275 75.6527 87.6969 77.0985L91.1307 80.854L99.3609 82.3244L102.129 78.6485Z" fill="#EBEFF1"/>
<path d="M103.595 79.494C103.595 79.494 95.9393 75.3649 87.0126 77.3376Z" fill="#EBEFF1"/>
<path d="M103.595 79.494C103.595 79.494 95.9393 75.3649 87.0126 77.3376" stroke="#A353FF" stroke-width="2.12" stroke-miterlimit="10"/>
<path d="M84.3609 72.9326C86.5482 75.2607 87.257 78.3422 88.4485 80.2843C89.6399 82.2264 94.9617 84.1623 94.0086 90.6564" fill="#EBEFF1"/>
<path d="M84.3609 72.9326C86.5482 75.2607 87.257 78.3422 88.4485 80.2843C89.6399 82.2264 94.9617 84.1623 94.0086 90.6564" stroke="#A353FF" stroke-width="2.12" stroke-miterlimit="10"/>
<path d="M25.2344 105.905V110.794L23.1936 110.831L25.2344 105.905Z" fill="#07C29E"/>
<path d="M81.2325 106.322L79.925 110.641H81.5869L81.2325 106.322Z" fill="#07C29E"/>
</g>
<defs>
<clipPath id="clip0">
<rect width="110" height="110" fill="white"/>
</clipPath>
</defs>
</svg>
