<svg width="110" height="110" viewBox="0 0 110 110" fill="none" xmlns="http://www.w3.org/2000/svg">
<g clip-path="url(#clip0)">
<path d="M88.7599 111.136C88.7599 111.136 86.5175 86.4705 84.3057 78.5429C83.157 74.426 82.3382 68.2689 81.3423 62.5346C81.1664 61.5195 80.7226 60.5701 80.0571 59.7851C79.3915 59 78.5285 58.4079 77.5577 58.0703C76.5868 57.7327 75.5436 57.6619 74.5362 57.8651C73.5288 58.0684 72.5941 58.5384 71.8291 59.2263C69.1957 61.6095 62.4319 70.8175 61.1915 70.8175H48.4644C47.2424 70.8175 40.5214 61.6769 37.9064 59.2937C37.1508 58.6024 36.2241 58.1271 35.2229 57.9176C34.2216 57.708 33.1827 57.7718 32.2144 58.1023C31.2462 58.4328 30.3842 59.0179 29.7185 59.7965C29.0527 60.575 28.6077 61.5185 28.4297 62.5284C27.4399 68.0729 26.4257 72.7963 25.332 78.5429C23.8106 86.5869 21 111.044 21 111.044L88.7599 111.136Z" fill="#F39A21"/>
<path d="M73.5704 87.5488C73.0664 86.5576 72.2989 85.7255 71.3527 85.1443C70.4065 84.5631 69.3185 84.2556 68.2089 84.2556C67.0993 84.2556 66.0113 84.5631 65.0652 85.1443C64.119 85.7255 63.3515 86.5576 62.8474 87.5488L61.2588 86.734C61.9125 85.4494 62.9075 84.371 64.134 83.6178C65.3605 82.8647 66.7707 82.4661 68.2089 82.4661C69.6471 82.4661 71.0574 82.8647 72.2839 83.6178C73.5104 84.371 74.5054 85.4494 75.159 86.734L73.5704 87.5488Z" fill="#A453FF"/>
<path d="M46.8087 87.5489C46.3056 86.5575 45.5387 85.725 44.593 85.1435C43.6473 84.5621 42.5595 84.2543 41.4502 84.2543C40.3408 84.2543 39.2531 84.5621 38.3073 85.1435C37.3616 85.725 36.5948 86.5575 36.0917 87.5489L34.497 86.7341C35.1516 85.4497 36.1473 84.3717 37.3743 83.6188C38.6012 82.8659 40.0117 82.4675 41.4502 82.4675C42.8886 82.4675 44.2992 82.8659 45.5261 83.6188C46.7531 84.3717 47.7488 85.4497 48.4034 86.7341L46.8087 87.5489Z" fill="#A453FF"/>
<path d="M53.2119 91.8188L54.8127 93.1422L56.5113 91.8188" fill="#F39A21"/>
<path d="M54.8127 94.9373C54.3975 94.9387 53.9952 94.7934 53.6762 94.5268L52.0754 93.2035C51.7334 92.8941 51.5234 92.4643 51.4893 92.0036C51.4553 91.5429 51.5996 91.0868 51.8924 90.7301C52.1851 90.3734 52.6038 90.1436 53.0612 90.0885C53.5187 90.0334 53.9797 90.1573 54.3483 90.4344L54.8432 90.8449L55.4115 90.4037C55.5951 90.2434 55.8094 90.1223 56.0414 90.0479C56.2733 89.9734 56.5179 89.9472 56.7603 89.9708C57.0027 89.9944 57.2377 90.0674 57.451 90.1852C57.6643 90.303 57.8514 90.4632 58.0008 90.656C58.1502 90.8488 58.2588 91.0702 58.32 91.3065C58.3811 91.5429 58.3936 91.7892 58.3565 92.0306C58.3195 92.2719 58.2337 92.5031 58.1045 92.7101C57.9753 92.917 57.8053 93.0953 57.605 93.2342L55.9247 94.5575C55.6056 94.803 55.2149 94.9365 54.8127 94.9373V94.9373Z" fill="#A453FF"/>
<path d="M33.6721 68.5446L36.2505 69.6964L36.4888 66.8231" fill="#DF8427"/>
<path d="M36.2505 71.5894C35.9872 71.5888 35.7269 71.5324 35.4868 71.424L32.9084 70.2722C32.6705 70.1791 32.4539 70.0386 32.2718 69.8592C32.0897 69.6798 31.9457 69.4652 31.8486 69.2284C31.7516 68.9916 31.7034 68.7375 31.7071 68.4816C31.7107 68.2256 31.7662 67.973 31.87 67.7391C31.9738 67.5052 32.1239 67.2948 32.3111 67.1207C32.4983 66.9467 32.7188 66.8125 32.9592 66.7263C33.1996 66.6401 33.455 66.6036 33.7099 66.6192C33.9647 66.6348 34.2138 66.7021 34.442 66.8169L34.5947 66.8843V66.6638C34.6033 66.4072 34.6637 66.155 34.7725 65.9226C34.8813 65.6902 35.0361 65.4824 35.2274 65.3118C35.4188 65.1413 35.6428 65.0115 35.8858 64.9305C36.1287 64.8495 36.3856 64.8188 36.6407 64.8405C36.8959 64.8621 37.144 64.9355 37.3699 65.0563C37.5959 65.1771 37.7949 65.3427 37.955 65.5431C38.1152 65.7434 38.233 65.9743 38.3013 66.2218C38.3696 66.4692 38.387 66.728 38.3524 66.9824L38.1141 69.8556C38.0892 70.1562 37.993 70.4464 37.8336 70.7022C37.6742 70.958 37.4561 71.1718 37.1976 71.326C36.9096 71.4937 36.5835 71.5844 36.2505 71.5894Z" fill="#DF8427"/>
<path d="M75.7823 68.5446L73.2039 69.6964L72.9656 66.8231" fill="#DF8427"/>
<path d="M73.2038 71.5894C73.4692 71.5895 73.7316 71.5331 73.9736 71.424L76.5521 70.2722C76.7899 70.1791 77.0065 70.0386 77.1886 69.8592C77.3707 69.6798 77.5147 69.4652 77.6118 69.2284C77.7088 68.9916 77.757 68.7375 77.7533 68.4816C77.7496 68.2256 77.6942 67.973 77.5904 67.7391C77.4866 67.5052 77.3365 67.2948 77.1493 67.1207C76.9621 66.9467 76.7416 66.8125 76.5012 66.7263C76.2608 66.6401 76.0054 66.6036 75.7505 66.6192C75.4957 66.6348 75.2466 66.7021 75.0185 66.8169L74.8657 66.8843V66.6638C74.8572 66.4072 74.7967 66.155 74.6879 65.9226C74.5792 65.6902 74.4244 65.4824 74.233 65.3118C74.0416 65.1413 73.8176 65.0115 73.5746 64.9305C73.3317 64.8495 73.0748 64.8188 72.8197 64.8405C72.5646 64.8621 72.3165 64.9355 72.0905 65.0563C71.8646 65.1771 71.6655 65.3427 71.5054 65.5431C71.3453 65.7434 71.2275 65.9743 71.1592 66.2218C71.0909 66.4692 71.0735 66.728 71.1081 66.9824L71.3464 69.8556C71.3713 70.1562 71.4675 70.4464 71.6269 70.7022C71.7863 70.958 72.0043 71.1718 72.2629 71.326C72.5489 71.493 72.8729 71.5837 73.2038 71.5894Z" fill="#DF8427"/>
<path d="M50.9634 99.1768C50.1917 99.1764 49.4319 98.9856 48.751 98.6213C48.0701 98.257 47.4891 97.7303 47.0591 97.0877L48.5438 96.0891C48.8904 96.6101 49.3951 97.0054 49.9832 97.2165C50.5712 97.4276 51.2114 97.4433 51.8091 97.2612C52.4067 97.079 52.93 96.7089 53.3015 96.2054C53.673 95.7019 53.8729 95.0919 53.8718 94.4656H55.6559C55.6559 95.714 55.1617 96.9114 54.2819 97.7947C53.402 98.6781 52.2085 99.1752 50.9634 99.1768V99.1768Z" fill="#A453FF"/>
<path d="M58.5643 99.1768C57.3192 99.1752 56.1256 98.6781 55.2458 97.7947C54.366 96.9114 53.8718 95.714 53.8718 94.4656H55.6559C55.6548 95.0919 55.8547 95.7019 56.2262 96.2054C56.5977 96.7088 57.121 97.079 57.7186 97.2612C58.3162 97.4433 58.9564 97.4276 59.5445 97.2165C60.1326 97.0054 60.6373 96.6101 60.9839 96.0891L62.4625 97.1061C62.0321 97.7455 61.4514 98.269 60.7715 98.6301C60.0917 98.9912 59.3336 99.179 58.5643 99.1768V99.1768Z" fill="#A453FF"/>
<path d="M71.157 91.0776L65.9696 93.4057L70.1672 94.8883" fill="#F39A21"/>
<path d="M69.8738 95.7337L65.7007 94.2573C65.5306 94.1989 65.382 94.0903 65.2744 93.9457C65.1669 93.8011 65.1055 93.6273 65.0982 93.4471C65.091 93.2669 65.1382 93.0887 65.2337 92.9359C65.3292 92.7831 65.4686 92.6629 65.6335 92.5909L70.8148 90.2628L71.548 91.8986L68.4074 93.3077L70.491 94.0428L69.8738 95.7337Z" fill="#A453FF"/>
<path d="M38.8717 91.0776L44.0591 93.4057L39.8615 94.8883" fill="#F39A21"/>
<path d="M40.1609 95.7337L39.5499 94.0428L41.6334 93.3077L38.4929 91.8986L39.2261 90.2628L44.4134 92.5909C44.5756 92.6657 44.712 92.7872 44.8049 92.94C44.8979 93.0928 44.9434 93.2699 44.9355 93.4488C44.9276 93.6276 44.8668 93.8 44.7607 93.944C44.6547 94.088 44.5083 94.1971 44.3401 94.2573L40.1609 95.7337Z" fill="#A453FF"/>
<path d="M49.051 71.4547H51.8249V77.5015C51.8249 77.6185 51.7786 77.7307 51.6961 77.8134C51.6136 77.8961 51.5017 77.9426 51.385 77.9426H49.4909C49.3742 77.9426 49.2623 77.8961 49.1798 77.8134C49.0973 77.7307 49.051 77.6185 49.051 77.5015V71.4731V71.4547Z" fill="#DF8427"/>
<path d="M53.3769 71.4547H56.1508V77.5015C56.1508 77.6185 56.1045 77.7307 56.022 77.8134C55.9395 77.8961 55.8276 77.9426 55.7109 77.9426H53.8168C53.7001 77.9426 53.5882 77.8961 53.5057 77.8134C53.4232 77.7307 53.3769 77.6185 53.3769 77.5015V71.4731V71.4547Z" fill="#DF8427"/>
<path d="M57.7028 71.4547H60.4767V77.5015C60.4767 77.6185 60.4304 77.7307 60.3479 77.8134C60.2654 77.8961 60.1535 77.9426 60.0368 77.9426H58.1427C58.026 77.9426 57.9141 77.8961 57.8316 77.8134C57.7491 77.7307 57.7028 77.6185 57.7028 77.5015V71.4731V71.4547Z" fill="#DF8427"/>
<path d="M36.6049 54.6499L55.0693 9.99438L73.1732 54.6499H36.6049Z" fill="#F59D20"/>
<path d="M63.5012 30.7997L44.9634 34.4449L40.7659 44.5842L45.0856 43.7326V43.7265L66.9961 39.4134L63.5012 30.7997Z" fill="#A353FF"/>
<path d="M46.8331 52.3402V52.3524L36.7332 54.3374L36.6049 54.6499H73.1732L70.3627 47.7147L46.8331 52.3402Z" fill="#A353FF"/>
<path d="M60.1407 22.4984L55.0694 9.99438L48.996 24.6917L60.1407 22.4984Z" fill="#A353FF"/>
<path d="M54.886 13.9889C57.0862 13.9889 58.8698 12.2005 58.8698 9.99443C58.8698 7.78837 57.0862 6 54.886 6C52.6858 6 50.9023 7.78837 50.9023 9.99443C50.9023 12.2005 52.6858 13.9889 54.886 13.9889Z" fill="#F59D20"/>
</g>
<defs>
<clipPath id="clip0">
<rect width="110" height="110" fill="white"/>
</clipPath>
</defs>
</svg>
