<svg width="110" height="110" viewBox="0 0 110 110" fill="none" xmlns="http://www.w3.org/2000/svg">
<path d="M91.0696 23H17.6456C15.9921 23 14.6517 24.344 14.6517 26.0019V82.5182C14.6517 84.1762 15.9921 85.5202 17.6456 85.5202H91.0696C92.723 85.5202 94.0635 84.1762 94.0635 82.5182V26.0019C94.0635 24.344 92.723 23 91.0696 23Z" fill="#07C29E" stroke="#A353FF" stroke-width="2.16" stroke-linecap="round" stroke-linejoin="round"/>
<path d="M6.01221 80.472H102.709V81.0847C102.709 82.8947 101.992 84.6307 100.716 85.9106C99.4391 87.1905 97.7078 87.9095 95.9026 87.9095H12.8066C11.0013 87.9095 9.27006 87.1905 7.99358 85.9106C6.71711 84.6307 6 82.8947 6 81.0847V80.472H6.01221Z" fill="#F39A20" stroke="#A353FF" stroke-width="2.16" stroke-miterlimit="10"/>
<path d="M89.9331 27.46H18.7943V76.4408H89.9331V27.46Z" fill="#EBEDEF" stroke="#A353FF" stroke-width="2.16" stroke-miterlimit="10"/>
<path d="M24.4278 32.7472H84.3058C84.4679 32.7472 84.6233 32.8117 84.7379 32.9266C84.8525 33.0415 84.9168 33.1974 84.9168 33.3598V71.7786H23.8351V33.3169C23.8456 33.1651 23.9122 33.0227 24.0218 32.9174C24.1313 32.8121 24.276 32.7514 24.4278 32.7472Z" fill="#A353FF"/>
<path d="M31.0327 51.1693L40.882 46.6296V49.2089L34.5032 52.0331C34.3059 52.1169 34.1013 52.1826 33.8922 52.2292L33.3667 52.3395C33.1773 52.3395 32.994 52.3946 32.8168 52.4068V52.6029C32.994 52.6029 33.1773 52.6396 33.3667 52.6703C33.5561 52.7009 33.7028 52.7438 33.8922 52.7928C34.1008 52.8467 34.305 52.9163 34.5032 53.0011L40.882 55.8683V58.4781L31.0327 53.9568V51.1693Z" fill="white"/>
<path d="M56.5602 41.514H59.4197L51.7456 62.2458H48.8616L56.5602 41.514Z" fill="white"/>
<path d="M67.3994 55.8927L73.7782 53.0439C73.9769 52.9606 74.1811 52.891 74.3892 52.8356C74.5848 52.7866 74.762 52.7437 74.9269 52.7131L75.4524 52.6702V52.4926C75.2751 52.4789 75.0993 52.4502 74.9269 52.4068C74.762 52.4068 74.5848 52.3394 74.3892 52.2843C74.1802 52.2317 73.9759 52.162 73.7782 52.076L67.3994 49.2333V46.6479L77.2487 51.1693V53.9261L67.3994 58.4781V55.8927Z" fill="white"/>
</svg>
