<svg xmlns="http://www.w3.org/2000/svg" id="Layer_1" x="0" y="0" version="1.1" viewBox="0 0 110 112"
     xml:space="preserve"><defs/>
  <style>.svg-violet{fill:#a353ff}.svg-teal{fill:#07c29e}.svg-orange{fill:#F59D20}</style>
  <path d="M54.7 56H29v16.2C30.4 83 45.6 84.8 54.6 85c8.9-.2 24.1-2 25.4-12.8V55l-25.3 1z" class="svg-violet"/>
  <path
    d="M54.6 86c-7.5-.1-15.4-1.2-21.7-5.6-7.7-4.2-4.1-17.8-4.9-24.4-1.2-2.2 26.1-.5 26.5-1 .5.6 27.6-1.3 26.5 1-.8 6.6 2.8 20.2-4.8 24.4-6.3 4.3-14.2 5.5-21.6 5.6zM30 57c.6 5.2-2.2 19.1 4 21.8 6 4.1 13.5 5.1 20.6 5.2 7-.1 14.5-1.1 20.4-5.1 6.3-2.7 3.4-17.7 4-22.9-12.2.7-36.8 1.2-49 1z"
    class="svg-teal"/>
  <path d="M106.4 45.2L54.7 24 3 45.2l51.7 21.2 51.7-21.2z" class="svg-violet"/>
  <path
    d="M54.7 67.4c-68.5-30.2-69.2-13.9-.4-44.3.9-.6 51.6 21.2 52.5 21.2.4.2.6.5.6.9 0 1.8-51.7 21.4-52.7 22.2zM5.6 45.2l49.1 20.1 49.1-20.1-49.1-20.1L5.6 45.2z"
    class="svg-teal"/>
  <path d="M92 87h-3V52.6l-31.9-5.5.5-2.9L92 50.1z" class="svg-orange"/>
  <g><path d="M54.3 49.6c-6.1.1-6.1-9.6 0-9.5 6.1 0 6.1 9.6 0 9.5zm0-7.2c-3.2 0-3.2 5 0 5s3.2-5 0-5z" class="svg-orange"/></g>
  <g><path d="M81 88l-2.1-2.1 12.3-12.3 11.7 11.7-2.1 2.1-9.6-9.6z" class="svg-orange"/></g></svg>
