<svg xmlns="http://www.w3.org/2000/svg" width="110" height="110" fill="none">
    <defs/>
    <path fill="#fff" d="M44.731 80.343h-2.706v18.588h2.706V80.343z"/>
    <path fill="#fff" d="M74.762 66.112H56.224v2.714h18.538v-2.714z" class="load"/>
    <path fill="#fff" d="M33.34 75.617L20.232 88.76l1.914 1.92 13.108-13.144-1.914-1.92z"/>
    <path fill="#fff" d="M53.413 75.61l-1.914 1.92L64.61 90.678l1.914-1.92-13.112-13.147z" class="load"/>
    <path fill="#fff" d="M44.731 36h-2.706v18.588h2.706V36z"/>
    <path fill="#fff" d="M30.538 66.112H12v2.714h18.538v-2.714z" class="load"/>
    <path fill="#fff" d="M64.611 44.256L51.503 57.399l1.914 1.92 13.108-13.144-1.914-1.92z"/>
    <path fill="#fff" d="M22.146 44.258l-1.914 1.919L33.34 59.32l1.914-1.92-13.108-13.142z" class="load"/>
</svg>