<svg xmlns="http://www.w3.org/2000/svg" viewBox="0 0 110 110">
  <defs/>
  <style>.svg-violet{fill:#a353ff}.svg-white{fill:#fff}</style>
  <g id="arrow-right">
    <path fill="#07c29e"
          d="M91 24.1H18c-1.1 0-1.9.8-1.9 1.9v53.9h76.8V26c0-1.1-.8-1.9-1.9-1.9zm.1 53H17.9V25.9h73.2v51.2z"/>
    <path
      d="M16.1 79.9V26c0-1.1.8-1.9 1.9-1.9h73c1.1 0 1.9.8 1.9 1.9v53.9h2.2V26c0-2.3-1.8-4.1-4.1-4.1H18c-2.3 0-4.1 1.8-4.1 4.1v53.9h2.2z"
      class="svg-violet"/>
    <path fill="#f39a20" d="M101.9 82.1H7.1c.2 2.6 2.7 4.9 5.6 4.8h83.4c2.9 0 5.5-2.1 5.8-4.8z"/>
    <path
      d="M104.1 79.9H4.9c-.7 4.5 2.8 9.3 7.8 9.2h83.4c5 .1 8.6-4.5 8-9.2zm-91.4 7c-2.9.1-5.4-2.3-5.6-4.8h94.8c-.3 2.8-2.9 4.9-5.8 4.8H12.7z"
      class="svg-violet"/>
    <path fill="#ebedef"
          d="M88.9 28.1H20.1v46.8h68.8V28.1zM85 72H24c.6-.6-1.1-39.1.6-39 .4.2 60-.4 60.2.2.6.3 0 38.4.2 38.8z"/>
    <path d="M17.9 77.1h73.2V25.9H17.9v51.2zm2.2-49h68.8v46.8H20.1V28.1z" class="svg-violet"/>
    <path d="M84.8 33.2c-.2-.6-59.8 0-60.2-.2-1.7-.1 0 38.4-.6 39h61c-.2-.4.4-38.5-.2-38.8z" class="svg-violet"/>
    <path
      d="M48.8 62h2.9l7.8-21h-2.9zM67 49.5c.7.3 6.8 3.3 7.5 3.2.1.1.3.1.5.1v.2c-1.3-.3-6.8 2.7-8 3.1v2.7l10-4.6v-2.8l-10-4.6v2.7zM31 54l10 4.5v-2.7c-.7-.3-6.8-3.2-7.5-3.1-.1-.1-.3-.1-.5-.1v-.2c1.2 0 6.8-2.8 8-3.2v-2.7l-10 4.6V54z"
      class="svg-white"/>
  </g>
</svg>
