<svg xmlns="http://www.w3.org/2000/svg" viewBox="0 0 110 110">
  <defs/>
  <style>.svg-violet{fill:#a353ff}.svg-orange{fill:#f59d20}</style>
  <g id="Layer_1">
    <path
      d="M36.4 53.7c0-.5-.1-1-.2-1.5l-13.7 8.6v6.4l13.9-8.8v-4.7zM31.2 47v-6.9h-3.4V47c-3.3.8-5.5 4-5.2 7.4L33 47.8c-.6-.4-1.2-.7-1.8-.8zM22.5 93.8L36.4 85v-6.4l-13.9 8.8v6.4zM22.5 73.7V81l13.9-8.8v-7.3l-13.9 8.8zM36.4 96.7v-5.2l-8.2 5.2h8.2z"
      class="svg-violet"/>
    <path
      d="M33 47.8l-10.5 6.6v6.5l13.7-8.6c-.4-2-1.6-3.6-3.2-4.5zM36.4 58.5l-13.9 8.8v6.5L36.4 65v-6.5zM22.5 87.4l13.9-8.8v-6.5L22.5 81v6.4zM22.5 96.7h5.7l8.2-5.2V85l-13.9 8.8v2.9z"
      class="svg-orange"/>
    <path
      d="M61.8 53.7c0-.5-.1-1-.2-1.5l-13.7 8.6v6.4l13.9-8.8v-4.7zM56.6 47v-6.9h-3.4V47c-3.3.8-5.5 4-5.3 7.4l10.5-6.6c-.6-.4-1.2-.7-1.8-.8zM47.9 93.8L61.8 85v-6.4l-13.9 8.8v6.4zM47.9 73.7V81l13.9-8.8v-7.3l-13.9 8.8zM61.8 96.7v-5.2l-8.2 5.2h8.2z"
      class="svg-violet"/>
    <path
      d="M58.4 47.8l-10.5 6.6v6.5l13.8-8.6c-.5-2-1.7-3.6-3.3-4.5zM61.8 58.5l-13.9 8.8v6.5L61.8 65v-6.5zM47.9 87.4l13.9-8.8v-6.5L47.9 81v6.4zM47.9 96.7h5.7l8.2-5.2V85l-13.9 8.8v2.9z"
      class="svg-orange"/>
    <path
      d="M87.2 53.7c0-.5-.1-1-.2-1.5l-13.7 8.6v6.4l13.9-8.8v-4.7zM81.9 47v-6.9h-3.4V47c-3.3.8-5.5 4-5.3 7.4l10.5-6.6c-.5-.4-1.1-.7-1.8-.8zM73.3 93.8L87.2 85v-6.4l-13.9 8.8v6.4zM73.3 73.7V81l13.9-8.8v-7.3l-13.9 8.8zM87.2 96.7v-5.2L79 96.7h8.2z"
      class="svg-violet"/>
    <path
      d="M83.8 47.8l-10.5 6.6v6.5L87 52.2c-.4-1.9-1.6-3.5-3.2-4.4zM87.2 58.5l-13.9 8.8v6.5L87.2 65v-6.5zM73.3 87.4l13.9-8.8v-6.5L73.3 81v6.4zM73.3 96.7H79l8.2-5.2V85l-13.9 8.8v2.9z"
      class="svg-orange"/>
  </g>
  <path id="fire-3"
        d="M86.1 26c-2.4-2.3-4.8-5.7-4.2-11.9 0-.4-.2-.8-.6-1C76 16.1 67.7 30 72 38.2 80.4 51.1 97 35 86.1 26z"
        class="svg-orange"/>
  <path id="fire-2"
        d="M60.7 26c-2.4-2.3-4.8-5.7-4.2-11.9 0-.4-.2-.8-.6-1-5.4 3-13.6 16.9-9.3 25.1C55 51.1 71.7 35 60.7 26z"
        class="svg-orange"/>
  <path id="fire-1"
        d="M35.4 26c-2.4-2.3-4.8-5.7-4.2-11.9 0-.4-.2-.8-.6-1-5.4 3-13.6 16.9-9.3 25.1 8.3 12.9 25-3.2 14.1-12.2z"
        class="svg-orange"/>
</svg>
