<svg xmlns="http://www.w3.org/2000/svg" x="0" y="0" version="1.1" viewBox="0 0 110 110"
     xml:space="preserve"><defs/>
  <style>.svg-violet{fill:#a353ff}</style>
  <path fill="#f39a20" d="M54.3 88.8C63.5 77.2 83.9 52.6 94 42L52.3 71.9l2 16.9z"/>
  <path
    d="M54.3 90.3c-2.2 1.1-4-19.4-2.9-19.6l41.7-29.9c1.2-.9 3 .6 2.2 1.9l-9.5 17.9c-1.3 1-29.9 29.6-31.5 29.7zm-.4-17.7l1.5 13L83.2 59l6.4-12-35.7 25.6z"
    class="svg-violet"/>
  <path fill="#ebeff1" d="M38 62.2L94 42 77.4 93.7 59.7 79.4 94 42 52.3 71.9 38 62.2z"/>
  <path
    d="M77.4 95.2c-.7-.5-21.6-15-18.8-16.8l24.5-26.7-30 21.4c-.5.4-1.2.4-1.7 0l-14.3-9.7c-1-.6-.8-2.3.3-2.7 1.9.3 56-22.3 57.7-19.8.3.3.4.7.3 1.1 0 .2-16.6 51.7-16.6 52-.1.8-.7 1.2-1.4 1.2zm-15.5-16l14.8 12L90.5 48 61.9 79.2zM41.3 62.7l11 7.4 32.1-23-43.1 15.6z"
    class="svg-violet"/>
  <g><path d="M54.3 90.3c-1.1 0-1.9-1.3-1.3-2.3.8-1.1 7.7-15.9 8-7.9-.8.7-5.3 10.7-6.7 10.2z" class="svg-violet"/></g></svg>
