<svg width="110" height="110" viewBox="0 0 110 110" fill="none" xmlns="http://www.w3.org/2000/svg">
<g clip-path="url(#clip0)">
<path d="M96.5843 41.8684C94.5195 38.1211 92.8486 34.1687 91.5986 30.0751C88.8307 20.5607 81.4987 13.7604 72.8836 13.7604C71.5758 13.7611 70.2729 13.9215 69.0038 14.2382C64.9834 12.5975 60.658 11.8434 56.3212 12.027C51.9844 12.2106 47.7378 13.3277 43.8697 15.3025C40.0016 17.2772 36.6025 20.0633 33.9031 23.4716C31.2038 26.88 29.2675 30.8308 28.2256 35.0558C27.5232 37.9589 26.5831 40.799 25.415 43.5471C23.779 47.3399 23.1839 51.5022 23.6913 55.6031C24.1986 59.704 25.79 63.5944 28.3005 66.8715C30.8111 70.1486 34.1496 72.6932 37.9705 74.2419C41.7914 75.7907 45.9556 76.2872 50.0322 75.6802C53.0872 75.0675 55.0607 74.3446 56.2094 73.5543C42.3275 71.5939 31.861 62.5941 31.861 47.8662V47.615C31.861 47.3883 31.861 47.1617 31.861 46.935C31.861 46.7083 31.861 46.4326 31.861 46.1876C31.861 45.9425 31.8916 45.771 31.9099 45.5749C31.9099 45.2645 31.9343 44.9521 31.9832 44.6376C31.9832 44.5641 31.9832 44.4905 32.0138 44.417C32.7304 38.18 35.3581 32.3192 39.5349 27.6418C43.7116 22.9645 49.232 19.7007 55.3357 18.3001L55.4762 18.2633L56.631 18.0305L57.0404 17.957L57.9996 17.8161L58.6106 17.7364L59.4233 17.6568C59.6738 17.6568 59.9182 17.6139 60.1687 17.6017L60.9202 17.5649H61.3418H61.7023H62.075H62.5088C62.7654 17.5649 63.0221 17.5649 63.2787 17.5649L64.073 17.6078L64.8306 17.6629L65.6127 17.7487L66.3581 17.8406L67.128 17.9631L67.8673 18.0979L68.6249 18.2572C68.8632 18.3123 69.1076 18.3613 69.3459 18.4226L70.0913 18.6186L70.8001 18.8208L71.5272 19.0536L72.2176 19.2864C72.462 19.3722 72.7003 19.4641 72.9325 19.556L73.6107 19.8256C73.8429 19.9174 74.0751 20.0216 74.3072 20.1257L74.9671 20.4259L75.6453 20.7568L76.2869 21.0876L76.9468 21.4552L77.5578 21.8166L78.1993 22.2149C78.4009 22.3435 78.6026 22.466 78.8103 22.6008C79.018 22.7356 79.2258 22.8826 79.4213 23.0297L80.0018 23.4463C80.2034 23.5933 80.3989 23.7526 80.6128 23.9057C80.8266 24.0589 80.9855 24.1937 81.1688 24.3468L81.7798 24.8308C81.957 24.984 82.1403 25.1372 82.3113 25.2964L82.8674 25.8111L83.3745 26.3012C83.5578 26.4788 83.7289 26.6626 83.9061 26.8464C84.0833 27.0302 84.236 27.1834 84.3949 27.361C84.5537 27.5387 84.7309 27.7348 84.8959 27.9308C85.0608 28.1268 85.2075 28.28 85.3541 28.4638C85.5008 28.6476 85.6718 28.8559 85.8307 29.0764C85.9896 29.297 86.124 29.444 86.2645 29.6339C86.405 29.8239 86.5639 30.0444 86.7167 30.2466C86.8694 30.4488 86.9916 30.6264 87.1199 30.8163C87.2482 31.0063 87.401 31.2452 87.5415 31.4658C87.682 31.6863 87.7981 31.8579 87.9203 32.0784C88.0425 32.299 88.1769 32.5256 88.3114 32.7462L88.6596 33.3588C88.7818 33.5855 88.8979 33.8183 89.014 34.045C89.1301 34.2717 89.234 34.4616 89.3378 34.6576C89.4417 34.8537 89.5578 35.1355 89.6617 35.3744C89.7655 35.6133 89.8572 35.7971 89.9488 35.987C90.0405 36.177 90.1505 36.4772 90.2482 36.7222C90.346 36.9673 90.4193 37.1572 90.4988 37.3716C90.5782 37.5861 90.6759 37.8801 90.7615 38.1374C90.847 38.3947 90.9142 38.5724 90.9814 38.793C91.0486 39.0135 91.1342 39.3137 91.2075 39.5771C91.2808 39.8406 91.3419 40.0182 91.3969 40.2388C91.4519 40.4593 91.5252 40.784 91.5863 41.0597C91.6474 41.3354 91.6963 41.4947 91.7391 41.7214C91.7819 41.9481 91.843 42.285 91.8918 42.573C91.9407 42.8609 91.9774 43.0018 92.0079 43.2224C92.0385 43.4429 92.0874 43.835 92.1301 44.1413C92.1301 44.3435 92.1851 44.5457 92.2034 44.754C92.2401 45.0909 92.2584 45.434 92.2829 45.7832C92.2829 45.9548 92.3134 46.1263 92.3256 46.3039C92.3256 46.8247 92.3623 47.3516 92.3623 47.8784C92.3623 62.5206 82.0181 71.4958 68.2583 73.5298C70.4702 75.4841 74.8083 75.9375 76.1647 75.9436C80.1562 75.9413 84.0793 74.9036 87.5527 72.9315C91.026 70.9594 93.9315 68.12 95.9868 64.689C98.0421 61.2581 99.1772 57.3523 99.2819 53.3514C99.3866 49.3505 98.4573 45.3905 96.5843 41.8562V41.8684Z" fill="#07C29E"/>
<path d="M91.2869 93.9737C91.2877 92.3033 90.9602 90.6491 90.323 89.1056C89.6858 87.5622 88.7515 86.1598 87.5735 84.9786C86.3955 83.7974 84.9969 82.8607 83.4576 82.2218C81.9183 81.5829 80.2685 81.2544 78.6025 81.2553H67.6045C67.6045 82.7176 67.0252 84.1201 65.9939 85.1541C64.9626 86.1881 63.5639 86.769 62.1055 86.769V86.769C60.6471 86.769 59.2484 86.1881 58.2171 85.1541C57.1859 84.1201 56.6065 82.7176 56.6065 81.2553H45.6085C42.2444 81.2553 39.0181 82.5953 36.6393 84.9804C34.2605 87.3656 32.9241 90.6006 32.9241 93.9737V93.9737" fill="#A353FF"/>
<path d="M54.8835 81.2552C54.8835 85.3722 57.8285 88.3803 62.1116 88.3803C63.0613 88.4153 64.0082 88.2561 64.8945 87.9124C65.7809 87.5688 66.5882 87.0478 67.2673 86.3812C67.9464 85.7146 68.4831 84.9163 68.8446 84.0351C69.2062 83.1538 69.385 82.208 69.3703 81.2552H67.6534V81.6964C67.4973 83.049 66.8509 84.2969 65.8369 85.2028C64.823 86.1086 63.5124 86.6092 62.1544 86.6092C60.7964 86.6092 59.4857 86.1086 58.4718 85.2028C57.4579 84.2969 56.8114 83.049 56.6554 81.6964V81.2552H54.8835Z" fill="#E28625"/>
<path d="M94.4947 110.901L32.918 110.478V92.8281H91.2869L94.4947 110.901Z" fill="#A353FF"/>
<path d="M92.3806 47.9214C92.3806 64.6771 78.8347 74.0199 62.1238 74.0199C45.413 74.0199 31.8427 64.6465 31.8427 47.9214C31.8427 39.872 35.0317 32.1522 40.7082 26.4605C46.3848 20.7687 54.0838 17.571 62.1116 17.571C70.1394 17.571 77.8385 20.7687 83.515 26.4605C89.1915 32.1522 92.3806 39.872 92.3806 47.9214V47.9214Z" fill="#EBEFF1" stroke="#A353FF" stroke-width="2.44" stroke-miterlimit="10"/>
<path d="M74.1116 57.3071C75.4749 57.3071 76.5801 56.0728 76.5801 54.5502C76.5801 53.0276 75.4749 51.7933 74.1116 51.7933C72.7484 51.7933 71.6432 53.0276 71.6432 54.5502C71.6432 56.0728 72.7484 57.3071 74.1116 57.3071Z" fill="#07C29E"/>
<path d="M50.0932 57.3071C51.4565 57.3071 52.5617 56.0728 52.5617 54.5502C52.5617 53.0276 51.4565 51.7933 50.0932 51.7933C48.7299 51.7933 47.6248 53.0276 47.6248 54.5502C47.6248 56.0728 48.7299 57.3071 50.0932 57.3071Z" fill="#07C29E"/>
<path d="M64.0729 16.064C64.8006 24.2094 68.0623 31.9196 73.3972 38.1055C78.7322 44.2914 85.8706 48.6401 93.8042 50.5374C93.8775 49.6674 93.9203 48.7914 93.9203 47.903C93.9202 39.7841 90.8328 31.9706 85.287 26.0548C79.7413 20.139 72.1546 16.566 64.0729 16.064V16.064Z" fill="#07C29E"/>
<path d="M77 17.597C72.3228 15.3183 67.1907 14.0898 61.9733 14C43.1835 14 28 29.244 28 47.7504C28 48.5998 28.0392 49.4427 28.1045 50.2793C30.6759 50.7613 33.2878 51.0026 35.9053 51C56.2305 51 73.4197 36.6311 77 17.597Z" fill="#07C29E"/>
<path d="M62.1055 73.9894C60.2667 73.9871 58.4299 73.8663 56.6065 73.6279V81.2369C56.6065 82.6993 57.1859 84.1017 58.2172 85.1357C59.2484 86.1698 60.6471 86.7507 62.1055 86.7507V86.7507C63.564 86.7507 64.9627 86.1698 65.9939 85.1357C67.0252 84.1017 67.6046 82.6993 67.6046 81.2369V73.6524C65.7806 73.8827 63.9439 73.9953 62.1055 73.9894V73.9894Z" fill="#EBEFF1" stroke="#A353FF" stroke-width="2.44" stroke-miterlimit="10"/>
<path d="M50.0933 55.9899C50.8019 55.9899 51.3764 55.3453 51.3764 54.5502C51.3764 53.7551 50.8019 53.1105 50.0933 53.1105C49.3846 53.1105 48.8102 53.7551 48.8102 54.5502C48.8102 55.3453 49.3846 55.9899 50.0933 55.9899Z" fill="#A353FF"/>
<path d="M74.1117 55.9899C74.8203 55.9899 75.3948 55.3453 75.3948 54.5502C75.3948 53.7551 74.8203 53.1105 74.1117 53.1105C73.403 53.1105 72.8286 53.7551 72.8286 54.5502C72.8286 55.3453 73.403 55.9899 74.1117 55.9899Z" fill="#A353FF"/>
<path d="M65.4599 62.8882C65.0707 63.4369 64.5562 63.8844 63.9594 64.1931C63.3626 64.5019 62.7007 64.663 62.0292 64.663C61.3576 64.663 60.6957 64.5019 60.0989 64.1931C59.5021 63.8844 58.9876 63.4369 58.5984 62.8882" stroke="#A353FF" stroke-width="2.44" stroke-miterlimit="10"/>
<path d="M53.9774 48.3444L44.619 49.4368L44.6063 49.3272C44.5699 49.0141 44.6591 48.6994 44.8542 48.4522C45.0493 48.205 45.3343 48.0457 45.6466 48.0092L53.8276 47.0543C53.9886 47.0355 54.1504 47.0816 54.2775 47.1824C54.4045 47.2833 54.4864 47.4306 54.5052 47.592L54.5179 47.7015C54.5266 47.8576 54.4755 48.0111 54.375 48.1306C54.2745 48.2501 54.1323 48.3266 53.9774 48.3444V48.3444Z" fill="#A353FF"/>
<path d="M70.237 47.4572L78.4718 47.6129C78.7861 47.6188 79.0852 47.7497 79.3033 47.9768C79.5214 48.2038 79.6406 48.5084 79.6346 48.8236L79.6326 48.9338L70.2126 48.7558C70.0506 48.7527 69.8964 48.6852 69.784 48.5682C69.6716 48.4512 69.6101 48.2942 69.6132 48.1317L69.6153 48.0215C69.6276 47.8656 69.6988 47.7204 69.8144 47.6155C69.9299 47.5106 70.0811 47.454 70.237 47.4572V47.4572Z" fill="#A353FF"/>
<path d="M48.2541 63.6664C53.4811 63.6664 57.7185 59.4176 57.7185 54.1765C57.7185 48.9354 53.4811 44.6866 48.2541 44.6866C43.0271 44.6866 38.7897 48.9354 38.7897 54.1765C38.7897 59.4176 43.0271 63.6664 48.2541 63.6664Z" stroke="#F59B1C" stroke-width="2.44" stroke-miterlimit="10"/>
<path d="M75.9508 63.6664C81.1778 63.6664 85.4152 59.4176 85.4152 54.1765C85.4152 48.9354 81.1778 44.6866 75.9508 44.6866C70.7237 44.6866 66.4864 48.9354 66.4864 54.1765C66.4864 59.4176 70.7237 63.6664 75.9508 63.6664Z" stroke="#F59B1C" stroke-width="2.44" stroke-miterlimit="10"/>
<path d="M57.7185 54.1765H66.3214" stroke="#F59B1C" stroke-width="2.44" stroke-miterlimit="10"/>
<path d="M61.4029 55.5978C61.9117 55.5978 62.3997 55.8004 62.7595 56.1612C63.1193 56.522 63.3214 57.0113 63.3214 57.5215C63.3214 58.0317 63.1193 58.521 62.7595 58.8817C62.3997 59.2425 61.9117 59.4452 61.4029 59.4452" stroke="#A353FF" stroke-width="2.44" stroke-miterlimit="10"/>
<path d="M76.271 53.9126C77.0323 53.4552 77.5032 52.8398 77.3228 52.5379C77.1424 52.2361 76.3791 52.3621 75.6178 52.8195C74.8565 53.2769 74.3856 53.8924 74.566 54.1943C74.7463 54.4961 75.5097 54.37 76.271 53.9126Z" fill="#EBEFF1"/>
<path d="M52.2308 53.9129C52.992 53.4555 53.463 52.84 53.2826 52.5382C53.1022 52.2363 52.3388 52.3624 51.5775 52.8198C50.8162 53.2772 50.3453 53.8926 50.5257 54.1945C50.7061 54.4963 51.4695 54.3703 52.2308 53.9129Z" fill="#EBEFF1"/>
<path d="M38.3743 47.4619C46.5077 47.4746 54.3908 44.6425 60.6655 39.4536C66.9402 34.2646 71.2135 27.0439 72.7492 19.0353" stroke="#A353FF" stroke-width="2.44" stroke-miterlimit="10"/>
<path d="M38.3743 44.7479C45.7331 44.7583 52.865 42.1938 58.5401 37.4966C64.2152 32.7993 68.0779 26.2638 69.462 19.0168" stroke="#A353FF" stroke-width="2.44" stroke-miterlimit="10"/>
<path d="M69.4619 29.1807C71.8747 34.0655 75.3296 38.3583 79.5817 41.7548C83.8339 45.1513 88.7791 47.5682 94.0669 48.8343" stroke="#A353FF" stroke-width="2.44" stroke-miterlimit="10"/>
<path d="M27.6146 70.3809C31.1767 75.2452 36.2908 78.3085 45.3336 78.7128" stroke="#07C29E" stroke-width="2.44" stroke-miterlimit="10"/>
<path d="M94.4946 71.6245C96.9222 69.2969 98.8531 66.4991 100.17 63.4009C101.487 60.3026 102.163 56.9685 102.157 53.6006" stroke="#07C29E" stroke-width="2.44" stroke-miterlimit="10"/>
<path d="M77.2766 78.5535C80.4346 78.5593 83.5643 77.9583 86.4966 76.783" stroke="#07C29E" stroke-width="2.44" stroke-miterlimit="10"/>
<path d="M22.6157 87.3186C27.5032 86.5761 31.3241 85.0401 31.15 83.8878C30.9759 82.7355 26.8727 82.4033 21.9852 83.1458C17.0977 83.8883 13.2768 85.4244 13.4509 86.5767C13.625 87.7289 17.7283 88.0611 22.6157 87.3186Z" fill="#E08525" stroke="#A353FF" stroke-width="2.44317" stroke-miterlimit="10"/>
<path d="M26.1665 76.2745C26.1665 76.2745 25.8976 71.502 25.3233 70.0439C24.7489 68.5858 22.366 58.0483 22.0544 56.5351C21.5167 53.9559 19.5677 53.1104 19.7021 56.2656C19.7998 58.5385 21.4312 66.3006 21.4312 66.3006C21.4312 66.3006 21.0035 67.3973 20.6552 66.2271C20.2214 64.7874 19.1949 59.4881 18.8711 57.7604C18.5473 56.0327 17.9729 51.4134 16.5432 51.634C14.5147 51.9464 15.9628 56.7557 16.5065 59.8005C17.0809 63.0414 17.2397 65.0999 17.307 65.786C17.3619 66.3987 16.7448 66.9745 16.4393 65.9576C16.1338 64.9406 14.7957 54.3174 13.6287 54.0172C12.0462 53.5761 12.2418 55.6897 12.6084 58.079C12.9811 60.5602 13.1094 62.5084 13.2988 65.1734C13.5126 68.1202 13.1338 67.624 12.6267 65.7493C12.1196 63.8746 11.1175 58.7284 9.4006 59.439C8.14194 59.9598 10.1949 64.7016 10.8242 70.099C11.3315 73.7525 12.2943 77.3276 13.6898 80.7406" fill="#EBEFF1"/>
<path d="M13.5615 80.4894C15.2601 84.0366 17.6735 99.3405 19.2071 110.031H33.5229C32.9128 109.164 32.496 108.176 32.3009 107.133C31.421 102.404 28.1766 95.8607 26.6797 87.2959C25.8732 82.695 26.5086 74.5468 26.1725 72.4516C25.8976 70.7607 26.6369 67.0481 26.8996 65.639C27.1624 64.2299 28.5799 63.2436 28.3355 62.5758C28.0911 61.908 26.6369 62.7412 25.4332 64.0278C23.8874 65.6758 23.4414 67.8935 22.6043 69.2842C21.7672 70.6749 17.2703 71.263 17.9485 75.8579" fill="#EBEFF1"/>
<path d="M12.199 67.379C12.199 67.379 16.0178 65.2592 22.4027 66.2823L21.3701 68.69L14.1725 69.9766L12.199 67.379Z" fill="#EBEFF1"/>
<path d="M12.8405 67.483C12.8405 67.483 17.2458 65.5716 23.5575 66.9684Z" fill="#EBEFF1"/>
<path d="M12.8405 67.483C12.8405 67.483 17.2458 65.5716 23.5575 66.9684" stroke="#A353FF" stroke-width="2.44" stroke-miterlimit="10"/>
<path d="M25.9037 63.0229C25.6648 63.2034 25.4456 63.4087 25.25 63.6356C23.7041 65.2836 23.2581 67.5014 22.421 68.8921C21.5839 70.2828 17.087 70.8709 17.7652 75.4658" fill="#EBEFF1"/>
<path d="M25.9037 63.0229C25.6648 63.2034 25.4456 63.4087 25.25 63.6356C23.7041 65.2836 23.2581 67.5014 22.421 68.8921C21.5839 70.2828 17.087 70.8709 17.7652 75.4658" stroke="#A353FF" stroke-width="2.44" stroke-miterlimit="10"/>
<path d="M14.8874 111.771H41.0871L35.5575 95.095C35.331 93.9099 34.6446 92.8635 33.6489 92.1857C32.6533 91.5079 31.43 91.2542 30.2479 91.4804L14.7407 94.4517C13.5588 94.6788 12.5152 95.3671 11.8392 96.3654C11.1632 97.3637 10.9102 98.5903 11.1358 99.7756L14.8874 111.771Z" fill="#A353FF" stroke="#F49A1F" stroke-width="2.44" stroke-miterlimit="10"/>
<path d="M31.9343 91.7683C33.2113 93.643 29.6125 96.308 22.6349 97.3372C15.6573 98.3665 13.3599 97.3372 12.5228 96.0017L13.366 95.1869L31.1461 91.6948L31.9343 91.7683Z" fill="#E08525"/>
<path d="M21.1868 87.4675C16.2988 88.1905 12.2051 87.8413 12.0218 86.6895L13.2438 94.9234C13.4149 96.0752 17.5208 96.4244 22.4088 95.7015C27.2968 94.9786 31.1156 93.4592 30.9628 92.3074L29.7408 84.0735C29.8936 85.2253 26.0687 86.7446 21.1868 87.4675Z" fill="#A353FF" stroke="#F49A1F" stroke-width="2.44" stroke-miterlimit="10"/>
</g>
<defs>
<clipPath id="clip0">
<rect width="110" height="110" fill="white"/>
</clipPath>
</defs>
</svg>
