<svg width="110" height="110" viewBox="0 0 110 110" fill="none" xmlns="http://www.w3.org/2000/svg">
<path d="M41.3768 54.8578L36 71.5339L52.6313 66.1365L41.3768 54.8578Z" fill="#EBEFF1" stroke="#A353FF" stroke-width="2.4" stroke-linecap="round" stroke-linejoin="round"/>
<path d="M45.0182 58.5091L41.9327 57.9515L41.3767 54.8577L78.88 17.2537L82.5215 20.905L45.0182 58.5091Z" fill="#07C29E" stroke="#A353FF" stroke-width="2.4" stroke-linecap="round" stroke-linejoin="round"/>
<path d="M48.8248 62.3196L45.7393 61.7683L45.1833 58.6744L82.6865 21.0704L86.328 24.7218L48.8248 62.3196Z" fill="#07C29E" stroke="#A353FF" stroke-width="2.4" stroke-linecap="round" stroke-linejoin="round"/>
<path d="M52.6314 66.1365L49.5397 65.5851L48.9898 62.4913L86.493 24.8873L90.1346 28.5387L52.6314 66.1365Z" fill="#07C29E" stroke="#A353FF" stroke-width="2.4" stroke-linecap="round" stroke-linejoin="round"/>
<path d="M92.7015 27.4874L79.9304 14.682L78.1245 16.4928L90.8956 29.2982L92.7015 27.4874Z" fill="#A353FF" stroke="#A353FF" stroke-width="2.4" stroke-linecap="round" stroke-linejoin="round"/>
<path d="M90.8543 14.7133L92.6645 16.5284C93.9169 17.7842 94.6206 19.4874 94.6206 21.2633C94.6206 23.0393 93.9169 24.7425 92.6645 25.9983L92.051 26.6134L80.8179 15.3501L81.4314 14.7349C82.6801 13.4829 84.3725 12.7777 86.1384 12.7736C87.9043 12.7696 89.5999 13.467 90.8543 14.7133Z" fill="#F39A20" stroke="#A353FF" stroke-width="2.4" stroke-linecap="round" stroke-linejoin="round"/>
<path d="M36 71.5338L41.6884 69.6959C41.4028 68.79 40.904 67.9664 40.234 67.2946C39.564 66.6228 38.7426 66.1226 37.8391 65.8363L36 71.5338Z" fill="#A353FF" stroke="#A353FF" stroke-width="2.4" stroke-linecap="round" stroke-linejoin="round"/>
</svg>
