<svg xmlns="http://www.w3.org/2000/svg" viewBox="0 0 110 110">
  <defs/>
  <style>.svg-teal{fill:#07c29e}.svg-orange{fill:#f59b1c}.svg-light-gray{fill:#ebeff1}.svg-violet{fill:#a353ff}.svg-teal-dark{fill:#2ab497}</style>
  <g id="boy">
    <path
      d="M81.5 110.3c2.1-6.9 2.5-13.6 1.9-19.8l-.2-.1c-.2-.1-.2-1-.1-2.4-.4-2.7-.9-5.2-1.6-7.6-5.3-1.1-11.4-.8-16.7-.6v.2h3c.4 21.9-34.8 22.5-34.3 0h3v-.2c-12.6-.3-29.9-1.5-30.4 15.6L3 111h76.9l1.3-4.3.3 3.6z"
      class="svg-teal"/>
    <path fill="#279d80"
          d="M57.9 91.3c-2.2 1.4-4.7 2.2-7.3 2.2-2.5 0-5.1-.7-7.3-2.1-3.7-2.4-6-6.3-6.9-11.3h-3c-.5 22.5 34.7 21.9 34.3 0h-3c-.8 4.8-3.1 8.8-6.8 11.2z"/>
    <path
      d="M24.9 33c-.8-1-1.5-2-2-3.1-.8 2.1-1.3 4.5-1.6 7 .8-.5 1.8-.8 2.9-.9.1-1.1.4-2.1.7-3zM77.2 36c.9.2 1.8.5 2.6 1.1-.4-3.5-1.2-6.6-2.5-9.4-.8.4-1.7.8-2.7 1.1 1.2 2.3 2.1 4.7 2.6 7.2z"
      class="svg-orange"/>
    <path
      d="M75.5 45.5v-1.3-.1-.1c0-2.5 0-5.2-.3-6.9l-.2-1.2c-.5-2.3-1.4-4.5-2.5-6.5-10.2 2.3-24.7-.3-31.8.6-2.2 0-4.1-1.9-3.8-4-2.7 3-6.1 5-9.7 6.4-.9 2.6-1.5 5.4-1.8 8.4v9h-.1c.9 7.3 4.2 13.4 9.9 17.6 7.4 5.6 17.6 6.8 25.8 3.1 8.3-3.7 13.4-11.7 14.3-22.4.2-.7.2-1.6.2-2.6zM50.6 61.6c-3 0-5.6-1.7-6.7-4.3l1.9-.9c1 2.2 3.1 3 4.8 3s3.8-.8 4.8-3l1.9.9c-1.1 2.7-3.7 4.3-6.7 4.3zm-1.2-8.5c.4.6 1 .9 1.8.9l.1 2.1H51c-1.5 0-2.7-.7-3.4-1.9-.8-1.4-.8-3.3 0-4.7.8-1.3 2.1-2 3.7-1.9l-.1 2.1c-.8 0-1.4.2-1.8.9-.4.7-.4 1.8 0 2.5z"
      class="svg-light-gray"/>
    <path
      d="M36.8 69.1l1.3.8c3.8 2.2 8.1 3.3 12.5 3.3s8.7-1.2 12.5-3.3l1.3-.8.2 1.5c0 .1 0 .3.1.4 7.1-4.3 11.5-11.7 12.7-21.4-.3.1-.5.1-.8.1l-1.1.1v-1.1-.6c-1 10.8-6.1 18.7-14.3 22.4-8.3 3.7-18.4 2.5-25.8-3.1-5.7-4.2-9-10.3-9.9-17.6l-1-.1c-.4 0-.8-.1-1.2-.2.9 8 4.6 14.9 10.8 19.5.8.6 1.6 1.1 2.5 1.6v-.2l.2-1.3zM76.3 35.9c.3 0 .6.1.9.1-.6-2.6-1.4-5-2.6-7.2-.7.2-1.3.4-2.1.6 1.1 2 1.9 4.2 2.5 6.5h1.3zM25.1 33.2c-.1 0-.1-.1-.2-.2-.3 1-.6 2-.8 3H26l-.2 1.3c-.2.9-.2 2.2-.3 3.7.3-3 .9-5.9 1.8-8.4-.7.1-1.4.4-2.2.6z"
      class="svg-violet"/>
    <path
      d="M50.6 75.3c-4.3 0-8.5-1-12.2-2.9-.9 7.8 1.3 14 6.1 17 3.7 2.4 8.5 2.4 12.2 0 4.8-3.1 6.9-9.3 6.1-17-3.8 2-7.9 2.9-12.2 2.9z"
      class="svg-light-gray"/>
    <path
      d="M43.3 91.3c2.2 1.4 4.7 2.1 7.3 2.1 2.5 0 5.1-.7 7.3-2.2 3.7-2.4 6-6.3 6.9-11.3v-.2c.4-2.7.4-5.6 0-8.8 0-.1 0-.3-.1-.4l-.2-1.5-1.3.8c-3.8 2.2-8.1 3.3-12.5 3.3s-8.7-1.2-12.5-3.3l-1.3-.8-.2 1.5v.2c-.5 3.3-.5 6.3-.1 9v.2c.7 5.1 3 9 6.7 11.4zm13.4-1.8c-3.7 2.4-8.5 2.4-12.2 0-4.8-3.1-6.9-9.3-6.1-17 3.8 1.9 7.9 2.9 12.2 2.9 4.2 0 8.4-1 12.2-2.9.9 7.7-1.3 13.9-6.1 17z"
      class="svg-violet"/>
    <path
      d="M25.1 33.2c.7-.2 1.5-.5 2.2-.8 3.6-1.4 7-3.4 9.7-6.4-.3 2.2 1.6 4.1 3.8 4 7-.9 21.6 1.7 31.8-.6.7-.2 1.4-.3 2.1-.6 1-.3 1.9-.7 2.7-1.1 3.8-2 6.3-5.3 6.2-10.8H72.8c3.1-2.3 5.1-6.1 5-10H43.7c-3.8-.1-7.1 3.3-7.7 7.1V8.3c-10.5-.4-17.6 12.3-13.1 21.6.5 1.1 1.2 2.1 2 3.1.1.1.1.2.2.2zm40.3-3.9c-1.5 0-2.9 0-4.3-.1-2 0-3.7-.1-4.9 0l-.2-2.1c1.3-.1 3 0 5.1 0 4.6.1 11 .3 13.3-1.2l1.1 1.8c-2.1 1.4-6.1 1.6-10.1 1.6zM79 17.9V20H66v-2.1h13zm-40.3-7.1c1.1-1.3 2.6-1.9 4.3-1.9h27V11h-4v2H43c-1 0-1.9.4-2.7 1.1-.7.7-1.1 1.7-1.1 2.7l-2.1.2c-.3-2.3.3-4.6 1.6-6.2z"
      class="svg-orange"/>
    <path
      d="M79 40.8c.6.1 1 .6.9 1.2-.1.5-.5.9-.9.9v.1c.1.6-.3 1.1-.9 1.2-.2 0-.3.1-.5.3v2.9c1.8-.7 3.2-2.5 3.1-4.5 0-2.1-1.4-3.9-3.3-4.6.1.8.1 1.7.1 2.7.8-.2 1.4-.2 1.5-.2z"
      class="svg-light-gray"/>
    <path
      d="M76.3 35.9H75l.2 1.3c.3 1.6.3 4.3.3 6.9.1-1.4.7-2.1 1.2-2.5.3-.2.6-.4.9-.5 0-1-.1-1.9-.1-2.7 1.9.7 3.3 2.5 3.3 4.6 0 2-1.3 3.8-3.1 4.5v-1.9-1l-.1.1c-.2.4-.6.6-1 .6h-.3c-.5-.1-.8-.5-.8-1V50l1.1-.1c.3 0 .5-.1.8-.1 3.1-.7 5.5-3.6 5.4-6.8 0-2.3-1.2-4.5-3.1-5.8-.8-.5-1.6-.9-2.6-1.1-.2-.1-.5-.2-.8-.2z"
      class="svg-violet"/>
    <path
      d="M22.8 44.2c-.6-.1-1-.6-.9-1.2v-.1c-.5-.1-.8-.5-.9-.9-.1-.6.3-1.1.9-1.2.1 0 .7-.1 1.5.2 0-1 .1-2 .1-2.8-2.2.6-3.2 2.6-3.3 4.6 0 2 .9 4.1 3.1 4.7v-2.2-.6-.1c0-.2-.3-.3-.5-.4z"
      class="svg-light-gray"/>
    <path
      d="M24.4 49.8l1 .1h.1v-1.1-.6-2.9-4.4c0-1.5.1-2.8.3-3.7l.2-1.3h-1.9c-1.1.1-2.1.4-2.9.9-2.1 1.3-3.1 3.6-3.1 5.8-.1 2.9 1.5 6.2 5.1 6.9.4.2.8.3 1.2.3zm-.1-4.5c-.4 0-.8-.2-.9-.6V47.5c-2.2-.6-3.2-2.7-3.1-4.7 0-2 1.1-4 3.3-4.6-.1.8-.2 1.8-.2 2.8.3.1.6.3.8.5.7.6 1.1 1.5 1.1 2.6 0 .5-.3 1-.8 1.1 0 .1-.1.1-.2.1zM44.6 38.5c.1-1.1-1.1-1.4-2.6-1.5 1 .4 1.9.9 2.6 1.5 0 .1 0 .1 0 0zM38.5 38.5h-.1c-2 0-3.4.7-4.4 1.5h9c-1-.9-2.4-1.5-4.5-1.5zM56.4 38.4v.2c.8-.8 1.8-1.4 2.9-1.7-1.7 0-3 .4-2.9 1.5zM66.8 39.8c-1-.8-2.4-1.4-4.3-1.3h-.1c-1.9 0-3.2.6-4.2 1.3 2.3.5 6.3.1 8.6 0zM66.4 37.1c.2.1.3.1.5.2-.2 0-.3-.1-.5-.2z"
      class="svg-violet"/>
    <path
      d="M47 44.9h.5c-.1-1.5-.5-3.1-1.3-4.4-.4-.8-1-1.4-1.6-2-.7-.6-1.6-1.1-2.6-1.5-1.1-.4-2.3-.6-3.5-.6-3.4 0-6.1 1.4-7.7 4.2-1.8 3.1-1.8 7.2 0 10.2 1.6 2.7 4.3 4.2 7.6 4.2h.1c3.4 0 6.1-1.4 7.7-4.2.7-1.1 1.1-2.4 1.2-3.7H47v-2.2zm-2.6 4.8c-.9 1.5-2.6 3.2-5.9 3.1-3.3.1-5-1.7-5.9-3.1-1.4-2.4-1.4-5.7 0-8.1.3-.5.8-1.1 1.3-1.6 1-.8 2.4-1.5 4.4-1.5h.1c2.1 0 3.5.6 4.5 1.5.6.5 1 1.1 1.3 1.6 1.6 2.4 1.6 5.7.2 8.1zM66.9 37.4c-.2-.1-.3-.1-.5-.2-1.2-.5-2.5-.8-3.9-.8-1.2 0-2.2.2-3.2.5-1.1.4-2.1.9-2.9 1.7-.6.6-1.1 1.2-1.6 2-.8 1.3-1.2 2.8-1.3 4.4h.5v2.1h-.4c.2 1.3.6 2.6 1.2 3.7 1.6 2.7 4.3 4.2 7.6 4.2h.1c3.4 0 6.1-1.4 7.7-4.2 1.8-3.1 1.8-7.2 0-10.2-.8-1.5-2-2.5-3.3-3.2zm1.5 12.3c-.9 1.5-2.5 3.2-5.9 3.1-3.3.1-5-1.7-5.9-3.1-1.4-2.4-1.4-5.7 0-8.1.4-.6.9-1.2 1.6-1.8 1-.8 2.3-1.3 4.2-1.3h.1c1.9 0 3.3.6 4.3 1.3.7.6 1.2 1.2 1.6 1.8 1.4 2.4 1.4 5.7 0 8.1z"
      class="svg-teal-dark"/>
    <path d="M54 44.9h-7v2.2H54z" class="svg-teal-dark"/>
    <path
      d="M50.6 59.5c-1.7 0-3.8-.8-4.8-3l-1.9.9c1.2 2.7 3.7 4.3 6.7 4.3s5.6-1.7 6.7-4.3l-1.9-.9c-1 2.2-3.1 3-4.8 3zM51.2 49.7l.1-2.1c-1.6-.1-2.9.6-3.7 1.9-.8 1.4-.8 3.3 0 4.7.7 1.2 2 1.9 3.4 1.9h.3l-.1-2.1c-.8 0-1.4-.2-1.8-.9-.4-.7-.4-1.8 0-2.5s1-.9 1.8-.9zM37.1 17l2.1-.2c0-1 .4-1.9 1.1-2.7.7-.7 1.7-1.2 2.7-1.1h23v-2h4V8.9H43c-1.7 0-3.2.6-4.3 1.9-1.3 1.6-1.9 3.9-1.6 6.2zM66 17.9h13V20H66z"
      class="svg-violet"/>
    <path fill="#f59d20" d="M82.1 25.7l1.8 1.2c2.5-3.6 3.5-8.3 3.2-14L85 13c.2 5.2-.7 9.5-2.9 12.7z"/>
    <path
      d="M61.1 27.1c-2.1-.1-3.8-.1-5.1 0l.1 2.1c1.2-.1 2.9 0 4.9 0 1.4 0 2.9.1 4.3.1 4 0 8-.3 10.2-1.6L74.4 26c-2.4 1.4-8.7 1.3-13.3 1.1zM75.5 44.2c0 .5.3.9.8 1h.3c.4 0 .8-.2 1-.6 0-.1.1-.1.1-.1.1-.1.3-.3.5-.3.6-.1 1-.6.9-1.2v-.1c.5-.1.9-.4.9-.9.1-.6-.3-1.1-.9-1.2-.1 0-.7-.1-1.4.2-.3.1-.6.3-.9.5-.5.4-1.1 1.1-1.2 2.5-.1.1-.1.1-.1.2 0-.1 0 0 0 0zM25.4 44.2c-.1-1.1-.4-2-1.1-2.6-.3-.2-.6-.4-.8-.5-.7-.3-1.4-.2-1.5-.2-.6.1-1 .6-.9 1.2 0 .5.4.9.9.9v.1c-.1.6.3 1.1.9 1.2.2 0 .5.2.5.4v.1c.2.4.5.6.9.6h.2c.6-.3.9-.7.9-1.2z"
      class="svg-violet"/>
    <path
      d="M95.7 76c.1-1.1.2-3.2.7-8 .5-4.3 2.2-10.2-.5-10.9-3.9-.5-4.1 13.6-5.3 18.7 1.8-.1 3.5 0 5.1.2zM90 75.8c.4-3 1.4-10.4 1.5-12.9-1.2-7.5-3.9.5-5.9 9.8.9 1.1 1.5 2.3 2.1 3.4.7-.1 1.5-.2 2.3-.3zM100.9 75.6c-.6-3.6 3.7-16.1-.8-15.8-2.3.6-3.4 13.2-3.9 16.3 1.8.3 3.3.7 4.6 1.1.1-.4.1-.9.1-1.6z"
      class="svg-light-gray"/>
    <path
      d="M106.1 67.4c-2-1.7-4 7-4.9 9.9 1.7.6 2.7 1.1 2.8 1.2l-1 1.9s-.7-.3-1.7-.8l-2 2.7-8.2-1.5-2.5-2.7h-.1c.3.6.5 1.1.8 1.6.2.4.8.8 1.4 1.4 2 1.7 5.1 4.4 4.3 9.7l-1-.1v.4l6.6 7.1.6.3s2.3-4.1 2.9-15.9c.3-5.9 3.8-14.4 2-15.2zM83.2 90.4l.2.1-.3-2.4c-.1 1.3-.1 2.2.1 2.3z"
      class="svg-light-gray"/>
    <path
      d="M94 91.1v-.4l-1-.2c.1-.6.1-1.1.1-1.6L90 83.2c-.2-.2-.4-.3-.6-.5-.8-.6-1.4-1.2-1.8-1.9-.5-.7-.8-1.6-1.2-2.5-.7-1.6-1.4-3.3-2.7-4.7l.2-.2c-1.4-1.2-2.9-1.9-4.5-1.2-2.1 1.4.5 4.1 1.6 6 .2.7.4 1.4.6 2.2.7 2.4 1.2 4.9 1.6 7.6l.3 2.4c.6 6.2.2 13-1.9 19.8l.1.7h16.5s1.8-8.9 3.2-12.2l-.6-.6-6.8-7zM91.3 77.9c-.9 0-1.7.1-2.6.2l2.5 2.7 8.2 1.5 2-2.7c-.6-.2-1.4-.5-2.3-.8l-7.8-.9z"
      class="svg-light-gray"/>
    <path d="M91.3 77.9l7.8 1c-2.1-.6-4.8-1.1-7.8-1z" class="svg-light-gray"/>
    <path
      d="M88.3 77.5c.1.2.2.4.3.7h.1c.9-.1 1.8-.2 2.6-.2 3-.1 5.8.4 7.8 1 .9.3 1.6.5 2.3.8 1.1.4 1.7.7 1.7.8l1-1.9c-.1-.1-1.2-.6-2.8-1.2-.1 0-.3-.1-.4-.1-1.3-.4-2.8-.8-4.6-1.1-.2 0-.4-.1-.6-.1-1.6-.2-3.3-.3-5.1-.2H90c-.8.1-1.5.2-2.3.3.2.3.4.7.6 1.2z"
      class="svg-violet"/>
    <path d="M84.4 72.9zM90 83.2l3.1 5.7c-.1-2.8-1.7-4.4-3.1-5.7zM94 90.7z" class="svg-light-gray"/>
    <path
      d="M86.3 78.3c.4.9.8 1.8 1.2 2.5.4.7 1.1 1.2 1.8 1.9.2.2.4.3.6.5 1.5 1.3 3 2.9 3.1 5.7 0 .5 0 1-.1 1.6l1 .2 1 .1c.8-5.4-2.3-8-4.3-9.7-.6-.5-1.2-1-1.4-1.4-.3-.5-.5-1-.8-1.6-.1-.2-.2-.4-.3-.7-.2-.4-.4-.9-.6-1.3-.5-1.1-1.2-2.3-2.1-3.4-.2-.2-.3-.4-.5-.5l-.8.7-.6.5-.2.2c1.6 1.4 2.3 3.1 3 4.7z"
      class="svg-violet"/>
    <path d="M25 110.8v-4.9l-2 4.9zM81.2 106.7l-1.3 4.3h1.7l-.1-.7z" class="svg-teal"/>
  </g>
  <g id="boy-eyes">
    <path
      d="M38.7 42.9c-.7 0-1.2.2-1.6.5l.8 1.2c.2-.2.5-.3.8-.3 1.6 0 1.6 2.6 0 2.5-.9 0-1.3-.8-1.2-1.6l-1.4-.4c-.3 1.6.5 3.4 2.6 3.4 3.5.2 3.5-5.4 0-5.3z"
      class="svg-teal"/>
    <path d="M37.5 45.3c-.1.7.3 1.6 1.2 1.6 1.6 0 1.6-2.6 0-2.5-.4 0-.6.1-.8.3l.6 1-1-.4z" class="svg-violet"/>
    <path
      d="M62.7 42.9c-.7 0-1.2.2-1.7.5l.8 1.2c.2-.2.5-.3.9-.3 1.6 0 1.6 2.6 0 2.5-.9 0-1.3-.8-1.2-1.5l-1.4-.3c-.3 1.5.5 3.4 2.6 3.4 3.5 0 3.5-5.6 0-5.5z"
      class="svg-teal"/>
    <path d="M61.4 45.3c-.1.7.3 1.5 1.2 1.5 1.6 0 1.6-2.6 0-2.5-.4 0-.7.1-.9.3l.6.9-.9-.2z" class="svg-violet"/>
  </g>
</svg>
