<svg xmlns="http://www.w3.org/2000/svg" viewBox="0 0 110 110">
  <defs/>
  <style>.svg-violet{fill:#A353FF}.svg-orange-dark{fill:#df8427}</style>
  <g id="cat">
    <path fill="#f39a21"
          d="M88.7 111.2c0-6.7-4.9-36.3-7.3-48.4C76 48.9 65.1 68.9 61.2 71H48.5c-3.6-1.2-11.8-19.1-18.7-11-4.8 10.9-7.6 44.2-8.7 51l67.6.2z"/>
    <path
      d="M61.4 86.7l1.6.8c2-4.3 8.6-4.3 10.6 0l1.8-.8c-2.8-5.6-11.3-5.7-14 0zM34.6 86.7l1.6.8c2-4.3 8.6-4.3 10.6 0l1.8-.8c-2.8-5.6-11.3-5.7-14 0zM55.7 94.5c.8-.5 1.7-1.3 2.3-1.8 1.3-2.3-1.4-3.8-3.1-1.9-4.1-2.5-4.3 2.4-1.1 3.8-.6 2.2-3.9 3.2-5.2 1l-1.5 1c.8 1.2 2.4 2.1 3.9 2.1 1.4 0 2.9-.8 3.8-2.1.9 1.2 2.3 2.1 3.8 2.1 1.4 0 3.1-.7 3.9-2l-1.5-1c-1.3 2.2-4.8 1.1-5.3-1.2zM70.8 90.3c-5 2.3-9.3 2.9-.9 5.4l.6-1.7-2.1-.7 3.1-1.4-.7-1.6zM39.2 90.3l-.7 1.6 3.1 1.4-2.1.7.7 1.7c8.4-2.5 3.9-3.1-1-5.4z"
      class="svg-violet"/>
    <g>
      <path
        d="M35.1 67c-1.4-1-3.4.6-2.8 2.2.6 1.2 3.2 2 4.4 2.4 2.7.4 2.3-3.5 2.2-5.2-.4-2.2-4-1.5-3.8.6zM75 66.9c.2-2.1-3.4-2.8-3.8-.6-.1 1.6-.4 5.5 2.1 5.3 1-.2 3.2-1.2 4-1.8 1.4-1.5-.5-3.9-2.3-2.9zM49 77.6c0 .7 2.5.4 2.9.3 0-.1.1-.2.1-.3V72h-3v5.6zM53 77.6c0 .7 2.5.4 2.9.3 0-.1.1-.2.1-.3V72h-3v5.6zM58 77.6c0 .7 2.5.4 2.9.3 0-.1.1-.2.1-.3V72h-3v5.6z"
        class="svg-orange-dark"/>
    </g>
  </g>
  <g id="cat-hat">
    <g id="Layer_2_1_">
      <path fill="#fff" d="M37.9 54L56.3 9.3 74.5 54H37.9z"/>
      <path
        d="M65.1 29.8l-18.7 3.5-4.2 10.2c2.7-.3 23.2-4.5 26.4-5.1l-3.5-8.6zM71.3 47.1l-23.6 4.6-10.1 2-.1.3h36.6zM56.4 9l-6.1 14.7 11.1-2.2z"
        class="svg-violet"/>
      <path fill="#f59d20" d="M56.2 13c5.2.1 5.2-8.1 0-8-5.2-.1-5.2 8 0 8z"/>
    </g>
  </g>
</svg>
