<svg xmlns="http://www.w3.org/2000/svg" viewBox="0 0 110 110">
  <defs/>
  <path fill="#ebeff1" d="M41.4 54.9L36 71.5l16.6-5.4-11.2-11.2z"/>
  <path fill="#07c29e" d="M52.6 65.7l-9-9.5-.6-3.1 37.5-37.6 10.6 11-38.5 39.2z"/>
  <path fill="#f39a20" d="M90.9 14.7c3.9 2.8 5.3 8.6 1.2 11.9L80.8 15.4c2.4-3.1 7.3-3.5 10.1-.7z"/>
  <path fill="#a353ff"
        d="M95.8 21.3c-.1-2.8-1.6-5.7-4.1-7.5-1.5-1.5-3.6-2.3-5.8-2.2-2 .1-3.8.9-5.2 2.2-.2-.2-.5-.3-.7-.3-.3 0-.6.1-.8.4l-1.8 1.8c-.4.4-.4 1.1-.1 1.6L40.5 54l-.1.1s0 .1-.1.1c0 .1-.1.2-.1.2l-5.1 15.7-.3.9c0 .1-.1.2-.1.3V71.6l.3.6c.2.2.5.4.8.4.1 0 .2 0 .4-.1l1-.3 4.7-1.5L53 67.3h.2c.1-.1.2-.1.3-.2l36.7-36.8c.2.2.5.3.7.3.3 0 .6-.1.8-.4l1.8-1.8c.4-.4.4-1.1.1-1.6 1.5-1.5 2.2-3.4 2.2-5.5zM42.4 68.2c-.7-1.3-1.7-2.4-3-3l2-6.2c.1.1.3.1.4.2l2.4.4.4 2.4c.1.5.5.9 1 1l2.4.4.4 2.4c0 .2.1.3.2.4l-6.2 2zm4.5-9.5l35.8-35.9 1.9 2-35.8 35.8-1.9-1.9zm33.9-37.8L45 56.8l-1.9-2L78.9 19l1.9 1.9zM86 14c1.6-.1 3 .5 4 1.5.1.1.1.1.2.1 1.9 1.4 3.1 3.5 3.2 5.7 0 1-.2 2.3-1.3 3.6l-9.6-9.6c.9-.8 2.2-1.2 3.5-1.3zM52.6 64.4l-1.9-1.9 35.8-35.9 1.9 2-35.8 35.8z"/>
</svg>
