<svg width="110" height="110" viewBox="0 0 110 110" fill="none" xmlns="http://www.w3.org/2000/svg">
<path d="M22.3798 38.1292L83.101 12L57.0419 72.8845L22.3798 38.1292Z" fill="#A353FF"/>
<path d="M56.8374 72.6888L22.5677 38.3271C20.8307 36.5853 18.0143 36.5853 16.2772 38.3271L15.1453 39.4621C13.4082 41.2038 13.4082 44.0277 15.1453 45.7695L49.4149 80.1313C51.152 81.8731 53.9683 81.8731 55.7054 80.1313L56.8374 78.9963C58.5745 77.2546 58.5745 74.4306 56.8374 72.6888Z" fill="#F69C1C"/>
<path d="M40.9359 54.6155C42.5105 53.0301 44.4565 51.8661 46.5959 51.2302C48.7353 50.5942 50.9996 50.5066 53.1815 50.9754C55.3634 51.4442 57.3932 52.4543 59.0849 53.9133C60.7766 55.3723 62.0762 57.2336 62.8647 59.3267L68.5837 45.9711C66.6372 45.5791 64.8024 44.7565 63.2132 43.5633C61.624 42.3701 60.3203 40.8364 59.3973 39.0739C58.4742 37.3114 57.955 35.3647 57.8774 33.3755C57.7999 31.3863 58.166 29.4048 58.9491 27.5755C59.7322 25.7462 60.9125 24.1151 62.404 22.8012C63.8955 21.4873 65.6606 20.5236 67.5707 19.9805C69.4807 19.4373 71.4876 19.3284 73.445 19.6616C75.4023 19.9947 77.2609 20.7617 78.8851 21.9065L83.1255 12L52.3494 25.2453C53.3097 26.8825 53.9113 28.7059 54.1144 30.5943C54.3174 32.4827 54.1171 34.3928 53.5269 36.1976C52.9366 38.0024 51.9699 39.6605 50.6911 41.0616C49.4123 42.4628 47.8505 43.5749 46.1098 44.324C44.3691 45.073 42.4893 45.4419 40.5954 45.4061C38.7015 45.3703 36.8369 44.9307 35.1256 44.1163C33.4143 43.302 31.8956 42.1317 30.6703 40.6832C29.445 39.2347 28.5413 37.5412 28.0194 35.7154L22.4043 38.1292L39.9644 55.7366C40.2668 55.3448 40.5912 54.9704 40.9359 54.6155V54.6155Z" fill="#F69C1C"/>
</svg>
