<svg width="110" height="110" viewBox="0 0 110 110" fill="none" xmlns="http://www.w3.org/2000/svg">
<path d="M36.4204 53.7111C36.4142 53.195 36.3507 52.6813 36.231 52.1794L22.5018 60.8177V67.2137L36.4204 58.4529V53.7111Z" fill="#A353FF"/>
<path d="M31.1658 46.9658V40.0797H27.7503V46.9658C26.2523 47.3435 24.9228 48.2113 23.9722 49.4319C23.0215 50.6525 22.5041 52.1562 22.5018 53.7049V54.3176L32.9988 47.75C32.4291 47.4006 31.8116 47.1365 31.1658 46.9658Z" fill="#A353FF"/>
<path d="M22.5018 93.8391L36.4204 85.0783V78.6885L22.5018 87.4493V93.8391Z" fill="#A353FF"/>
<path d="M22.5018 73.6771V80.9798L36.4204 72.219V64.9163L22.5018 73.6771Z" fill="#A353FF"/>
<path d="M36.4203 96.7247V91.5479L28.1963 96.7247H36.4203Z" fill="#A353FF"/>
<path d="M32.9988 47.75L22.5018 54.3543V60.8238L36.231 52.1855C36.0222 51.2643 35.6278 50.3956 35.072 49.6329C34.5161 48.8701 33.8106 48.2294 32.9988 47.75Z" fill="#F59D20"/>
<path d="M36.4204 58.4529L22.5018 67.2137V73.6771L36.4204 64.9163V58.4529Z" fill="#F59D20"/>
<path d="M22.5018 87.4493L36.4204 78.6885V72.219L22.5018 80.9798V87.4493Z" fill="#F59D20"/>
<path d="M22.5018 96.7247H28.1963L36.4204 91.5479V85.0784L22.5018 93.8391V96.7247Z" fill="#F59D20"/>
<path d="M35.3694 25.9951C32.9254 23.7283 30.5914 20.322 31.1718 14.0669C31.1886 13.8613 31.1407 13.6556 31.0349 13.4788C30.929 13.3019 30.7705 13.1628 30.5816 13.0809C30.3928 12.9991 30.1831 12.9787 29.9821 13.0226C29.7811 13.0665 29.5988 13.1725 29.461 13.3256C26.0455 17.2098 19.85 25.3579 20.0028 33.2181C20.0028 33.2917 20.0028 33.3713 20.0028 33.4509C20.0035 34.2048 20.0958 34.9557 20.2777 35.6871C20.4198 36.5814 20.7579 37.433 21.2675 38.1806C22.0217 39.5483 23.1084 40.7027 24.4268 41.5363C25.7452 42.37 27.2524 42.8558 28.8083 42.9487C30.3642 43.0417 31.9183 42.7386 33.326 42.0678C34.7338 41.397 35.9495 40.3801 36.8602 39.1118C40.899 33.9411 38.4244 28.801 35.3694 25.9951Z" fill="#F69C1C"/>
<path d="M61.8013 53.7111C61.7982 53.1948 61.7346 52.6808 61.6119 52.1794L47.8827 60.8177V67.2137L61.8013 58.4529V53.7111Z" fill="#A353FF"/>
<path d="M56.5528 46.9658V40.0797H53.1373V46.9658C51.6382 47.3423 50.3074 48.2096 49.3555 49.4303C48.4037 50.6511 47.8854 52.1554 47.8827 53.7049V54.3176L58.3858 47.75C57.8155 47.4017 57.1982 47.1376 56.5528 46.9658Z" fill="#A353FF"/>
<path d="M47.8827 93.8391L61.8013 85.0783V78.6885L47.8827 87.4493V93.8391Z" fill="#A353FF"/>
<path d="M47.8827 73.6771V80.9798L61.8013 72.219V64.9163L47.8827 73.6771Z" fill="#A353FF"/>
<path d="M61.8013 96.7247V91.5479L53.5772 96.7247H61.8013Z" fill="#A353FF"/>
<path d="M58.3858 47.75L47.8827 54.3543V60.8238L61.6424 52.1794C61.4294 51.2575 61.0306 50.389 60.4706 49.6273C59.9105 48.8656 59.2011 48.2267 58.3858 47.75Z" fill="#F59D20"/>
<path d="M61.8013 58.4529L47.8827 67.2137V73.6771L61.8013 64.9163V58.4529Z" fill="#F59D20"/>
<path d="M47.8827 87.4493L61.8013 78.6885V72.219L47.8827 80.9798V87.4493Z" fill="#F59D20"/>
<path d="M47.8827 96.7247H53.5772L61.8013 91.5479V85.0784L47.8827 93.8391V96.7247Z" fill="#F59D20"/>
<path d="M60.7321 25.9951C58.2881 23.7283 55.954 20.322 56.5406 14.0669C56.5574 13.8613 56.5095 13.6556 56.4036 13.4788C56.2977 13.3019 56.1392 13.1628 55.9504 13.0809C55.7616 12.9991 55.5519 12.9787 55.3508 13.0226C55.1498 13.0665 54.9676 13.1725 54.8298 13.3256C51.4082 17.2098 45.2126 25.3579 45.3654 33.2181C45.3654 33.2917 45.3654 33.3713 45.3654 33.4509C45.3691 34.2046 45.4614 34.9551 45.6403 35.6871C45.7824 36.5814 46.1205 37.433 46.6302 38.1806C47.3843 39.5483 48.4711 40.7027 49.7895 41.5363C51.1078 42.37 52.615 42.8558 54.1709 42.9487C55.7269 43.0417 57.2809 42.7386 58.6887 42.0678C60.0965 41.397 61.3122 40.3801 62.2229 39.1118C66.28 33.9411 63.7748 28.801 60.7321 25.9951Z" fill="#F69C1C"/>
<path d="M87.1884 53.7111C87.1822 53.195 87.1187 52.6813 86.999 52.1794L73.2515 60.8177V67.2137L87.1762 58.4529L87.1884 53.7111Z" fill="#A353FF"/>
<path d="M81.9338 46.9658V40.0797H78.5183V46.9658C77.0197 47.3433 75.6895 48.2108 74.7378 49.4313C73.7861 50.6519 73.2674 52.1557 73.2637 53.7049V54.3176L83.7668 47.75C83.1965 47.4017 82.5792 47.1376 81.9338 46.9658Z" fill="#A353FF"/>
<path d="M73.2637 93.8391L87.1884 85.0783V78.6885L73.2637 87.4493V93.8391Z" fill="#A353FF"/>
<path d="M73.2637 73.6771V80.9798L87.1884 72.219V64.9163L73.2637 73.6771Z" fill="#A353FF"/>
<path d="M87.1884 96.7247V91.5479L78.9643 96.7247H87.1884Z" fill="#A353FF"/>
<path d="M83.7668 47.75L73.2515 54.3482V60.8177L86.9867 52.1794C86.7786 51.2603 86.3858 50.3935 85.8321 49.6319C85.2785 48.8703 84.5757 48.2299 83.7668 47.75Z" fill="#F59D20"/>
<path d="M87.1884 58.4529L73.2637 67.2137V73.6771L87.1884 64.9163V58.4529Z" fill="#F59D20"/>
<path d="M73.2637 87.4493L87.1884 78.6885V72.219L73.2637 80.9798V87.4493Z" fill="#F59D20"/>
<path d="M73.2637 96.7247H78.9643L87.1884 91.5479V85.0784L73.2637 93.8391V96.7247Z" fill="#F59D20"/>
<path d="M86.113 25.9951C83.669 23.7283 81.335 20.322 81.9216 14.0669C81.9384 13.8613 81.8905 13.6556 81.7846 13.4788C81.6787 13.3019 81.5202 13.1628 81.3314 13.0809C81.1425 12.9991 80.9328 12.9787 80.7318 13.0226C80.5308 13.0665 80.3486 13.1725 80.2108 13.3256C76.7892 17.2098 70.5936 25.3579 70.7464 33.2181C70.7464 33.2917 70.7464 33.3713 70.7464 33.451C70.7501 34.2046 70.8424 34.9551 71.0213 35.6871C71.1653 36.5819 71.5054 37.4335 72.0172 38.1806C72.7706 39.5483 73.8567 40.7028 75.1746 41.5366C76.4925 42.3704 77.9993 42.8563 79.5548 42.9493C81.1104 43.0422 82.6641 42.7391 84.0714 42.0681C85.4787 41.3972 86.6939 40.3802 87.6039 39.1118C91.6609 33.9411 89.1375 28.801 86.113 25.9951Z" fill="#F69C1C"/>
</svg>
