<?xml version="1.0" encoding="utf-8"?>
<!-- Generator: Adobe Illustrator 25.2.3, SVG Export Plug-In . SVG Version: 6.00 Build 0)  -->
<svg version="1.1" id="Layer_1" xmlns="http://www.w3.org/2000/svg" xmlns:xlink="http://www.w3.org/1999/xlink" x="0px" y="0px"
     viewBox="0 0 585.1 194.8" style="enable-background:new 0 0 585.1 194.8;" xml:space="preserve">
<style type="text/css">
	.st0{fill:#2A3033;}
	.st1{fill:#1D1D1D;}
	.st2{fill:#CED8DD;}
	.st3{fill:none;stroke:#374148;stroke-linecap:round;stroke-miterlimit:10;}
	.st4{fill:#2A3033;stroke:#1D1D1D;stroke-miterlimit:10;}
	.st5{fill:#2B3135;stroke:#1D1D1D;stroke-width:1.63;stroke-miterlimit:10;}
	.st6{fill:#2B3135;stroke:#1D1D1D;stroke-width:1.4487;stroke-miterlimit:10;}
	.st7{fill:#1D1D1D;stroke:#1D1D1D;stroke-width:1.63;stroke-miterlimit:10;}
	.st8{fill:#CED8DD;stroke:#1D1D1D;stroke-width:1.63;stroke-miterlimit:10;}
	.st9{fill:none;stroke:#1D1D1D;stroke-width:1.63;stroke-miterlimit:10;}
	.st10{fill:#242A2D;stroke:#1D1D1D;stroke-width:1.63;stroke-miterlimit:10;}
	.st11{clip-path:url(#SVGID_2_);}
	.st12{fill:#FFFFFF;stroke:#1D1D1D;stroke-width:0.5;stroke-miterlimit:10;}
	.st13{fill:#39B298;}
	.st14{fill:#FFFFFF;}
	.st15{fill:none;stroke:#1D1D1D;stroke-width:0.4349;stroke-miterlimit:10;}
	.st16{fill:none;stroke:#F49B1E;stroke-width:0.5;stroke-miterlimit:10;}
	.st17{fill:none;stroke:#1D1D1D;stroke-width:0.4349;stroke-linecap:round;stroke-linejoin:round;stroke-miterlimit:10;}
	.st18{fill:none;stroke:#1D1D1D;stroke-width:0.5;stroke-linecap:round;stroke-linejoin:round;stroke-miterlimit:10;}
	.st19{fill:none;stroke:#374148;stroke-width:0.4349;stroke-miterlimit:10;}
	.st20{fill:none;stroke:#1D1D1D;stroke-width:0.5;stroke-miterlimit:10;}
	.st21{fill:#384349;}
	.st22{fill:#FFFFFF;stroke:#374148;stroke-width:0.4349;stroke-miterlimit:10;}
	.st23{fill:#FFFFFF;stroke:#374148;stroke-width:0.5;stroke-miterlimit:10;}
	.st24{fill:#F59D20;stroke:#1D1D1D;stroke-width:0.5;stroke-miterlimit:10;}
	.st25{fill:#E64310;}
	.st26{fill:#FFFFFF;stroke:#374148;stroke-width:0.4349;stroke-linejoin:round;stroke-miterlimit:10;}
	.st27{fill:none;stroke:#374148;stroke-width:0.4349;stroke-linejoin:round;stroke-miterlimit:10;}
	.st28{opacity:0.4;fill:#FFFFFF;}
	.st29{fill:#8899A4;stroke:#1D1D1D;stroke-width:1.9222;stroke-miterlimit:10;}
	.st30{fill:#F59D20;stroke:#1D1D1D;stroke-width:1.63;stroke-miterlimit:10;}
	.st31{clip-path:url(#SVGID_4_);fill:none;stroke:#1D1D1D;stroke-width:1.63;stroke-miterlimit:10;}
	.st32{clip-path:url(#SVGID_4_);fill:none;stroke:#FFFFFF;stroke-width:1.63;stroke-miterlimit:10;}
	.st33{fill:#07C39F;stroke:#1D1D1D;stroke-width:1.63;stroke-miterlimit:10;}
	.st34{fill:#FFFFFF;stroke:#1D1D1D;stroke-miterlimit:10;}
	.st35{fill:none;stroke:#374148;stroke-width:1.63;stroke-miterlimit:10;}
	.st36{fill:#8899A4;stroke:#1D1D1D;stroke-width:1.63;stroke-miterlimit:10;}
	.st37{fill:#374148;stroke:#1D1D1D;stroke-width:1.63;stroke-miterlimit:10;}
	.st38{fill:#F59D20;stroke:#1D1D1D;stroke-width:2.1767;stroke-miterlimit:10;}
	.st39{fill:#F59D20;stroke:#1D1D1D;stroke-width:1.9747;stroke-miterlimit:10;}
	.st40{fill:#F59D20;stroke:#1D1D1D;stroke-width:1.8379;stroke-miterlimit:10;}
	.st41{fill:#F59D20;stroke:#1D1D1D;stroke-width:1.7777;stroke-miterlimit:10;}
	.st42{fill:#F59D20;}
	.st43{fill:none;stroke:#1D1D1D;stroke-width:0.4491;stroke-linecap:round;stroke-linejoin:round;stroke-miterlimit:10;}
	.st44{fill:none;stroke:#39B298;stroke-width:0.5;stroke-miterlimit:10;}
	.st45{fill:none;stroke:#1D1D1D;stroke-width:0.4491;stroke-miterlimit:10;}
</style>
  <symbol  id="New_Symbol" viewBox="-28 -28 56 56">
	<g>
		<circle class="st0" cx="0" cy="0" r="26.5"/>
    <path class="st1" d="M0,25c13.8,0,25-11.2,25-25S13.8-25,0-25S-25-13.8-25,0S-13.8,25,0,25 M0,28c-15.5,0-28-12.5-28-28
			s12.5-28,28-28S28-15.5,28,0S15.5,28,0,28L0,28z"/>
	</g>
    <g>
		<path class="st1" d="M0,22c12.1,0,22-9.9,22-22S12.1-22,0-22s-22,9.9-22,22S-12.1,22,0,22 M0,23c-12.7,0-23-10.3-23-23
			s10.3-23,23-23S23-12.7,23,0S12.7,23,0,23L0,23z"/>
	</g>
    <g>
		<circle class="st2" cx="0" cy="0" r="14.5"/>
      <path class="st1" d="M0,14c7.7,0,14-6.3,14-14S7.7-14,0-14S-14-7.7-14,0S-7.7,14,0,14 M0,15c-8.3,0-15-6.7-15-15s6.7-15,15-15
			S15-8.3,15,0S8.3,15,0,15L0,15z"/>
	</g>
    <g>
		<circle class="st2" cx="0" cy="0" r="5"/>
      <path class="st1" d="M0,4c2.2,0,4-1.8,4-4S2.2-4,0-4s-4,1.8-4,4S-2.2,4,0,4 M0,6c-3.3,0-6-2.7-6-6c0-3.3,2.7-6,6-6s6,2.7,6,6
			C6,3.3,3.3,6,0,6L0,6z"/>
	</g>
    <line class="st3" x1="0" y1="11.9" x2="0" y2="8"/>
    <line class="st3" x1="-4.1" y1="11.2" x2="-2.7" y2="7.5"/>
    <line class="st3" x1="-7.7" y1="9.1" x2="-5.1" y2="6.1"/>
    <line class="st3" x1="-10.4" y1="6" x2="-6.9" y2="4"/>
    <line class="st3" x1="-11.8" y1="2" x2="-7.9" y2="1.4"/>
    <line class="st3" x1="-11.8" y1="-2.1" x2="-7.9" y2="-1.4"/>
    <line class="st3" x1="-10.4" y1="-6" x2="-6.9" y2="-4"/>
    <line class="st3" x1="-7.7" y1="-9.2" x2="-5.1" y2="-6.2"/>
    <line class="st3" x1="-4.1" y1="-11.3" x2="-2.7" y2="-7.5"/>
    <line class="st3" x1="0" y1="-12" x2="0" y2="-8"/>
    <line class="st3" x1="4.1" y1="-11.3" x2="2.7" y2="-7.5"/>
    <line class="st3" x1="7.7" y1="-9.2" x2="5.1" y2="-6.2"/>
    <line class="st3" x1="10.4" y1="-6" x2="6.9" y2="-4"/>
    <line class="st3" x1="11.8" y1="-2.1" x2="7.9" y2="-1.4"/>
    <line class="st3" x1="11.8" y1="2" x2="7.9" y2="1.4"/>
    <line class="st3" x1="10.4" y1="6" x2="6.9" y2="4"/>
    <line class="st3" x1="7.7" y1="9.1" x2="5.1" y2="6.1"/>
    <line class="st3" x1="4.1" y1="11.2" x2="2.7" y2="7.5"/>
    <g>
		<circle class="st1" cx="0" cy="0" r="1"/>
	</g>
    <line class="st4" x1="-0.1" y1="26" x2="-0.1" y2="22.8"/>
    <line class="st4" x1="2.7" y1="25.8" x2="2.3" y2="22.6"/>
    <line class="st4" x1="5.4" y1="25.4" x2="4.7" y2="22.3"/>
    <line class="st4" x1="8" y1="24.7" x2="7" y2="21.6"/>
    <line class="st4" x1="10.6" y1="23.7" x2="9.2" y2="20.7"/>
    <line class="st4" x1="13" y1="22.4" x2="11.4" y2="19.6"/>
    <line class="st4" x1="15.3" y1="20.9" x2="13.4" y2="18.3"/>
    <line class="st4" x1="17.4" y1="19.2" x2="15.2" y2="16.8"/>
    <line class="st4" x1="19.3" y1="17.2" x2="16.9" y2="15.1"/>
    <line class="st4" x1="21" y1="15" x2="18.4" y2="13.2"/>
    <line class="st4" x1="22.5" y1="12.7" x2="19.7" y2="11.1"/>
    <line class="st4" x1="23.7" y1="10.2" x2="20.7" y2="9"/>
    <line class="st4" x1="24.6" y1="7.7" x2="21.6" y2="6.7"/>
    <line class="st4" x1="25.3" y1="5" x2="22.1" y2="4.4"/>
    <line class="st4" x1="25.7" y1="2.3" x2="22.5" y2="2"/>
    <line class="st4" x1="25.8" y1="-0.5" x2="22.5" y2="-0.4"/>
    <line class="st4" x1="25.5" y1="-3.2" x2="22.4" y2="-2.8"/>
    <line class="st4" x1="25" y1="-5.9" x2="21.9" y2="-5.2"/>
    <line class="st4" x1="24.3" y1="-8.5" x2="21.2" y2="-7.5"/>
    <line class="st4" x1="23.2" y1="-11.1" x2="20.3" y2="-9.7"/>
    <line class="st4" x1="21.9" y1="-13.5" x2="19.1" y2="-11.8"/>
    <line class="st4" x1="20.3" y1="-15.7" x2="17.8" y2="-13.8"/>
    <line class="st4" x1="18.5" y1="-17.8" x2="16.2" y2="-15.6"/>
    <line class="st4" x1="16.5" y1="-19.7" x2="14.4" y2="-17.2"/>
    <line class="st4" x1="14.3" y1="-21.3" x2="12.5" y2="-18.7"/>
    <line class="st4" x1="12" y1="-22.7" x2="10.5" y2="-19.9"/>
    <line class="st4" x1="9.5" y1="-23.9" x2="8.3" y2="-20.9"/>
    <line class="st4" x1="6.9" y1="-24.8" x2="6" y2="-21.7"/>
    <line class="st4" x1="4.2" y1="-25.4" x2="3.7" y2="-22.2"/>
    <line class="st4" x1="1.5" y1="-25.7" x2="1.3" y2="-22.4"/>
    <line class="st4" x1="-1.3" y1="-25.7" x2="-1.1" y2="-22.5"/>
    <line class="st4" x1="-4" y1="-25.4" x2="-3.5" y2="-22.2"/>
    <line class="st4" x1="-6.7" y1="-24.8" x2="-5.9" y2="-21.7"/>
    <line class="st4" x1="-9.3" y1="-24" x2="-8.2" y2="-21"/>
    <line class="st4" x1="-11.8" y1="-22.9" x2="-10.4" y2="-20"/>
    <line class="st4" x1="-14.2" y1="-21.5" x2="-12.4" y2="-18.8"/>
    <line class="st4" x1="-16.4" y1="-19.9" x2="-14.4" y2="-17.4"/>
    <line class="st4" x1="-18.5" y1="-18" x2="-16.2" y2="-15.8"/>
    <line class="st4" x1="-20.3" y1="-16" x2="-17.8" y2="-14"/>
    <line class="st4" x1="-21.9" y1="-13.8" x2="-19.2" y2="-12"/>
    <line class="st4" x1="-23.2" y1="-11.4" x2="-20.3" y2="-9.9"/>
    <line class="st4" x1="-24.3" y1="-8.8" x2="-21.3" y2="-7.7"/>
    <line class="st4" x1="-25.1" y1="-6.2" x2="-22" y2="-5.4"/>
    <line class="st4" x1="-25.7" y1="-3.5" x2="-22.5" y2="-3.1"/>
    <line class="st4" x1="-25.9" y1="-0.8" x2="-22.7" y2="-0.7"/>
    <line class="st4" x1="-25.9" y1="1.9" x2="-22.7" y2="1.7"/>
    <line class="st4" x1="-25.5" y1="4.7" x2="-22.4" y2="4.1"/>
    <line class="st4" x1="-24.9" y1="7.3" x2="-21.8" y2="6.4"/>
    <line class="st4" x1="-24" y1="9.9" x2="-21" y2="8.7"/>
    <line class="st4" x1="-22.8" y1="12.4" x2="-20" y2="10.9"/>
    <line class="st4" x1="-21.4" y1="14.8" x2="-18.7" y2="12.9"/>
    <line class="st4" x1="-19.7" y1="16.9" x2="-17.3" y2="14.8"/>
    <line class="st4" x1="-17.8" y1="18.9" x2="-15.6" y2="16.6"/>
    <line class="st4" x1="-15.7" y1="20.7" x2="-13.8" y2="18.1"/>
    <line class="st4" x1="-13.5" y1="22.2" x2="-11.8" y2="19.5"/>
    <line class="st4" x1="-11" y1="23.5" x2="-9.7" y2="20.6"/>
    <line class="st4" x1="-8.5" y1="24.6" x2="-7.5" y2="21.5"/>
    <line class="st4" x1="-5.9" y1="25.3" x2="-5.1" y2="22.2"/>
    <line class="st4" x1="-3.2" y1="25.8" x2="-2.8" y2="22.6"/>
</symbol>
  <g>
	<path class="st5" d="M496.3,56.1l62.7-32.7c1.8-1,4.1-0.3,5.1,1.5l8.5,15.3c0.3,0.6,0.5,1.2,0.5,1.8v21.7c0,1-0.4,2-1.1,2.7
		l-12.1,12.1c-1,1-2.4,1.3-3.7,1l-59-16.3C493.7,62.2,493.2,57.7,496.3,56.1z"/>
    <path class="st6" d="M517.1,52.2l-46.4-12.1l2.7-10.2c0.4-1.4,1.8-2.2,3.2-1.9l41.3,10.7c1.4,0.4,2.2,1.8,1.9,3.2L517.1,52.2z"/>
    <path class="st7" d="M512.1,140l-16.2,4.6l-87.6-7.8c0,0,0,13.6-7.9,14.3c-7.9,0.7-260.4,0-260.4,0l-77.7-6.3l-10.5,1.6l-40.5-12.4
		l-0.4-6.6l64.3-38.8l90.5-9.3l321.7-6.5L512.1,140z"/>
    <path class="st8" d="M565.3,93.3l-4.3-5.1c-0.1-0.1-0.2-0.3-0.3-0.4l-9.9-27.4c0,0-0.9-2.7-14.1-6.3
		c-12.9-3.6-137.4-35.8-143.2-37.1c-0.1,0-0.2,0-0.4,0l-126.5,4.5c-0.2,0-80.2,35.4-82.8,35.4c-2.7,0-38.8,7.7-38.8,7.7L19.4,82.1
		c0,0-3.6,0-6.3,7.3c-2.4,6.4-3.4,10.4-3.6,11.2c0,0.1,0,0.2,0,0.3v29c0,0.7,0.5,1.3,1.2,1.4l40.4,10c0.8,0.1,1.6-0.4,1.7-1.2
		c0.9-8,7.2-45.1,41-49.1c27.6-3.2,56,6.8,59.9,46.7c0.1,0.8,0.6,1.4,1.4,1.4l237.4,0.9c6.8,0,7-3.4,7.1-4.1
		c0.9-6.5,8.9-41.4,40.3-46c63.9-9.3,64.4,42.9,64.4,50.2c0,0.8,0.6,1.4,1.4,1.4c2.3,0,3.9,0.1,4.9,0.2c0.9,0.1,1.7-0.7,1.5-1.6l0,0
		c-0.1-0.7,0.4-1.4,1.1-1.6l43.3-13.5c0.6-0.2,1.1-0.7,1.1-1.4v-4.3c0-0.8,0.6-1.4,1.3-1.4l3.6-0.3c0.6,0,1.1-0.4,1.3-1l2.6-8.7
		c0.2-0.5,0.6-0.9,1.1-1l2.1-0.5c0.7-0.1,1.1-0.7,1.1-1.4V95c0-0.8-0.7-1.5-1.6-1.4l-2.7,0.2C566,93.8,565.6,93.6,565.3,93.3z"/>
    <path class="st9" d="M181.9,56.8c0,0,19.6,56.9,26.5,75.2c2.4,6.5,5.4,10.2,7.5,10.2"/>
    <path class="st9" d="M385.9,16.4l-2.1,47.9c-0.1,2-0.6,3.9-1.5,5.6c-5.7,10.4-26.9,48.6-39.4,59.6c-14.5,12.7-14.7,13.6-14.7,13.6"
    />
    <path class="st10" d="M273.2,30.3l87.7-2.5c1.8-0.1,3.5,0.7,4.5,2.2c0.5,0.7,0.8,1.6,0.8,2.8c0,3.6,0,30.2,0,30.2s0.5,8.6-6.8,8.6
		c-7.3,0-151.1,0-151.1,0s-6.4-1.4-0.5-4.5c5.9-3.2,53.5-34.4,53.5-34.4S263.6,30.3,273.2,30.3z"/>
    <g>
		<defs>
			<path id="SVGID_1_" d="M274.8,30.8l85-2.5c1.7,0,3.4,0.7,4.4,2.1c0.5,0.7,0.8,1.6,0.8,2.7c0,3.5,0,29.2,0,29.2s0.4,8.4-6.6,8.4
				c-7,0-146.5,0-146.5,0s-6.2-1.3-0.4-4.4c5.7-3.1,51.9-33.3,51.9-33.3S265.5,30.8,274.8,30.8z"/>
		</defs>
      <clipPath id="SVGID_2_">
			<use xlink:href="#SVGID_1_"  style="overflow:visible;"/>
		</clipPath>
      <g class="st11">
			<g>
				<g>
					<path class="st12" d="M326.8,34.6c0,0.1,3.5-1.9,3.5-1.9l6-2.9c0.3-0.2,0.7,0,0.8,0.4v0c0.1,0.2,0,0.5-0.2,0.6l-4.9,3.4
						c-0.2,0.2,0,0.5,0.2,0.4l7.3-1.9c0.4-0.1,1.1-0.1,1.3,0.3l0,0c0.2,0.4-0.3,0.8-0.7,0.9c-1.9,0.8-7,2.7-7,2.7
						c-0.7,0.3-0.6,1.2,0.3,1l6-1.1c0,0,0.1,0,0.1,0c0.8,0,1.1,0.7,0.2,1c-0.1,0-0.1,0.1-0.1,0.1l-5.9,1.5c-0.9,0.3-0.6,0.9,0.2,0.9
						l4.1-0.2c0.3,0,0.5,0.3,0.4,0.6v0c-0.1,0.1-0.2,0.2-0.3,0.2c-1,0.1-5.3,0.7-6.5,1.5c-2.7,1.9-5.2,2.2-5.2,2.2l-26,21.7
						l-5.1-9.4l26.4-16.9c0,0,3.8-5.7,2.6-8.2C322.9,29.2,327.9,31.3,326.8,34.6z"/>
          <path class="st12" d="M326.3,40.9c0,0,3-2,0.5-6.3"/>
          <path class="st12" d="M333.1,40.3c0,0-0.3-2.7-1.7-6.8"/>
				</g>
        <path class="st12" d="M273.8,28.8c-0.1,0.1,0.2-4,0.2-4l0-6.6c0-0.4-0.3-0.6-0.7-0.6l0,0c-0.2,0-0.4,0.2-0.4,0.5L272,24
					c0,0.3-0.5,0.3-0.5,0l-1.4-7.4c0-0.4-0.3-1-0.8-1l0,0c-0.5,0-0.6,0.6-0.5,1c0.1,2.1,0.6,7.5,0.6,7.5c0,0.7-0.8,1-1,0.2l-1.6-5.9
					c0,0,0-0.1,0-0.1c-0.3-0.7-1.1-0.7-1,0.2c0,0.1,0,0.1,0,0.2l1.2,5.9c0.2,1-0.5,1-0.9,0.2l-1.6-3.8c-0.1-0.3-0.5-0.3-0.7-0.1l0,0
					c-0.1,0.1-0.1,0.2-0.1,0.3c0.3,0.9,1.6,5.1,1.4,6.5c-0.5,3.3,0.3,5.7,0.3,5.7l-16.3,18.3c-2.2,3.3-2.2,4.4,0.8,7.9l3.5,3.1
					l6.6-7.3l-2.1-1.9l13.7-18c0,0,3.5-5.9,6.3-5.8C280.3,30,276.3,26.4,273.8,28.8z"/>
        <path class="st12" d="M298.6,53.7l-16,7.6l-11.3-1.1l-1.2-0.1c-0.7-0.1-1.3,0-1.9,0.1l-7.6-5.2l-8.2,8.9l9.5,9.9L256.3,96
					l31.3-2l1.6-19.5l14.8-7.5L298.6,53.7z"/>
        <g id="XMLID_569_">
					<g id="XMLID_570_">
						<path id="XMLID_602_" class="st13" d="M263.5,46.2c0.1-0.3,0.3-0.5,0.4-0.7c0,0.1,0,0.2-0.1,0.3c-1.3,6.6,2.5,11.4,8.4,13.1
							c0,0-1.8,0.6-4.9-0.1C263.9,58,259.6,52.9,263.5,46.2z"/>

            <rect id="XMLID_601_" x="267.9" y="57.6" transform="matrix(0.9819 0.1895 -0.1895 0.9819 16.1398 -51.0166)" class="st13" width="14" height="2.7"/>
            <g id="XMLID_600_">
							<g>
								<path class="st14" d="M274.2,64.9c-0.3,0-0.6,0-0.9-0.1c-0.8-0.2-1.5-0.9-1.9-1.8c-0.4-0.9-0.5-1.8-0.3-2.6l0.1-0.2l0.8,0
									l0.4-0.8l2.2,0.9l1.9,0c0.7,0.2,1.1,0.8,1,1.5l-0.1,0.7C276.9,64,275.6,64.9,274.2,64.9z M272.1,61.1
									c-0.3,1.1,0.3,2.4,1.5,2.7c0.2,0.1,0.4,0.1,0.7,0.1c1,0,1.8-0.6,2.1-1.5l0-0.7l-2-0.8l-1.8,0l-0.4,0L272.1,61.1z"/>
                <path class="st1" d="M272.4,59.7l2,0.8l-1.8,0l-0.5,0L272.4,59.7 M271.3,60.4l0.8,0l-0.2,0.5c-0.4,1.3,0.3,2.7,1.6,3.1
									c0.2,0.1,0.5,0.1,0.7,0.1c1,0,2-0.7,2.3-1.7l0.1-1l-2.2-0.9l2,0c0.5,0.1,0.9,0.7,0.8,1.2l-0.1,0.7l0,0.1
									c-0.4,1.3-1.6,2.1-2.8,2.1c-0.3,0-0.6,0-0.9-0.1C271.8,64,270.8,62,271.3,60.4 M272.2,59.1l-0.2,0.4l-0.2,0.5l-0.4,0l-0.4,0
									l-0.1,0.4c-0.6,1.9,0.6,4.1,2.3,4.7c0.3,0.1,0.7,0.2,1,0.2c1.5,0,2.9-1,3.3-2.4l0,0l0,0l0-0.1l0.1-0.8
									c0.1-0.8-0.4-1.6-1.1-1.8l-0.1,0l-0.1,0l-1.9,0l-1.9-0.8L272.2,59.1L272.2,59.1z M272.3,61.2l0.1-0.1l0.2,0l1.7,0l1.8,0.7
									l0,0.6c-0.3,0.8-1,1.3-1.9,1.3c-0.2,0-0.4,0-0.6-0.1C272.6,63.2,272,62.2,272.3,61.2L272.3,61.2z"/>
							</g>
						</g>
            <path id="XMLID_597_" class="st13" d="M266.1,38.1l2.2,0.4c0,0,0,0,0,0c0.1-0.1,0.2-0.1,0.2-0.2c0.1-0.1,0.2-0.1,0.3-0.2
							c0.1-0.1,0.2-0.1,0.2-0.2c0.1-0.1,0.2-0.1,0.3-0.2c0.1-0.1,0.2-0.1,0.3-0.2c0.1-0.1,0.2-0.1,0.3-0.2c0.1-0.1,0.2-0.1,0.3-0.2
							c0.1-0.1,0.2-0.1,0.3-0.2c0.1-0.1,0.2-0.1,0.3-0.2c0.1-0.1,0.2-0.1,0.3-0.2c0.1,0,0.2-0.1,0.3-0.1c0,0,0,0,0,0l-0.3,5.2
							l0.8,7.7l3.9,8.7c0,0,1.7,1.6,1.8,1.8c0.7,0.6,1.4,0.9,2.6,1.5c0.5,0.2,0.9,0.3,1.4,0.4c5.5,1.1,10.8-2.5,11.8-8
							c0.3-1.4,0.2-2.8-0.1-4.1c-0.3-1.3-0.4-2.6-0.5-3.9c-0.3-5.9-4.6-11.1-10.7-12.3c-1.7-0.3-3.5-0.3-5.1,0
							c-0.5-0.2-1.1-0.4-1.6-0.5C271.8,32.1,268.1,34.3,266.1,38.1z M284.9,50.9l1,0.2c0.8,0.2,1.4,1,1.2,1.8v0
							c-0.2,0.8-1,1.4-1.8,1.2l-0.6-0.1L284.9,50.9z"/>
            <path id="XMLID_596_" class="st12" d="M273,58.1c1.2,0.4,3,0.6,4.1,0.7l-0.4,2.8c0,1.3-1.1,2.4-2.4,2.4l0,0
							c-1.3,0-2.4-1.1-2.4-2.4l0.5-3.9C272.8,58,272.5,58,273,58.1z"/>
            <path id="XMLID_595_" class="st12" d="M263.9,45.8c-1.4,7.2,3.2,12.2,9.8,13.5c6.6,1.3,12.7-1.7,14.1-8.9
							c1.4-7.2-2.8-14-9.4-15.3C271.8,33.8,265.3,38.6,263.9,45.8z"/>
            <path id="XMLID_594_" class="st14" d="M285.6,51.1l1,0.2c0.8,0.2,1.4,1,1.2,1.8l0,0c-0.2,0.8-1,1.4-1.8,1.2l-0.2,0L285.6,51.1
							z"/>
            <path id="XMLID_593_" class="st13" d="M277.8,33.9c-2,7.1-8.4,12-15.6,12.3c0-0.4,0.1-0.8,0.2-1.1
							C263.8,37.8,270.6,33,277.8,33.9z"/>
            <path id="XMLID_592_" class="st13" d="M272.2,34.4c2-0.5,4.2-0.7,6.3-0.3c7.5,1.5,12.4,8.8,11,16.4c-0.1,0.3-0.3,1.8-0.4,2.2
							c-1.2-0.7-2-1.3-3-1.5C277.9,49.6,272.1,42.4,272.2,34.4z"/>
            <path id="XMLID_591_" class="st15" d="M271,53.8c0.5,0.3,1.2,0.5,1.8,0.4c0,0,0.1,1.4-1.4,1.4"/>
            <g id="XMLID_588_">
							<path id="XMLID_590_" class="st1" d="M279.9,48.9l-3.6-1.1c-0.1,0-0.2,0-0.2,0.1l-0.1,0.2c0,0.1,0,0.2,0.1,0.2l4,1.3l0.1-0.2
								C280.2,49.2,280.1,49,279.9,48.9z"/>
              <path id="XMLID_589_" class="st1" d="M266.1,46.1l3.7,0.6c0.1,0,0.2,0.1,0.2,0.2l0,0.2c0,0.1-0.1,0.2-0.2,0.2l-4.1-0.7l0-0.2
								C265.7,46.2,265.9,46,266.1,46.1z"/>
						</g>
            <path id="XMLID_587_" class="st15" d="M272.4,50.8c-0.5-0.1-0.9,0.2-1,0.7c-0.1,0.5,0.2,0.9,0.7,1"/>
            <g id="XMLID_579_">

								<ellipse id="XMLID_586_" transform="matrix(0.1895 -0.9819 0.9819 0.1895 168.1997 301.9101)" class="st1" cx="267" cy="49.1" rx="0.9" ry="0.8"/>

              <ellipse id="XMLID_585_" transform="matrix(0.1895 -0.9819 0.9819 0.1895 174.0373 313.511)" class="st1" cx="276.9" cy="51.3" rx="0.9" ry="0.8"/>
              <g id="XMLID_580_">
								<g id="XMLID_582_">
									<circle id="XMLID_584_" class="st16" cx="266.6" cy="49.1" r="4.1"/>
                  <circle id="XMLID_583_" class="st16" cx="277.9" cy="51.3" r="4.1"/>
								</g>
                <line id="XMLID_581_" class="st16" x1="270.6" y1="49.9" x2="273.8" y2="50.5"/>
							</g>
						</g>
            <polyline id="XMLID_578_" class="st17" points="287.3,52.6 286.2,53 287,53.1 						"/>
            <path id="XMLID_577_" class="st18" d="M285.6,51.1l1,0.2c0.8,0.2,1.4,1,1.2,1.8l0,0c-0.2,0.8-1,1.4-1.8,1.2l-0.2,0"/>
            <path id="XMLID_576_" class="st19" d="M268.1,56.5"/>
            <path id="XMLID_575_" class="st20" d="M263.1,45c5.9-0.3,11.3-4,13.5-9.6"/>
            <path id="XMLID_574_" class="st20" d="M263.4,43.8c5.2-0.4,9.8-3.7,11.7-8.6"/>
            <path id="XMLID_572_" class="st20" d="M284,49.9c-5-1.4-8.7-5.4-10.3-10.1"/>
					</g>
				</g>
        <path class="st21" d="M272.9,54.7"/>
        <path class="st22" d="M271.3,60.4"/>
        <line class="st12" x1="257.7" y1="53.7" x2="255.8" y2="53.9"/>
        <path class="st12" d="M268.3,32c0,0,0.5-3.6,5.5-3.2"/>
        <path class="st23" d="M265.9,25.6c0,0,2.6-0.9,6.9-1.4"/>
        <line class="st22" x1="289.5" y1="70.4" x2="289.2" y2="74.5"/>
			</g>
        <g id="XMLID_238_">
				<path id="XMLID_568_" class="st24" d="M326.8,94.8l-0.9-16.6c-0.3-4.7-1.2-7.8-4.9-9.2l-10.7-4.4l0,0.1
					c-1.1,2.6-2.3,2.5-5.4,3.1c-3.2,0.6-4-0.2-5.1-1.5l-2.1-2.9l-2.7-0.3l-3.4-0.3c-4.1-0.6-7.6,1.5-9.1,5.8l-4.8,18.8l-24.5,13.4
					l37.2,0.3l1.3,2.2l5.1,3.3l23,0.9C327.4,106.8,327.4,101.2,326.8,94.8z"/>
          <polygon id="XMLID_567_" class="st25" points="318.2,96.5 312.7,96.3 303.9,96.8 313.6,95 313.7,91 314.4,94.8 				"/>
          <g id="XMLID_239_">
					<path id="XMLID_243_" class="st22" d="M278.7,105.5c3-3.8,6.8-3.3,9.7-3.9c0.3-0.1,1.1-0.3,2.1-0.5c3.1-0.7,6,1.4,6.3,4.6
						l0.1,1c-1.1,0.6-5.6,3.6-6.7,3.8c-2.3,0.4-5.1-0.6-6.6-0.1c-1.9,0.7-2.8,2.4-3.9,2.4c-0.9-0.1-0.6-0.6-0.6-0.6l-1.8,0.3
						c-0.6,0-1-0.6-0.7-1.1c0.3-0.7,1-1.6,1-1.6c-0.1,0.1-1,1.3-1.6,0.8C275.3,109.9,277.9,106.5,278.7,105.5z"/>
            <path id="XMLID_242_" class="st26" d="M277.4,109.9c0,0,2.4-3.8,4-4.9c1.4-0.9,2.5-1.3,2.5-1.3"/>
            <path id="XMLID_241_" class="st22" d="M284.4,105.8c0,0-3,1.1-4,2.3c-2.5,3-2.7,3.6-2.7,3.6c-0.2,0.3-0.1,0.8,0.2,0.9
						c0.4,0.2,0.8-0.2,0.8-0.2l0.3-0.2"/>
            <path id="XMLID_240_" class="st27" d="M279,112.3c0,0,1.2-1.7,1.9-2.4c1.6-1.6,4.4-1.9,4.4-1.9"/>
				</g>
			</g>
        <polygon class="st28" points="364.9,76.9 331.6,76.9 362,29.4 372.2,29.4 			"/>
		</g>
	</g>
    <polygon class="st28" points="317.4,70.9 314.3,70.9 341.2,29 343.6,29 	"/>
    <polygon class="st28" points="334.3,70.8 319.1,70.9 345,28.8 360.6,28.8 	"/>
    <path class="st29" d="M227.8,73.5V63.2c0-2.4-2.2-4.1-4.5-3.7l-19.6,5c-4,0.8-4,6.5-0.1,7.3l19.6,5.3
		C225.5,77.7,227.8,75.9,227.8,73.5z"/>
    <path class="st30" d="M22.5,100.6H10.3c-1.4,0-2.4-1.4-2-2.8l3-10.3c1.1-3.6,4.2-6,7.8-6h3.4c1.1,0,2.1,1,2.1,2.2v14.8
		C24.5,99.6,23.6,100.6,22.5,100.6z"/>

    <g id="round-1">
    <use xlink:href="#New_Symbol" width="56" height="56" x="-28" y="-28"/>
    </g>>
    <use xlink:href="#New_Symbol" id="round-2"  width="56" height="56" x="-28" y="-28"/>
    <g>
		<defs>
			<path id="SVGID_3_" d="M565,91.9l-4.3-5.1c-0.1-0.1-0.2-0.3-0.3-0.4l-9.9-27.4c0,0-0.9-2.7-14.1-6.3
				C523.6,49,399,16.7,393.3,15.4c-0.1,0-0.2,0-0.4,0l-126.5,4.5c-0.2,0-80.2,35.4-82.8,35.4c-2.7,0-38.8,7.7-38.8,7.7L19.1,80.7
				c0,0-3.6,0-6.3,7.3c-2.4,6.4-3.4,10.4-3.6,11.2c0,0.1,0,0.2,0,0.3v29c0,0.7,0.5,1.3,1.2,1.4l40.4,10c0.8,0.1,1.6-0.4,1.7-1.2
				c0.9-8,7.2-45.1,41-49.1c27.6-3.2,56,6.8,59.9,46.7c0.1,0.8,0.6,1.4,1.4,1.4l237.4,0.9c6.8,0,7-3.4,7.1-4.1
				c0.9-6.5,8.9-41.4,40.3-46c63.9-9.3,64.4,42.9,64.4,50.2c0,0.8,0.6,1.4,1.4,1.4c2.3,0,3.9,0.1,4.9,0.2c0.9,0.1,1.7-0.7,1.5-1.6
				l0,0c-0.1-0.7,0.4-1.4,1.1-1.6l43.3-13.5c0.6-0.2,1.1-0.7,1.1-1.4v-4.3c0-0.8,0.6-1.4,1.3-1.4l3.6-0.3c0.6,0,1.1-0.4,1.3-1
				l2.6-8.7c0.2-0.5,0.6-0.9,1.1-1l2.1-0.5c0.7-0.1,1.1-0.7,1.1-1.4v-10c0-0.8-0.7-1.5-1.6-1.4l-2.7,0.2
				C565.7,92.4,565.3,92.2,565,91.9z"/>
		</defs>
      <clipPath id="SVGID_4_">
			<use xlink:href="#SVGID_3_"  style="overflow:visible;"/>
		</clipPath>
      <line class="st31" x1="27" y1="101.7" x2="550" y2="100.8"/>
      <line class="st32" x1="29.3" y1="100.2" x2="552.3" y2="99.3"/>
	</g>
    <g>
		<circle class="st33" cx="287.5" cy="103.2" r="27.9"/>
      <g>
			<path class="st34" d="M282.2,90.9l0,24.2l-6.7,0l0-15.9c-1.1,0.8-2.1,1.5-3.1,2c-1,0.5-2.3,1-3.8,1.5l0-5.4
				c2.3-0.7,4-1.6,5.2-2.6c1.2-1,2.2-2.3,2.9-3.8L282.2,90.9z"/>
        <path class="st34" d="M285,103.1c0-4.5,0.8-7.7,2.4-9.5c1.6-1.8,4.1-2.7,7.4-2.7c1.6,0,2.9,0.2,3.9,0.6c1,0.4,1.9,0.9,2.5,1.5
				c0.6,0.6,1.2,1.3,1.5,2c0.4,0.7,0.7,1.5,0.9,2.4c0.4,1.8,0.7,3.6,0.7,5.6c0,4.3-0.7,7.5-2.2,9.5c-1.5,2-4,3-7.6,3
				c-2,0-3.6-0.3-4.9-1c-1.2-0.6-2.2-1.6-3-2.8c-0.6-0.9-1-2.1-1.3-3.6C285.2,106.6,285,104.9,285,103.1z M291.6,103.1
				c0,3,0.3,5.1,0.8,6.2c0.5,1.1,1.3,1.7,2.3,1.7c0.7,0,1.3-0.2,1.7-0.7c0.5-0.5,0.9-1.2,1.1-2.2c0.2-1,0.3-2.6,0.3-4.8
				c0-3.2-0.3-5.3-0.8-6.4c-0.5-1.1-1.3-1.6-2.4-1.6c-1.1,0-1.9,0.6-2.4,1.7C291.8,98.1,291.6,100.1,291.6,103.1z"/>
		</g>
	</g>
    <path class="st35" d="M40.4,90.4c0,0-0.3-2.6,1.4-3.4c4.3-1.9,14.3-3.5,20.4-3.9c8.6-0.5,27.2-0.6,36.2-3.9
		c9.3-3.4,23.5,0.4,31.3,3.8c6.8,3,20.2,3.5,22.1,13.5c1.3,6.9,8.6,24.1,8.4,33.6c-0.2,9.2,3.8,14.5,10.7,15.7
		c7,1.2,25.3,0.9,25.3,0.9"/>
    <path class="st35" d="M43.2,90.4c0,0-0.3-0.8,1.4-1.6c4.3-1.9,15.3-0.5,20.4-3.9c7.9-5.2,8.9-1.9,17.9-5.2c9.3-3.4,26.6-1,34.5,2.4
		c3.2,1.4,8.4,0.1,14.4,1.9c6.8,2.1,14.6,7.6,22.9,14.2c5.5,4.4,2.8,22.9,2.6,32.3c-0.2,9.2,9.6,15.7,16.5,16.9
		c7,1.2,25.3-0.8,25.3-0.8"/>
    <g>
		<path class="st36" d="M50.8,122.3H31.4c-2.2,0-4-1.8-4-4V94.6c0-2.2,1.8-4,4-4h19.4c2.2,0,4,1.8,4,4v23.7
			C54.9,120.5,53.1,122.3,50.8,122.3z"/>
      <circle class="st1" cx="33.7" cy="97.2" r="1.6"/>
      <circle class="st1" cx="47.6" cy="97.2" r="1.6"/>
      <circle class="st1" cx="33.7" cy="105.7" r="1.6"/>
      <circle class="st1" cx="47.6" cy="105.7" r="1.6"/>
      <circle class="st1" cx="33.7" cy="114.2" r="1.6"/>
      <circle class="st1" cx="47.6" cy="114.2" r="1.6"/>
	</g>

    <rect x="67.3" y="80.5" transform="matrix(0.9532 -0.3022 0.3022 0.9532 -21.8785 24.4861)" class="st1" width="1.8" height="4.9"/>
    <rect x="100.1" y="76" transform="matrix(0.9932 -0.1165 0.1165 0.9932 -8.4558 12.2977)" class="st1" width="1.8" height="4.9"/>

    <rect x="130.2" y="81.4" transform="matrix(0.9557 0.2944 -0.2944 0.9557 30.4955 -34.8783)" class="st1" width="1.8" height="4.9"/>
    <rect x="150.5" y="93" transform="matrix(0.7838 0.621 -0.621 0.7838 91.9891 -73.3733)" class="st1" width="1.8" height="4.9"/>

    <rect x="157.3" y="114.4" transform="matrix(0.1792 0.9838 -0.9838 0.1792 244.8167 -59.7012)" class="st1" width="1.8" height="4.9"/>
    <path class="st36" d="M26.1,116.4h-2.5c-0.8,0-1.4-0.6-1.4-1.4V97.8c0-0.8,0.6-1.4,1.4-1.4h2.5c0.8,0,1.4,0.6,1.4,1.4V115
		C27.5,115.8,26.8,116.4,26.1,116.4z"/>
    <rect x="4.9" y="99" class="st36" width="17.3" height="14.9"/>
    <path class="st30" d="M566.7,89.2h-18.1V58.5h2.6c4.3,0,5.5,3.8,6.6,6.4L566.7,89.2z"/>
    <polygon class="st7" points="570.5,107 548.7,107 548.7,126.6 564.3,126.6 	"/>
    <path class="st37" d="M578.2,89.5h-29.5v19.7h26.1l7.1-13.4C583.5,93,581.4,89.5,578.2,89.5z"/>
    <path class="st10" d="M420.3,27c-1.5,0-3,0.5-3.8,1.5c-0.4,0.5-0.7,1.1-0.7,1.9c0,2.5-0.9,36.4-0.9,36.4s-0.4,5.9,5.8,5.9h103.3
		c12.8,0,11.4,0.7,11.4-6.9c0-1.8-0.3-4-11-7.5C519.1,56.5,420.3,27,420.3,27z"/>
    <g>
		<defs>
			<path id="SVGID_5_" d="M421.7,28.3c-1.5,0-2.9,0.5-3.7,1.4c-0.4,0.5-0.7,1.1-0.7,1.8c0,2.4-0.9,35.3-0.9,35.3s-0.4,5.7,5.6,5.7
				h100.1c12.4,0,11.1,0.6,11.1-6.7c0-1.7-0.3-3.9-10.7-7.3C517.5,56.9,421.7,28.3,421.7,28.3z"/>
		</defs>
      <clipPath id="SVGID_6_">
			<use xlink:href="#SVGID_5_"  style="overflow:visible;"/>
		</clipPath>
	</g>
    <path class="st38" d="M437.1,70.1h-2.7c-1.9,0-3.5-1.5-3.5-3.5V46.1c0-1.9,1.5-3.5,3.5-3.5h2.7c1.9,0,3.5,1.5,3.5,3.5v20.5
		C440.6,68.5,439,70.1,437.1,70.1z"/>
    <path class="st39" d="M450.4,68.8h-3.3c-1.7,0-3.1-1.4-3.1-3.1V49.3c0-1.7,1.4-3.1,3.1-3.1h3.3c1.7,0,3.1,1.4,3.1,3.1v16.3
		C453.5,67.4,452.1,68.8,450.4,68.8z"/>
    <path class="st40" d="M463.5,70.1h-3.8c-1.6,0-2.9-1.3-2.9-2.9V53.4c0-1.6,1.3-2.9,2.9-2.9h3.8c1.6,0,2.9,1.3,2.9,2.9v13.7
		C466.5,68.8,465.2,70.1,463.5,70.1z"/>
    <path class="st41" d="M476.6,72.3h-4c-1.6,0-2.8-1.3-2.8-2.8V56.8c0-1.6,1.3-2.8,2.8-2.8h4c1.6,0,2.8,1.3,2.8,2.8v12.7
		C479.4,71,478.1,72.3,476.6,72.3z"/>
    <path class="st35" d="M347.9,146.4l24,1.1c4.9,0.2,9.4-2.6,11.4-7.1l3.5-4.4c0,0,11.2-4.7,11.6-15.1s8.1-26.5,11.3-29
		c3.2-2.5,16.5-33.7,16.2-40.2s-3.2-21.5,1.3-28.2c0,0,6.3-6.3,19.7-3.1c13.5,3.2,19.9,13.7,19.9,13.7h0.3c0,0,9.7-10.3,22.6-9.4
		c13.1,0.9,21,8.1,16.5,20.5"/>
    <g>
		<g>
			<g>
				<path class="st2" d="M538.4,144.8h-21.2v-37.3c0-13.3-10.8-24.1-24.1-24.1h-60.4c-23.2,0-42-18.8-42-42V11.3h21.2v30.1
					c0,11.5,9.3,20.8,20.8,20.8h60.4c25,0,45.3,20.3,45.3,45.3V144.8z"/>
			</g>
		</g>
      <g>
			<path class="st9" d="M411.9,11.3v30.1c0,11.5,9.3,20.8,20.8,20.8h60.4c25,0,45.3,20.3,45.3,45.3v37.3"/>
        <path class="st9" d="M517.3,144.8v-37.3c0-13.3-10.8-24.1-24.1-24.1h-60.4c-23.2,0-42-18.8-42-42V11.3"/>
		</g>
      <path class="st5" d="M410.9,41.9h-19.2c-1.2,0-2.1-0.9-2.1-2.1v-0.3c0-1.2,0.9-2.1,2.1-2.1h19.2c1.2,0,2.1,0.9,2.1,2.1v0.3
			C413,40.9,412,41.9,410.9,41.9z"/>
      <path class="st5" d="M537.3,146.9h-19.2c-1.2,0-2.1-0.9-2.1-2.1v-0.3c0-1.2,0.9-2.1,2.1-2.1h19.2c1.2,0,2.1,0.9,2.1,2.1v0.3
			C539.4,145.9,538.5,146.9,537.3,146.9z"/>
      <path class="st5" d="M537.3,123h-19.2c-1.2,0-2.1-0.9-2.1-2.1v-0.3c0-1.2,0.9-2.1,2.1-2.1h19.2c1.2,0,2.1,0.9,2.1,2.1v0.3
			C539.4,122.1,538.5,123,537.3,123z"/>
      <path class="st5" d="M535.4,95.1l-18.9,3.4c-1.1,0.2-2.2-0.6-2.4-1.7l-0.1-0.3c-0.2-1.1,0.6-2.2,1.7-2.4l18.9-3.4
			c1.1-0.2,2.2,0.6,2.4,1.7l0.1,0.3C537.3,93.8,536.6,94.8,535.4,95.1z"/>
      <path class="st5" d="M517.7,71.3l-12.6,14.5c-0.8,0.9-2.1,1-3,0.2l-0.2-0.2c-0.9-0.8-1-2.1-0.2-3l12.6-14.5c0.8-0.9,2.1-1,3-0.2
			l0.2,0.2C518.3,69.1,518.4,70.4,517.7,71.3z"/>
      <path class="st5" d="M486.6,63.1v19.2c0,1.2-0.9,2.1-2.1,2.1h-0.3c-1.2,0-2.1-0.9-2.1-2.1V63.1c0-1.2,0.9-2.1,2.1-2.1h0.3
			C485.7,61,486.6,62,486.6,63.1z"/>
      <path class="st5" d="M462.1,63.1v19.2c0,1.2-0.9,2.1-2.1,2.1h-0.3c-1.2,0-2.1-0.9-2.1-2.1V63.1c0-1.2,0.9-2.1,2.1-2.1h0.3
			C461.2,61,462.1,62,462.1,63.1z"/>
      <path class="st5" d="M438.2,63.1v19.2c0,1.2-0.9,2.1-2.1,2.1h-0.3c-1.2,0-2.1-0.9-2.1-2.1V63.1c0-1.2,0.9-2.1,2.1-2.1h0.3
			C437.2,61,438.2,62,438.2,63.1z"/>
      <path class="st5" d="M420.1,59.2l-11.6,15.3c-0.7,0.9-2,1.1-2.9,0.4l-0.2-0.2c-0.9-0.7-1.1-2-0.4-2.9l11.6-15.3
			c0.7-0.9,2-1.1,2.9-0.4l0.2,0.2C420.6,56.9,420.8,58.2,420.1,59.2z"/>
      <path class="st5" d="M410.9,14.4h-19.2c-1.2,0-2.1-0.9-2.1-2.1V12c0-1.2,0.9-2.1,2.1-2.1h19.2c1.2,0,2.1,0.9,2.1,2.1v0.3
			C413,13.5,412,14.4,410.9,14.4z"/>
	</g>
    <path class="st35" d="M347.9,146.4l23.8-1.2c5.6,0.2,10.8-0.6,13.1-5.7c2-4.5,5.3-10,10.1-13.7c8.2-6.4,11.5-31.2,14.7-33.7
		c3.2-2.5,12.1-10.6,13.2-24.6c0.5-6.5-2.1-33.2,2.4-39.8c0,0,8.1-10.2,21.5-7c13.5,3.2,19.9,13.7,19.9,13.7h0.3
		c0,0,9.7-10.3,22.6-9.4c13.1,0.9,21,8.1,16.5,20.5"/>
    <rect x="385.5" y="134.4" transform="matrix(-0.5 0.866 -0.866 -0.5 698.0282 -129.341)" class="st1" width="1.8" height="4.9"/>

    <rect x="397.6" y="118.9" transform="matrix(-0.1731 0.9849 -0.9849 -0.1731 586.9255 -250.1357)" class="st1" width="1.8" height="4.9"/>

    <rect x="408" y="89.7" transform="matrix(-0.1731 0.9849 -0.9849 -0.1731 570.4155 -294.5946)" class="st1" width="1.8" height="4.9"/>

    <rect x="425" y="24" transform="matrix(-0.1731 0.9849 -0.9849 -0.1731 525.7285 -388.432)" class="st1" width="1.8" height="4.9"/>
    <path class="st10" d="M253.4,27.9c0,0,3.8,0.9,3.4,1.2c-11.9,7.3-46.5,26.5-60.7,36.5c-2.5,1.8-3.5-7.8-9.5-9.9
		C210,44.6,236.8,33.2,251,28.6C254.2,27.6,253.4,27.9,253.4,27.9z"/>
    <g>
		<path class="st2" d="M198,148.6c-1.2,0-2.1-0.9-2.1-2.1s0.9-2.1,2.1-2.1h143.5c1.2,0,2.1,0.9,2.1,2.1s-0.9,2.1-2.1,2.1H198z"/>
      <g>
			<path class="st1" d="M341.5,145.2c0.7,0,1.3,0.6,1.3,1.3s-0.6,1.3-1.3,1.3H198c-0.7,0-1.3-0.6-1.3-1.3s0.6-1.3,1.3-1.3H341.5
				 M341.5,143.5H198c-1.6,0-2.9,1.3-2.9,2.9s1.3,2.9,2.9,2.9h143.5c1.6,0,2.9-1.3,2.9-2.9S343.2,143.5,341.5,143.5L341.5,143.5z"/>
		</g>
	</g>
    <g>
		<path class="st2" d="M204.5,150.1c-1.9,0-3.5-1.6-3.5-3.5v-0.2c0-1.9,1.6-3.5,3.5-3.5h140.7c1.9,0,3.5,1.6,3.5,3.5v0.2
			c0,1.9-1.6,3.5-3.5,3.5H204.5z"/>
      <g>
			<path class="st1" d="M345.2,143.7c1.5,0,2.7,1.2,2.7,2.7v0.2c0,1.5-1.2,2.7-2.7,2.7H204.5c-1.5,0-2.7-1.2-2.7-2.7v-0.2
				c0-1.5,1.2-2.7,2.7-2.7H345.2 M345.2,142H204.5c-2.4,0-4.3,1.9-4.3,4.3v0.2c0,2.4,1.9,4.3,4.3,4.3h140.7c2.4,0,4.3-1.9,4.3-4.3
				v-0.2C349.5,144,347.6,142,345.2,142L345.2,142z"/>
		</g>
	</g>
    <path class="st30" d="M340.7,150.4h-129c-1.2,0-2.2-1-2.2-2.2v-3.8c0-1.2,1-2.2,2.2-2.2h129c1.2,0,2.2,1,2.2,2.2v3.8
		C342.8,149.4,341.9,150.4,340.7,150.4z"/>
    <g id="XMLID_244_">
		<g id="XMLID_613_">
			<g id="XMLID_616_">
				<polygon id="XMLID_627_" class="st42" points="294.6,33.3 294.5,37.4 296.9,34.8 				"/>
        <path id="XMLID_626_" class="st12" d="M293.5,39.3c3-6.5,10.6-9.3,17.1-6.3c6.5,3,9.3,10.6,6.3,17.1l-1.5,3.3
					c-3,6.5-10.6,9.3-17.1,6.3c-6.5-3-9.3-10.6-6.3-17.1L293.5,39.3z"/>

        <ellipse id="XMLID_624_" transform="matrix(0.4185 -0.9082 0.9082 0.4185 133.9242 302.5505)" class="st1" cx="303.2" cy="46.7" rx="1" ry="0.9"/>
        <path id="XMLID_622_" class="st1" d="M295.4,43.1c-0.2,0.5-0.8,0.7-1.2,0.5c-0.5-0.2-0.7-0.8-0.4-1.3c0.2-0.5,0.8-0.7,1.2-0.5
					C295.5,42.1,295.7,42.6,295.4,43.1z"/>
        <path id="XMLID_621_" class="st12" d="M310.1,63.8l0-4.7c-3.5,2-7.9,2.4-11.8,0.6c0,0-0.1,0-0.1-0.1c-0.3-0.1-0.6-0.3-0.9-0.5
					l0,4.8c0.4,3.3,3.1,5.8,6.5,5.8C307.1,69.7,309.8,67.1,310.1,63.8z"/>
        <g id="XMLID_618_">
					<path id="XMLID_620_" class="st1" d="M297.4,40.6l-4.7-2.2l0,0c0.3-0.7,1.2-1,1.9-0.7l3.4,1.6c0.4,0.2,0.5,0.6,0.4,1l0,0
						C298.2,40.6,297.8,40.8,297.4,40.6z"/>
          <path id="XMLID_619_" class="st1" d="M308.8,45.8l-4.7-2.2c-0.4-0.2-0.5-0.6-0.4-1l0,0c0.2-0.4,0.6-0.5,1-0.4l3.4,1.6
						C308.8,44.3,309.1,45.1,308.8,45.8L308.8,45.8z"/>
				</g>
        <path id="XMLID_617_" class="st42" d="M311.1,33.3c-0.4-0.2-0.9-0.4-1.3-0.5l1,1.1l1.9,6.8L312,48l1.4,0.6
					c1.4,0.7,2,2.3,1.4,3.8s-2.3,2.1-4.1,1.2l-0.8,5.7l0.2,0.2c2.9-1.2,4.7-3.5,5.8-5.9l1.5-3.3C320.4,43.9,317.6,36.3,311.1,33.3z"
        />
			</g>
      <path id="XMLID_615_" class="st43" d="M312.8,51c0,0-0.9-0.6-1.5,0.5c0,0,0.4-0.3,0.8-0.2"/>
      <polygon id="XMLID_614_" class="st14" points="309.8,59.8 310.4,56.1 302.8,58.7 303.2,62.8 			"/>
		</g>
      <g id="XMLID_607_">
			<g id="XMLID_608_">
				<g id="XMLID_610_">

						<ellipse id="XMLID_612_" transform="matrix(0.7642 -0.645 0.645 0.7642 41.8793 200.4587)" class="st44" cx="295.1" cy="43" rx="4.1" ry="4.1"/>
          <circle id="XMLID_611_" class="st44" cx="304.1" cy="47.1" r="4.1"/>
				</g>
        <line id="XMLID_609_" class="st44" x1="298.8" y1="44.7" x2="300.3" y2="45.4"/>
			</g>
		</g>
      <g id="XMLID_603_">
			<path id="XMLID_606_" class="st42" d="M312.7,41.4L312.7,41.4c-0.5,1-1.6,1.4-2.6,1l-13.2-6.1c-3.2-1.5-4.7-5.1-3.4-8.4
				c0-0.1,0.1-0.2,0.1-0.3c0,0,3.5,1.6,4.8,2.2c-1.1-1.9-0.9-4-0.2-5.5l11.7,5.4l3.6,1.7c1.7,0.8,2.5,2.9,1.7,4.6v0l1.2-2.6
				c3.7,1.7,5.4,6.2,3.6,9.9c-0.7,1.6-2,2.9-3.6,3.6l-1.1-1.1C314.1,44.7,313.2,43.1,312.7,41.4L312.7,41.4z"/>
        <path id="XMLID_605_" class="st20" d="M300.8,27.2l11.8,5.4c1.2,0.5,1.7,1.9,1.1,3.1l-0.4,0.9l0,0c0.5-1.2,0-2.5-1.1-3.1
				L302,28.9"/>
        <line id="XMLID_604_" class="st20" x1="300.7" y1="32.3" x2="294.8" y2="29.5"/>
		</g>
      <path id="XMLID_417_" class="st45" d="M296,50.3c0.7,0.7,2.1,1.3,3.1,1.1c0,0-0.5,2.7-2.6,2"/>
      <path id="XMLID_253_" class="st44" d="M308.1,47.3l3.8-0.1c1.2,0,2.3,1,2.4,2.2l0,0"/>
      <path id="XMLID_247_" class="st45" d="M311.8,48l1.5,0.7c1.4,0.7,2,2.3,1.4,3.8l0,0c-0.7,1.4-2.3,2-3.8,1.4l-0.6-0.3"/>
      <path id="XMLID_245_" class="st45" d="M298,49.1c-0.8-0.4-1.1-1.3-0.8-2.1s1.3-1.1,2.1-0.8"/>
	</g>
</g>
</svg>
