<svg width="148" height="85" viewBox="0 0 148 85" fill="none" xmlns="http://www.w3.org/2000/svg">
<g clip-path="url(#clip0)">
<path d="M13.7991 53.0221C15.063 54.257 16.8943 54.9773 18.9835 54.9773C22.6203 54.9773 24.2969 51.0669 20.2474 49.9864L16.8943 49.1117C14.0313 48.3399 12.071 46.4104 12.071 43.6577C11.9936 40.5191 15.2951 37.895 19.0093 37.9721C21.5628 37.9721 23.9358 38.7954 25.7413 40.1846L23.6778 43.1174C22.414 42.0884 20.8664 41.5738 19.0351 41.5738C15.9657 41.5738 14.4182 44.6867 17.8744 45.6901L21.0211 46.5133C24.0389 47.2851 26.4893 49.2146 26.4893 52.4047C26.5666 55.8005 23.1104 58.6047 19.0351 58.5275C16.2237 58.5275 13.6444 57.5757 11.7615 55.9806L13.7991 53.0221Z" fill="white"/>
<path d="M39.5921 47.3366C38.7925 46.5133 37.6834 46.0245 36.4454 46.0245C33.9693 46.0245 31.9832 48.0312 31.9832 50.4752C31.9832 52.9449 33.9693 54.9516 36.4454 54.9516C37.6834 54.9516 38.8183 54.4628 39.5921 53.6395L42.1714 56.1607C40.6754 57.6271 38.6894 58.5275 36.4454 58.5275C31.8284 58.5275 28.1143 55.1059 28.1143 50.5009C28.1143 45.9216 31.8284 42.5 36.4454 42.5C38.6894 42.5 40.6754 43.3747 42.1714 44.8668L39.5921 47.3366Z" fill="white"/>
<path d="M66.5198 52.1989H54.4229C55.042 54.0254 56.6927 55.2088 58.5756 55.2088C60.2779 55.2088 62.0061 54.3856 62.8057 53.0993L65.6429 54.9258C64.1469 57.0869 61.5418 58.5275 58.5756 58.5275C54.0102 58.5275 50.2703 55.0802 50.2703 50.5009C50.2703 45.9216 54.0102 42.5 58.5756 42.5C63.0636 42.5 66.752 46.0245 66.752 50.5009C66.7262 51.0669 66.6488 51.6071 66.5198 52.1989ZM62.7541 48.9573C62.135 47.1308 60.4843 45.9473 58.5756 45.9473C56.6927 45.9473 55.0678 47.1308 54.4229 48.9573H62.7541Z" fill="white"/>
<path d="M96.285 47.3366C95.4854 46.5133 94.3763 46.0245 93.1383 46.0245C90.6621 46.0245 88.6761 48.0312 88.6761 50.4752C88.6761 52.9449 90.6621 54.9516 93.1383 54.9516C94.3763 54.9516 95.5112 54.4628 96.285 53.6395L98.8643 56.1607C97.3683 57.6271 95.3823 58.5275 93.1383 58.5275C88.5213 58.5275 84.8071 55.1059 84.8071 50.5009C84.8071 45.9216 88.5213 42.5 93.1383 42.5C95.3823 42.5 97.3683 43.3747 98.8643 44.8668L96.285 47.3366Z" fill="white"/>
<path d="M116.068 52.1989H103.971C104.59 54.0254 106.241 55.2088 108.124 55.2088C109.826 55.2088 111.554 54.3856 112.354 53.0993L115.191 54.9258C113.695 57.0869 111.09 58.5275 108.124 58.5275C103.559 58.5275 99.8186 55.0802 99.8186 50.5009C99.8186 45.9216 103.559 42.5 108.124 42.5C112.612 42.5 116.3 46.0245 116.3 50.5009C116.3 51.0669 116.223 51.6071 116.068 52.1989ZM112.302 48.9573C111.683 47.1308 110.033 45.9473 108.124 45.9473C106.241 45.9473 104.616 47.1308 103.971 48.9573H112.302Z" fill="white"/>
<path d="M47.8456 42.9116H44.1572V58.0645H47.8456V42.9116Z" fill="white"/>
<path d="M48.2068 39.0269C48.2068 40.2361 47.2267 41.2137 46.0144 41.2137C44.8022 41.2137 43.822 40.2361 43.822 39.0269C43.822 37.8178 44.8022 36.8402 46.0144 36.8402C47.2267 36.8144 48.2068 37.8178 48.2068 39.0269Z" fill="white"/>
<path d="M75.7023 42.4742C71.4723 42.4742 68.7898 45.5357 68.7898 49.4718V58.0902H72.4524V49.4461C72.4266 47.5681 73.6131 46.0502 75.7023 46.0502C77.6626 46.0502 79.107 47.4394 79.107 49.549V58.1159H82.7954V49.4975C82.7954 45.4328 79.8808 42.4742 75.7023 42.4742Z" fill="white"/>
<path d="M31.9832 19.655V11.7827L29.3007 14.4582C27.4436 12.6574 24.8901 11.5254 22.1045 11.5254C16.2753 11.5254 11.5552 15.9761 11.5552 21.7903C11.5552 27.6044 16.2753 32.0551 22.1045 32.0551C25.7413 32.0551 28.9912 30.1771 30.8225 27.27L27.7789 25.3919C26.5925 27.2442 24.5032 28.5048 22.1045 28.5048C18.3903 28.5048 15.3983 25.5206 15.3983 21.7903C15.3983 18.0857 18.3903 15.1014 22.1045 15.1014C23.91 15.1014 25.5608 15.8217 26.773 16.9794L24.0906 19.655H31.9832Z" fill="white"/>
<path d="M41.088 32.0551C36.4969 32.0551 32.7827 28.6335 32.7827 24.0284C32.7827 19.4491 36.4969 16.0275 41.088 16.0275C45.705 16.0275 49.4192 19.4491 49.4192 24.0284C49.4192 28.6335 45.705 32.0551 41.088 32.0551ZM41.088 19.552C38.6377 19.552 36.6517 21.5587 36.6517 24.0027C36.6517 26.4724 38.6377 28.4791 41.088 28.4791C43.59 28.4791 45.576 26.4724 45.576 24.0027C45.576 21.5844 43.59 19.552 41.088 19.552Z" fill="white"/>
<path d="M137.76 25.7264H125.663C126.282 27.553 127.933 28.7364 129.816 28.7364C131.518 28.7364 133.246 27.9131 134.046 26.6268L136.883 28.4534C135.387 30.6144 132.782 32.0551 129.816 32.0551C125.25 32.0551 121.51 28.6077 121.51 24.0284C121.51 19.4491 125.25 16.0275 129.816 16.0275C134.304 16.0275 137.992 19.552 137.992 24.0284C137.966 24.5944 137.889 25.1347 137.76 25.7264ZM133.969 22.4849C133.349 20.6583 131.699 19.4749 129.79 19.4749C127.907 19.4749 126.282 20.6583 125.637 22.4849H133.969Z" fill="white"/>
<path d="M140.004 31.6178V23.0251C140.004 19.2434 142.171 16.3877 146.813 16.3877C147.2 16.3877 147.587 16.4135 148.026 16.4649V20.0151C147.742 19.9894 147.458 19.9637 147.2 19.9637C144.879 19.9637 143.693 21.25 143.693 23.8227V31.6435H140.004V31.6178Z" fill="white"/>
<path d="M84.2912 16.0018C79.7 16.0018 75.9858 19.4234 75.9858 24.0027V36.0684H79.6484V30.0999C80.7833 31.3347 82.3825 32.0551 84.2654 32.0551C88.8823 32.0551 92.4417 28.6335 92.4417 24.0284C92.4675 19.4234 88.9339 16.0018 84.2912 16.0018ZM84.1106 28.4791C81.6603 28.4791 79.6742 26.4724 79.6742 24.0027C79.6742 21.5587 81.6603 19.552 84.1106 19.552C86.6125 19.552 88.5986 21.5587 88.5986 24.0027C88.5986 26.4724 86.6125 28.4791 84.1106 28.4791Z" fill="white"/>
<path d="M104.848 16.4391V25.0832C104.874 27.0384 103.662 28.4791 101.598 28.4791C99.6382 28.4791 98.1938 27.0899 98.1938 24.9803V16.4391H94.5054V25.0575C94.5054 29.0708 97.3942 32.0551 101.598 32.0551C105.854 32.0551 108.511 28.9679 108.511 25.0575V16.4391H104.848Z" fill="white"/>
<path d="M55.1195 31.6177V22.3305C55.0937 20.8126 56.048 19.552 57.7503 19.552C59.3495 19.552 60.5102 20.684 60.5102 22.3819V31.592H64.1986V22.3305C64.147 20.8126 65.1013 19.552 66.8037 19.552C68.4286 19.552 69.5377 20.7097 69.5377 22.3819V31.592H73.2003V22.1761C73.2003 18.5487 70.621 16.0018 66.9842 16.0018C64.8692 16.0018 63.2958 16.8508 62.2899 18.24C61.284 16.9022 59.659 16.0018 57.4924 16.0018C53.7266 16.0018 51.4053 18.7545 51.4053 22.1761V31.6177H55.1195Z" fill="white"/>
<path d="M120.143 19.8093V16.4649H116.404V11.9628H112.715V16.4392H110.162V19.7836H112.715V26.421C112.715 29.8941 114.779 31.6177 118.88 31.6177C119.292 31.6177 119.705 31.592 120.118 31.5663V28.0418C119.911 28.0418 119.679 28.0675 119.499 28.0675C117.435 28.0675 116.378 27.553 116.378 25.5206V19.8093H120.143Z" fill="white"/>
<path d="M48.1812 78.6713H36.0843C36.7033 80.4979 38.3541 81.6813 40.237 81.6813C41.9393 81.6813 43.6674 80.8581 44.467 79.5717L47.3042 81.3983C45.8083 83.5593 43.2032 85 40.237 85C35.6716 85 31.9316 81.5527 31.9316 76.9734C31.9316 72.3941 35.6716 68.9725 40.237 68.9725C44.7249 68.9725 48.4133 72.497 48.4133 76.9734C48.3875 77.5394 48.3102 78.0796 48.1812 78.6713ZM44.3896 75.4555C43.7706 73.6289 42.1199 72.4455 40.2112 72.4455C38.3283 72.4455 36.7033 73.6289 36.0585 75.4555H44.3896Z" fill="white"/>
<path d="M93.6285 78.6713H81.5316C82.1506 80.4979 83.8014 81.6813 85.6842 81.6813C87.3866 81.6813 89.1147 80.8581 89.9143 79.5717L92.7515 81.3983C91.2555 83.5593 88.6504 85 85.6842 85C81.1189 85 77.3789 81.5527 77.3789 76.9734C77.3789 72.3941 81.1189 68.9725 85.6842 68.9725C90.1722 68.9725 93.8606 72.497 93.8606 76.9734C93.8606 77.5394 93.7574 78.0796 93.6285 78.6713ZM89.8627 75.4555C89.2437 73.6289 87.5929 72.4455 85.6842 72.4455C83.8014 72.4455 82.1764 73.6289 81.5316 75.4555H89.8627Z" fill="white"/>
<path d="M95.8723 84.5627V75.97C95.8723 72.1883 98.0389 69.3326 102.682 69.3326C103.069 69.3326 103.455 69.3584 103.894 69.4098V72.9601C103.61 72.9343 103.327 72.9086 103.069 72.9086C100.747 72.9086 99.5607 74.1949 99.5607 76.7676V84.5884H95.8723V84.5627Z" fill="white"/>
<path d="M27.7789 71.1849C26.5925 69.3069 24.5032 68.072 22.1045 68.072C18.3903 68.072 15.3983 71.0563 15.3983 74.7609C15.3983 78.4912 18.3903 81.4755 22.1045 81.4755C24.5032 81.4755 26.5925 80.2149 27.7789 78.3626L30.8225 80.2406C28.9912 83.1477 25.7671 85.0257 22.1045 85.0257C16.2753 85.0257 11.5552 80.5751 11.5552 74.7609C11.5552 68.9467 16.2753 64.4961 22.1045 64.4961C25.7413 64.4961 28.9912 66.3998 30.8225 69.2812L27.7789 71.1849Z" fill="white"/>
<path d="M22.1045 77.8738C23.8424 77.8738 25.2512 76.4686 25.2512 74.7352C25.2512 73.0018 23.8424 71.5966 22.1045 71.5966C20.3666 71.5966 18.9578 73.0018 18.9578 74.7352C18.9578 76.4686 20.3666 77.8738 22.1045 77.8738Z" fill="white"/>
<path d="M57.3378 68.9467C53.1078 68.9467 50.4253 72.0082 50.4253 75.9443V84.5627H54.0879V75.9186C54.0621 74.0406 55.2486 72.5227 57.3378 72.5227C59.2981 72.5227 60.7425 73.9119 60.7425 76.0215V84.5884H64.4309V75.97C64.4567 71.9053 61.5421 68.9467 57.3378 68.9467Z" fill="white"/>
<path d="M76.0375 72.7542V69.4098H72.2976V64.9334H68.6092V69.4098H66.0557V72.7542H68.6092V79.3916C68.6092 82.8647 70.6726 84.5884 74.7737 84.5884C75.1864 84.5884 75.5991 84.5626 76.0117 84.5369V81.0124C75.8054 81.0124 75.5733 81.0381 75.3927 81.0381C73.3293 81.0381 72.2718 80.5236 72.2718 78.4912V72.7542H76.0375Z" fill="white"/>
<path d="M11.3489 24.2857L2.06348 1.92947L24.3486 11.3196L11.3489 24.2857Z" fill="#F59D20"/>
<path d="M12.4323 6.30295L7.14478 14.1752L9.2598 19.2433L10.4721 17.4167L16.7398 8.1038L12.4323 6.30295Z" fill="#07C29E"/>
<path d="M14.1603 19.8351L11.2715 24.1314L11.3489 24.2857L24.3485 11.3196L20.8923 9.85321L14.1603 19.8351Z" fill="#07C29E"/>
<path d="M8.30537 4.55357L2.06348 1.92947L5.10705 9.28722L8.30537 4.55357Z" fill="#07C29E"/>
<path d="M2.01185 4.01332C3.12297 4.01332 4.0237 3.11491 4.0237 2.00666C4.0237 0.898412 3.12297 0 2.01185 0C0.900736 0 0 0.898412 0 2.00666C0 3.11491 0.900736 4.01332 2.01185 4.01332Z" fill="#F59D20"/>
</g>
<defs>
<clipPath id="clip0">
<rect width="148" height="85" fill="white"/>
</clipPath>
</defs>
</svg>
