<svg width="220" height="110" viewBox="0 0 220 110" fill="none" xmlns="http://www.w3.org/2000/svg">
<path fill-rule="evenodd" clip-rule="evenodd" d="M82.5909 24.771V48.9459L58.4075 48.8723L66.6071 40.6936C63.5631 37.759 59.688 35.8408 55.5135 35.2024C51.339 34.564 47.0697 35.2366 43.2916 37.1278C39.5136 39.0191 36.4118 42.0365 34.412 45.7657C32.4123 49.4949 31.6125 53.7533 32.1225 57.9564C32.6325 62.1596 34.4273 66.1014 37.2605 69.2411C40.0938 72.3807 43.8266 74.5642 47.9468 75.492C52.0669 76.4197 56.3725 76.0463 60.2725 74.4228C64.1725 72.7993 67.4759 70.0055 69.7293 66.4246L79.0593 72.2079C76.208 76.7219 72.2626 80.4379 67.5913 83.0091C62.92 85.5803 57.6752 86.9228 52.3464 86.9114C34.4807 86.9175 20 73.28 20 55.4705C20 37.661 34.4807 24.0113 52.3464 24.0113C60.5751 24.0139 68.4796 27.2286 74.3851 32.9743L82.5909 24.771ZM110.617 76.086C104.257 76.086 98.6174 73.8437 94.7315 70.0637L88.2976 79.1308C94.096 84.0319 101.972 86.9175 110.587 86.9175C123.057 87.1564 133.683 78.5733 133.438 68.14C133.438 58.3377 125.954 52.4073 116.703 50.0854L107.049 47.5919C96.4362 44.5287 101.184 34.996 110.593 34.996C116.22 34.996 120.98 36.595 124.835 39.7317L131.19 30.7443C125.691 26.4925 118.359 24.0052 110.587 24.0052C99.2345 23.7663 89.098 31.7919 89.3363 41.4226C89.3363 49.8403 95.3791 55.783 104.141 58.111L114.442 60.7576C126.864 64.1333 121.799 76.086 110.617 76.086ZM189.98 44.541C187.612 40.7858 184.091 37.9036 179.948 36.3282C175.804 34.7528 171.263 34.5695 167.006 35.8057C162.75 37.042 159.01 39.631 156.348 43.183C153.686 46.7351 152.246 51.058 152.246 55.5011C152.246 59.9443 153.686 64.2672 156.348 67.8193C159.01 71.3713 162.75 73.9603 167.006 75.1966C171.263 76.4328 175.804 76.2495 179.948 74.6741C184.091 73.0987 187.612 70.2165 189.98 66.4613L199.316 72.2386C196.465 76.7521 192.519 80.4678 187.848 83.039C183.177 85.6101 177.932 86.9529 172.603 86.942C154.738 86.942 140.257 73.2984 140.257 55.4889C140.257 37.6794 154.738 24.0174 172.603 24.0174C177.929 24.0213 183.169 25.3704 187.837 27.9402C192.506 30.5099 196.454 34.2176 199.316 38.7209L189.98 44.541ZM163.035 55.5011C163.024 53.5914 163.579 51.7214 164.63 50.1282C165.68 48.5351 167.179 47.2905 168.935 46.5524C170.692 45.8143 172.628 45.6158 174.497 45.9821C176.366 46.3484 178.085 47.263 179.435 48.61C180.785 49.957 181.706 51.6757 182.081 53.5482C182.456 55.4206 182.268 57.3625 181.541 59.1276C180.814 60.8928 179.58 62.4017 177.997 63.463C176.413 64.5243 174.551 65.0902 172.646 65.089C171.387 65.0931 170.139 64.8482 168.975 64.3684C167.81 63.8885 166.751 63.1832 165.859 62.2928C164.966 61.4023 164.257 60.3441 163.773 59.1788C163.288 58.0134 163.038 56.7637 163.035 55.5011V55.5011Z" fill="white"/>
</svg>
