<svg width="190" height="175" viewBox="0 0 190 175" fill="none" xmlns="http://www.w3.org/2000/svg">
<rect width="190" height="175" fill="white"/>
<path fill-rule="evenodd" clip-rule="evenodd" d="M30.5419 24.1523C35.3562 20.3619 39.1771 15.5112 41.69 10H47H53H72V48V87V125H91V163H53H14V125H34V87V48H14V31.8011C20.058 30.5643 25.7277 27.9426 30.5419 24.1523ZM121.458 13.892C126.068 11.9824 131.01 10.9997 136 11C141.122 11 146.193 11.9829 150.925 13.8926C155.657 15.8023 159.956 18.6014 163.578 22.1301C167.199 25.6587 170.072 29.8478 172.032 34.4582C173.992 39.0685 175 44.0099 175 49V87V126C175 136.078 170.891 145.744 163.577 152.87C156.263 159.996 146.343 164 136 164C131.01 164 126.069 163.018 121.458 161.108C116.848 159.198 112.659 156.399 109.13 152.871C105.601 149.342 102.802 145.153 100.893 140.542C98.9829 135.932 98 130.99 98 126V87V49C97.9997 44.0097 98.9824 39.0682 100.892 34.4577C102.802 29.8472 105.601 25.658 109.129 22.1293C112.658 18.6006 116.847 15.8016 121.458 13.892Z" fill="url(#paint0_linear)"/>
<defs>
<linearGradient id="paint0_linear" x1="162.31" y1="19.5498" x2="12.9852" y2="95.8229" gradientUnits="userSpaceOnUse">
<stop offset="0.0416667" stop-color="#05CCA6"/>
<stop offset="0.53125" stop-color="#4F9AF7" stop-opacity="0.961912"/>
<stop offset="1" stop-color="#A759FF" stop-opacity="0.926133"/>
</linearGradient>
</defs>
</svg>
