<svg width="190" height="175" viewBox="0 0 190 175" fill="none" xmlns="http://www.w3.org/2000/svg">
<rect width="190" height="175" fill="white"/>
<path d="M98 126H136V164C131.01 164 126.069 163.018 121.458 161.108C116.848 159.198 112.659 156.399 109.13 152.871C105.601 149.342 102.802 145.153 100.893 140.542C98.9829 135.932 98 130.99 98 126V126Z" fill="#F59D20"/>
<path d="M136 87H98V126H136V87Z" fill="#07C29E"/>
<path d="M136 49H98V87H136V49Z" fill="#F59D20"/>
<path d="M136 164V126H175C175 136.078 170.891 145.744 163.577 152.87C156.263 159.996 146.343 164 136 164V164Z" fill="#07C29E"/>
<path d="M136 11V49H98C97.9997 44.0097 98.9824 39.0682 100.892 34.4577C102.802 29.8472 105.601 25.658 109.129 22.1293C112.658 18.6006 116.847 15.8016 121.458 13.892C126.068 11.9824 131.01 10.9997 136 11V11Z" fill="#07C29E"/>
<path d="M175 49L136 49V11C141.122 11 146.193 11.9829 150.925 13.8926C155.657 15.8023 159.956 18.6014 163.578 22.1301C167.199 25.6587 170.072 29.8478 172.032 34.4582C173.992 39.0685 175 44.0099 175 49V49Z" fill="#A353FF"/>
<path d="M136 126H175V87H136V126Z" fill="#A353FF"/>
<path d="M47 48H72V10H47V48Z" fill="#07C29E"/>
<path d="M136 87H175V49L136 49V87Z" fill="#07C29E"/>
<path d="M41.69 10C39.1771 15.5112 35.3562 20.3619 30.5419 24.1523C25.7277 27.9426 20.058 30.5643 14 31.8011V48H53V10H41.69Z" fill="#07C29E"/>
<path d="M34 87V126H72V87H34Z" fill="#F59D20"/>
<path d="M72 87V48H34V87H72Z" fill="#A353FF"/>
<path d="M53 125H14V163H53V125Z" fill="#07C29E"/>
<path d="M53 163H91V125H53L53 163Z" fill="#07C29E"/>
</svg>
