<svg width="110" height="112" viewBox="0 0 110 112" fill="none" xmlns="http://www.w3.org/2000/svg">
<path d="M54.709 55.937H29.2547V72.0005C29.2547 74.7574 30.8678 77.257 33.6601 79.291C33.8128 79.4013 33.9961 79.4993 34.1489 79.6034C34.4971 79.8362 34.8454 80.069 35.2242 80.2896C35.4625 80.4305 35.7191 80.5653 35.9696 80.7001C36.3485 80.9022 36.7395 81.0921 37.1428 81.2821C37.4116 81.4046 37.6743 81.5333 37.9554 81.6497C38.4136 81.8457 38.8902 82.0234 39.379 82.201C39.6295 82.2929 39.8678 82.3909 40.1244 82.4767C40.8699 82.7279 41.6336 82.9607 42.434 83.169L43.045 83.3099C43.656 83.4631 44.3159 83.6101 44.9819 83.7388L45.9717 83.9103C46.546 84.0083 47.1265 84.1002 47.7192 84.1799L48.7945 84.3085C49.4055 84.3759 50.0593 84.4311 50.707 84.4801L51.7029 84.5475C52.6683 84.6026 53.6459 84.6332 54.6418 84.6332H54.7946C55.7905 84.6332 56.7681 84.6026 57.7335 84.5475L58.7294 84.4801C59.3709 84.4311 60.0125 84.3759 60.6418 84.3085L61.7172 84.1799C62.3282 84.1002 62.8903 84.0083 63.4646 83.9103L64.4545 83.7388C65.1205 83.6101 65.762 83.4631 66.3913 83.3099L67.0023 83.169C67.8027 82.9607 68.5665 82.7279 69.3119 82.4767C69.5685 82.3909 69.8068 82.2929 70.0573 82.201C70.5461 82.0234 71.0227 81.8457 71.481 81.6497C71.7559 81.5333 72.0248 81.4107 72.2936 81.2821C72.6969 81.0983 73.0879 80.9022 73.4667 80.7001C73.7172 80.5653 73.9738 80.4305 74.2121 80.2896C74.591 80.069 74.9392 79.8362 75.2875 79.6034C75.4402 79.4993 75.6235 79.4013 75.7702 79.291C78.5686 77.257 80.1816 74.7574 80.1816 72.0005V55.9309L54.709 55.937Z" fill="#A353FF" stroke="#07C29E" stroke-width="2" stroke-linecap="round" stroke-linejoin="round"/>
<path d="M106.436 45.1852L54.7212 24L3 45.1852L54.7395 66.3642L106.436 45.1852Z" fill="#A353FF" stroke="#07C29E" stroke-width="2" stroke-linecap="round" stroke-linejoin="round"/>
<path d="M57.8678 45.9142L90.9901 51.6363V87.2614" stroke="#F69C20" stroke-width="3" stroke-miterlimit="10"/>
<path d="M54.2691 48.518C56.2566 48.518 57.8679 46.9024 57.8679 44.9095C57.8679 42.9166 56.2566 41.301 54.2691 41.301C52.2815 41.301 50.6703 42.9166 50.6703 44.9095C50.6703 46.9024 52.2815 48.518 54.2691 48.518Z" stroke="#F69C20" stroke-width="2.25" stroke-miterlimit="10"/>
<path d="M79.9861 86.9613L91.2102 75.707L101.842 86.367" stroke="#F69C20" stroke-width="3" stroke-miterlimit="10"/>
</svg>
