<svg width="190" height="175" viewBox="0 0 190 175" fill="none" xmlns="http://www.w3.org/2000/svg">
<rect width="190" height="175" fill="white"/>
<path d="M99 126H137V164C132.01 164 127.069 163.018 122.458 161.108C117.848 159.198 113.659 156.399 110.13 152.871C106.601 149.342 103.802 145.153 101.893 140.542C99.9829 135.932 99 130.99 99 126Z" fill="#643FFF"/>
<path d="M137 87H99V126L137 149.5V87Z" fill="#643FFF"/>
<path d="M137 164V106.5L176 126C176 136.078 171.891 145.744 164.577 152.87C157.263 159.996 147.343 164 137 164Z" fill="#66CC66"/>
<path d="M176 49L137 49V11C142.122 11 147.193 11.9829 151.925 13.8926C156.657 15.8023 160.956 18.6014 164.578 22.1301C168.199 25.6587 171.072 29.8478 173.032 34.4582C174.992 39.0685 176 44.0099 176 49Z" fill="#37AEE2"/>
<path d="M137 126H176V87H137V126Z" fill="#66CC66"/>
<path d="M137 87H176V49L137 49V87Z" fill="#07C29E"/>
<path d="M41.69 10C39.1771 15.5112 35.3562 20.3619 30.5419 24.1523C25.7277 27.9426 20.058 30.5643 14 31.8011V48H34V77H72V10L41.69 10Z" fill="#1877F2"/>
<path fill-rule="evenodd" clip-rule="evenodd" d="M15 125H54H92V163H54H15V125Z" fill="#07C29E"/>
<path fill-rule="evenodd" clip-rule="evenodd" d="M44.8859 134.248V141.923H37.2011L39.8069 139.327C37.8244 137.422 34.8601 136.971 32.4028 138.202C29.9456 139.433 28.5265 142.079 28.8583 144.811C29.1901 147.543 31.2011 149.771 33.8812 150.375C36.5614 150.98 39.3314 149.83 40.8 147.504L43.7651 149.338C41.9227 152.25 38.7174 154.01 35.2764 154C29.6014 153.976 25 149.636 25 143.989C25 138.341 29.6014 134.002 35.2764 134.002C37.8913 134 40.4039 135.02 42.2802 136.844L44.8859 134.248ZM53.7908 150.537C51.9298 150.585 50.1232 149.906 48.7543 148.641L46.7114 151.517C48.7114 153.153 51.2235 154.029 53.805 153.99C57.768 154.066 61.1446 151.342 61.0689 148.03C61.0689 144.922 58.7044 143.037 55.7487 142.298L52.6842 141.506C49.3124 140.559 50.821 137.508 53.8098 137.508C55.4475 137.461 57.0496 137.992 58.3355 139.01L60.3501 136.167C58.4623 134.739 56.1559 133.978 53.7908 134.002C50.1873 133.926 46.962 136.475 47.0424 139.535C47.0424 142.208 48.934 144.093 51.7431 144.832L55.0157 145.671C58.955 146.742 57.3424 150.537 53.7908 150.537ZM79.0112 140.526C77.4659 138.076 74.4901 136.944 71.7114 137.75C68.9328 138.556 67.0205 141.105 67.0205 144.003C67.0205 146.901 68.9328 149.45 71.7114 150.256C74.4901 151.062 77.4659 149.931 79.0112 147.481L81.9764 149.319C80.127 152.235 76.9125 153.996 73.464 153.981C67.789 153.981 63.1876 149.646 63.1876 143.994C63.1876 138.341 67.8127 134.002 73.4876 134.002C76.9341 133.995 80.1449 135.754 82 138.664L79.0112 140.526ZM70.4467 144.003C70.441 142.764 71.1817 141.644 72.3228 141.165C73.4639 140.687 74.7803 140.946 75.6569 141.82C76.5336 142.694 76.7976 144.011 76.3256 145.157C75.8536 146.302 74.7387 147.05 73.5018 147.05C72.6932 147.052 71.9169 146.732 71.3438 146.161C70.7708 145.589 70.448 144.813 70.4467 144.003Z" fill="white"/>
<path d="M175.989 49L137.018 35C137.011 35 137 49.0051 137 49.0114V87.9886C137 87.9949 137.005 88 137.011 88H175.989C175.995 88 176 87.9949 176 87.9886V49.0114C176 49.0051 175.995 49 175.989 49Z" fill="#37AEE2"/>
<path d="M152.306 68C151.498 68 151.571 67.6958 151.351 66.9354L149 58.9506L167 48" fill="#C8DAEA"/>
<path d="M152 68C152.574 68 152.902 67.6706 153.311 67.3412L157 63.8L152.41 61" fill="#A9C9DD"/>
<path d="M152.529 61.1682L162.589 68.6687C163.632 69.3505 164.526 68.9717 164.825 67.608L168.923 48.0613C169.296 46.3945 168.252 45.6369 167.135 46.1672L143.214 55.5618C141.649 56.1679 141.649 57.1528 142.916 57.5316L149.101 59.5014L163.26 50.3342C163.93 49.9554 164.526 50.1069 164.079 50.6372" fill="#F6FBFE"/>
<path fill-rule="evenodd" clip-rule="evenodd" d="M137 49V11C132.01 10.9997 127.068 11.9824 122.458 13.892C117.847 15.8016 113.658 18.6006 110.129 22.1293C106.601 25.658 103.802 29.8472 101.892 34.4577C99.9824 39.0682 98.9997 44.0097 99 49H99.0111C99.005 49 99 49.0051 99 49.0114V87.9886C99 87.9949 99.005 88 99.0111 88H136.989C136.995 88 137 87.9949 137 87.9886V49.0114C137 49.0113 137 49.0075 137 49Z" fill="#ED1D24"/>
<path d="M130.691 50.83C130.395 49.7167 129.43 48.826 128.316 48.5292C125.793 47.8612 110.578 47.787 107.684 48.5292C106.57 48.826 105.605 49.7167 105.309 50.83C104.641 53.6503 104.566 60.8495 105.309 63.744C105.605 64.8573 106.57 65.7479 107.684 66.0448C110.355 66.787 125.57 66.787 128.316 66.0448C129.43 65.7479 130.395 64.8573 130.691 63.744C131.359 61.0721 131.359 53.576 130.691 50.83Z" fill="white"/>
<path d="M115.328 53.3534V61.2206L122.23 57.287" fill="#ED1D24"/>
<path d="M125 112H109V115H115.5C115.167 116.333 114.4 119.8 114 123C113.6 126.2 115.5 128 117.5 128H125V125H118.5C117.3 125 117 124 117 123L118.5 115H125V112Z" fill="white"/>
<path d="M71.9889 73H34.0111C34.005 73 34 73.0068 34 73.0152V124.985C34 124.993 34.005 125 34.0111 125H71.9889C71.995 125 72 124.993 72 124.985V73.0152C72 73.0068 71.995 73 71.9889 73Z" fill="#5281B8"/>
<path d="M59.9479 46.3058L60.7808 40.7379H55.5936V37.1262C55.5936 35.6063 56.3169 34.1165 58.6402 34.1165H61V29.3762C61 29.3762 58.8594 29 56.8137 29C52.5397 29 49.7489 31.6636 49.7489 36.4942V40.7379H45V46.3058H49.7489V60H55.5936V46.3058H59.9479Z" fill="white"/>
<path d="M54.3264 106.923C54.6966 106.849 55.363 106.701 55.363 105.812C55.363 105.812 55.289 103.589 56.3256 103.292C57.3622 102.996 58.695 105.441 60.1018 106.405C61.1384 107.072 61.9529 106.998 61.9529 106.998L65.7291 106.923C65.7291 106.923 67.6542 106.775 66.7657 105.219C66.6917 105.071 66.0993 104.108 63.878 102.107C61.5827 99.8838 61.9529 100.254 64.6925 96.4751C66.3955 94.1779 67.1359 92.77 66.9138 92.2513C66.6176 91.7325 65.4329 91.8066 65.4329 91.8066H61.2125C60.7682 91.8066 60.5461 91.8807 60.3239 92.2513C60.3239 92.2513 59.6575 94.1038 58.769 95.5858C56.9179 98.7722 56.1775 98.9204 55.8073 98.6981C55.1409 98.3276 55.289 96.9197 55.289 95.9564C55.289 92.6218 55.8073 91.4361 54.3264 91.1397C53.3638 90.9915 49.9578 90.8433 48.9212 91.362C48.4029 91.6584 48.1067 92.1772 48.3289 92.2513C48.551 92.2513 49.2174 92.3254 49.5876 92.77C50.18 93.7333 50.254 98.3276 49.4395 98.7722C48.3289 99.5874 45.5152 94.1779 44.8488 92.3995C44.7007 91.9548 44.4786 91.8807 43.9603 91.7325H39.8879C39.4436 91.7325 38.7773 91.8066 39.0734 92.6959C41.0726 96.8456 45.219 106.998 52.6974 106.923H54.3264Z" fill="white"/>
<path d="M165.548 113.563L161.441 109.456C159.865 107.883 157.731 107 155.506 107C153.282 107 151.148 107.883 149.572 109.456L145.465 113.563C144.684 114.34 144.064 115.264 143.641 116.282C143.218 117.3 143 118.392 143 119.494C143 120.597 143.218 121.689 143.641 122.707C144.064 123.725 144.684 124.649 145.465 125.426L149.572 129.527C151.125 131.085 153.225 131.973 155.422 131.999C157.62 132.026 159.741 131.19 161.331 129.669V129.669L165.535 125.464C166.316 124.688 166.936 123.764 167.359 122.746C167.782 121.728 168 120.636 168 119.533C168 118.431 167.782 117.339 167.359 116.321C166.936 115.303 166.316 114.379 165.535 113.602L165.548 113.563ZM162.812 122.465L158.647 126.624C157.828 127.415 156.733 127.853 155.596 127.843C154.459 127.833 153.372 127.377 152.567 126.572L154.591 124.538C154.728 124.676 154.89 124.785 155.069 124.859C155.247 124.934 155.439 124.972 155.633 124.972C155.826 124.972 156.018 124.934 156.196 124.859C156.375 124.785 156.537 124.676 156.674 124.538L160.787 120.437C161.062 120.159 161.218 119.785 161.221 119.394C161.22 119.102 161.133 118.817 160.971 118.575C160.809 118.332 160.579 118.143 160.31 118.032C160.041 117.92 159.745 117.891 159.459 117.948C159.173 118.005 158.911 118.145 158.705 118.351L154.591 122.465C154.189 122.869 153.712 123.189 153.186 123.408C152.66 123.627 152.096 123.739 151.527 123.74C150.958 123.741 150.394 123.629 149.867 123.411C149.341 123.194 148.863 122.874 148.46 122.471C148.057 122.068 147.737 121.59 147.519 121.063C147.3 120.537 147.187 119.972 147.187 119.402C147.186 118.831 147.298 118.267 147.515 117.739C147.732 117.212 148.051 116.733 148.453 116.33L152.567 112.222C152.969 111.817 153.448 111.497 153.974 111.278C154.501 111.059 155.066 110.946 155.636 110.946C156.206 110.946 156.771 111.059 157.297 111.278C157.824 111.497 158.302 111.817 158.705 112.222L156.674 114.243C156.397 113.969 156.022 113.815 155.633 113.815C155.243 113.815 154.869 113.969 154.591 114.243L150.478 118.357C150.342 118.493 150.234 118.655 150.16 118.833C150.087 119.011 150.05 119.201 150.051 119.394C150.05 119.587 150.087 119.779 150.161 119.958C150.234 120.137 150.342 120.3 150.478 120.437C150.758 120.712 151.134 120.865 151.526 120.865C151.718 120.866 151.908 120.828 152.086 120.755C152.264 120.682 152.425 120.573 152.56 120.437L156.674 116.33C157.076 115.926 157.554 115.605 158.079 115.387C158.605 115.168 159.169 115.055 159.738 115.054C160.308 115.054 160.871 115.165 161.398 115.383C161.924 115.601 162.402 115.92 162.805 116.323C163.208 116.726 163.528 117.204 163.747 117.731C163.965 118.258 164.078 118.822 164.078 119.393C164.079 119.963 163.967 120.528 163.75 121.055C163.533 121.582 163.214 122.061 162.812 122.465V122.465Z" fill="white"/>
</svg>
